<svg width="28" height="28" viewBox="0 0 28 28" fill="none" xmlns="http://www.w3.org/2000/svg">
<g opacity="0.2">
<mask id="mask0_632_1283" style="mask-type:alpha" maskUnits="userSpaceOnUse" x="0" y="0" width="28" height="28">
<rect width="28" height="28" fill="#D9D9D9"/>
</mask>
<g mask="url(#mask0_632_1283)">
<path d="M5.44454 13.0279C4.90982 13.0279 4.452 12.8374 4.07108 12.4565C3.69036 12.0758 3.5 11.6181 3.5 11.0833V5.44454C3.5 4.90982 3.69036 4.452 4.07108 4.07108C4.452 3.69036 4.90982 3.5 5.44454 3.5H11.0833C11.6181 3.5 12.0758 3.69036 12.4565 4.07108C12.8374 4.452 13.0279 4.90982 13.0279 5.44454V11.0833C13.0279 11.6181 12.8374 12.0758 12.4565 12.4565C12.0758 12.8374 11.6181 13.0279 11.0833 13.0279H5.44454ZM5.44454 24.5C4.90982 24.5 4.452 24.3096 4.07108 23.9289C3.69036 23.548 3.5 23.0902 3.5 22.5555V16.9167C3.5 16.3819 3.69036 15.9242 4.07108 15.5435C4.452 15.1626 4.90982 14.9721 5.44454 14.9721H11.0833C11.6181 14.9721 12.0758 15.1626 12.4565 15.5435C12.8374 15.9242 13.0279 16.3819 13.0279 16.9167V22.5555C13.0279 23.0902 12.8374 23.548 12.4565 23.9289C12.0758 24.3096 11.6181 24.5 11.0833 24.5H5.44454ZM16.9167 13.0279C16.3819 13.0279 15.9242 12.8374 15.5435 12.4565C15.1626 12.0758 14.9721 11.6181 14.9721 11.0833V5.44454C14.9721 4.90982 15.1626 4.452 15.5435 4.07108C15.9242 3.69036 16.3819 3.5 16.9167 3.5H22.5555C23.0902 3.5 23.548 3.69036 23.9289 4.07108C24.3096 4.452 24.5 4.90982 24.5 5.44454V11.0833C24.5 11.6181 24.3096 12.0758 23.9289 12.4565C23.548 12.8374 23.0902 13.0279 22.5555 13.0279H16.9167ZM16.9167 24.5C16.3819 24.5 15.9242 24.3096 15.5435 23.9289C15.1626 23.548 14.9721 23.0902 14.9721 22.5555V16.9167C14.9721 16.3819 15.1626 15.9242 15.5435 15.5435C15.9242 15.1626 16.3819 14.9721 16.9167 14.9721H22.5555C23.0902 14.9721 23.548 15.1626 23.9289 15.5435C24.3096 15.9242 24.5 16.3819 24.5 16.9167V22.5555C24.5 23.0902 24.3096 23.548 23.9289 23.9289C23.548 24.3096 23.0902 24.5 22.5555 24.5H16.9167ZM5.44454 11.0833H11.0833V5.44454H5.44454V11.0833ZM16.9167 11.0833H22.5555V5.44454H16.9167V11.0833ZM16.9167 22.5555H22.5555V16.9167H16.9167V22.5555ZM5.44454 22.5555H11.0833V16.9167H5.44454V22.5555Z" fill="#1C1B1F"/>
</g>
</g>
</svg>
