<svg width="21" height="21" viewBox="0 0 21 21" fill="none" xmlns="http://www.w3.org/2000/svg">
<path d="M2.33333 9.33333C1.69167 9.33333 1.14236 9.10486 0.685417 8.64792C0.228472 8.19097 0 7.64167 0 7V2.33333C0 1.69167 0.228472 1.14236 0.685417 0.685417C1.14236 0.228472 1.69167 0 2.33333 0H7C7.64167 0 8.19097 0.228472 8.64792 0.685417C9.10486 1.14236 9.33333 1.69167 9.33333 2.33333V7C9.33333 7.64167 9.10486 8.19097 8.64792 8.64792C8.19097 9.10486 7.64167 9.33333 7 9.33333H2.33333ZM2.33333 21C1.69167 21 1.14236 20.7715 0.685417 20.3146C0.228472 19.8576 0 19.3083 0 18.6667V14C0 13.3583 0.228472 12.809 0.685417 12.3521C1.14236 11.8951 1.69167 11.6667 2.33333 11.6667H7C7.64167 11.6667 8.19097 11.8951 8.64792 12.3521C9.10486 12.809 9.33333 13.3583 9.33333 14V18.6667C9.33333 19.3083 9.10486 19.8576 8.64792 20.3146C8.19097 20.7715 7.64167 21 7 21H2.33333ZM14 9.33333C13.3583 9.33333 12.809 9.10486 12.3521 8.64792C11.8951 8.19097 11.6667 7.64167 11.6667 7V2.33333C11.6667 1.69167 11.8951 1.14236 12.3521 0.685417C12.809 0.228472 13.3583 0 14 0H18.6667C19.3083 0 19.8576 0.228472 20.3146 0.685417C20.7715 1.14236 21 1.69167 21 2.33333V7C21 7.64167 20.7715 8.19097 20.3146 8.64792C19.8576 9.10486 19.3083 9.33333 18.6667 9.33333H14ZM14 21C13.3583 21 12.809 20.7715 12.3521 20.3146C11.8951 19.8576 11.6667 19.3083 11.6667 18.6667V14C11.6667 13.3583 11.8951 12.809 12.3521 12.3521C12.809 11.8951 13.3583 11.6667 14 11.6667H18.6667C19.3083 11.6667 19.8576 11.8951 20.3146 12.3521C20.7715 12.809 21 13.3583 21 14V18.6667C21 19.3083 20.7715 19.8576 20.3146 20.3146C19.8576 20.7715 19.3083 21 18.6667 21H14ZM2.33333 7H7V2.33333H2.33333V7ZM14 7H18.6667V2.33333H14V7ZM14 18.6667H18.6667V14H14V18.6667ZM2.33333 18.6667H7V14H2.33333V18.6667Z" fill="white"/>
</svg>
