<svg width="28" height="28" viewBox="0 0 28 28" fill="none" xmlns="http://www.w3.org/2000/svg">
<g clip-path="url(#clip0_711_821)">
<mask id="mask0_711_821" style="mask-type:alpha" maskUnits="userSpaceOnUse" x="0" y="0" width="28" height="28">
<rect width="28" height="28" fill="#D9D9D9"/>
</mask>
<g mask="url(#mask0_711_821)">
<path d="M5.54923 12.9753C5.15023 12.9753 4.80616 12.8307 4.51702 12.5416C4.22788 12.2526 4.08331 11.9087 4.08331 11.5097V5.54917C4.08331 5.15017 4.22788 4.8061 4.51702 4.51696C4.80616 4.22782 5.15023 4.08325 5.54923 4.08325H11.5097C11.9087 4.08325 12.2527 4.22782 12.5416 4.51696C12.8308 4.8061 12.9754 5.15017 12.9754 5.54917V11.5097C12.9754 11.9087 12.8308 12.2526 12.5416 12.5416C12.2527 12.8307 11.9087 12.9753 11.5097 12.9753H5.54923ZM5.54923 23.9166C5.15023 23.9166 4.80616 23.772 4.51702 23.4829C4.22788 23.1937 4.08331 22.8497 4.08331 22.4507V16.4902C4.08331 16.0912 4.22788 15.7472 4.51702 15.4583C4.80616 15.1691 5.15023 15.0245 5.54923 15.0245H11.5097C11.9087 15.0245 12.2527 15.1691 12.5416 15.4583C12.8308 15.7472 12.9754 16.0912 12.9754 16.4902V22.4507C12.9754 22.8497 12.8308 23.1937 12.5416 23.4829C12.2527 23.772 11.9087 23.9166 11.5097 23.9166H5.54923ZM16.4902 12.9753C16.0912 12.9753 15.7473 12.8307 15.4583 12.5416C15.1692 12.2526 15.0246 11.9087 15.0246 11.5097V5.54917C15.0246 5.15017 15.1692 4.8061 15.4583 4.51696C15.7473 4.22782 16.0912 4.08325 16.4902 4.08325H22.4507C22.8497 4.08325 23.1938 4.22782 23.4829 4.51696C23.7721 4.8061 23.9166 5.15017 23.9166 5.54917V11.5097C23.9166 11.9087 23.7721 12.2526 23.4829 12.5416C23.1938 12.8307 22.8497 12.9753 22.4507 12.9753H16.4902ZM16.4902 23.9166C16.0912 23.9166 15.7473 23.772 15.4583 23.4829C15.1692 23.1937 15.0246 22.8497 15.0246 22.4507V16.4902C15.0246 16.0912 15.1692 15.7472 15.4583 15.4583C15.7473 15.1691 16.0912 15.0245 16.4902 15.0245H22.4507C22.8497 15.0245 23.1938 15.1691 23.4829 15.4583C23.7721 15.7472 23.9166 16.0912 23.9166 16.4902V22.4507C23.9166 22.8497 23.7721 23.1937 23.4829 23.4829C23.1938 23.772 22.8497 23.9166 22.4507 23.9166H16.4902Z" fill="#0088FF"/>
</g>
</g>
<defs>
<clipPath id="clip0_711_821">
<rect width="28" height="28" fill="white"/>
</clipPath>
</defs>
</svg>
