<svg width="160" height="128" viewBox="0 0 160 128" fill="none" xmlns="http://www.w3.org/2000/svg">
<g clip-path="url(#clip0_496_2752)">
<path d="M0.562088 100.298C0.587298 100.237 158.552 99.0646 158.458 100.298C158.381 101.301 169.186 60.0695 134.656 62.081C134.656 62.081 142.383 45.5397 130.951 35.6959C118.883 25.3038 103.479 34.2564 103.479 34.2564C103.479 34.2564 89.7006 0.0999918 58.5236 10.4924C22.9011 22.3666 32.5202 63.1104 32.5202 63.1104C32.5202 63.1104 0.0578766 60.4193 0.562088 100.298Z" fill="#0088FF"/>
<path opacity="0.6" d="M0.562088 100.298C0.587298 100.237 158.552 99.0646 158.458 100.298C158.381 101.301 169.186 60.0695 134.656 62.081C134.656 62.081 142.383 45.5397 130.951 35.6959C118.883 25.3038 103.479 34.2564 103.479 34.2564C103.479 34.2564 89.7006 0.0999918 58.5236 10.4924C22.9011 22.3666 32.5202 63.1104 32.5202 63.1104C32.5202 63.1104 0.0578766 60.4193 0.562088 100.298Z" fill="white"/>
<path d="M44.1998 17.9665L31.0552 16.1382L29.8483 24.714L42.8331 26.8807L44.1998 17.9665ZM43.4172 18.2044L36.975 21.3032L31.7323 16.5795L43.4172 18.2044ZM30.2349 24.4307L31.3261 16.6758L36.9161 21.7122L43.7847 18.4086L42.5466 26.4852L30.2349 24.4307Z" fill="#0088FF"/>
<path opacity="0.6" d="M44.1998 17.9665L31.0552 16.1382L29.8483 24.714L42.8331 26.8807L44.1998 17.9665ZM43.4172 18.2044L36.975 21.3032L31.7323 16.5795L43.4172 18.2044ZM30.2349 24.4307L31.3261 16.6758L36.9161 21.7122L43.7847 18.4086L42.5466 26.4852L30.2349 24.4307Z" fill="white"/>
<path d="M108.74 9.83398L97.9307 19.2883L111.842 36.0395L111.953 36.1733L123.333 26.4655L108.74 9.83398ZM122.586 26.1331L110.505 22.8671L108.964 10.6102L122.586 26.1331ZM98.4086 19.3263L108.594 10.4177L110.193 23.1384L122.73 26.5284L111.995 35.6862L98.4086 19.3263Z" fill="#0088FF"/>
<path opacity="0.6" d="M108.74 9.83398L97.9307 19.2883L111.842 36.0395L111.953 36.1733L123.333 26.4655L108.74 9.83398ZM122.586 26.1331L110.505 22.8671L108.964 10.6102L122.586 26.1331ZM98.4086 19.3263L108.594 10.4177L110.193 23.1384L122.73 26.5284L111.995 35.6862L98.4086 19.3263Z" fill="white"/>
<path d="M12.7289 58.7155C12.7278 58.7155 12.7268 58.7155 12.7257 58.7155C12.6309 58.7137 12.5556 58.6356 12.557 58.5404C12.5613 58.3114 12.5659 58.082 12.5719 57.8527C12.5744 57.7582 12.6454 57.6858 12.7481 57.6854C12.8429 57.6879 12.9178 57.7667 12.9153 57.8612C12.9096 58.0895 12.9046 58.3182 12.9004 58.5468C12.899 58.6406 12.8223 58.7155 12.7289 58.7155ZM12.8027 56.313C12.8003 56.313 12.7974 56.313 12.7949 56.3127C12.7001 56.3084 12.627 56.2282 12.6309 56.1337C12.6408 55.9047 12.6518 55.6757 12.6635 55.4466C12.6685 55.3522 12.7505 55.279 12.8439 55.284C12.9384 55.289 13.0115 55.3696 13.0066 55.4644C12.9948 55.6924 12.9842 55.9207 12.9739 56.149C12.97 56.2413 12.894 56.313 12.8027 56.313ZM12.9391 53.9138C12.9352 53.9138 12.9309 53.9134 12.927 53.9134C12.8326 53.907 12.7612 53.825 12.7676 53.7302C12.7836 53.5015 12.8006 53.2729 12.8184 53.0442C12.8258 52.9494 12.9043 52.8777 13.003 52.8862C13.0975 52.8936 13.1681 52.9764 13.1607 53.0708C13.1429 53.2984 13.1259 53.526 13.1102 53.754C13.1038 53.8445 13.0282 53.9138 12.9391 53.9138ZM13.1401 51.5191C13.1344 51.5191 13.1287 51.5188 13.123 51.5184C13.0286 51.5092 12.9597 51.4254 12.9689 51.3309C12.9913 51.1026 13.0144 50.8747 13.0389 50.6467C13.0485 50.5522 13.1315 50.4837 13.2278 50.494C13.3219 50.504 13.3904 50.5885 13.3805 50.6829C13.3567 50.9098 13.3332 51.1374 13.3109 51.3643C13.302 51.4527 13.2274 51.5191 13.1401 51.5191ZM13.4089 49.1312C13.4018 49.1312 13.3943 49.1309 13.3872 49.1298C13.2931 49.1181 13.2267 49.0318 13.2384 48.9377C13.2675 48.7101 13.2974 48.4829 13.3283 48.2556C13.341 48.1615 13.4266 48.0965 13.5214 48.1086C13.6152 48.1214 13.6812 48.208 13.6684 48.3018C13.6375 48.5279 13.6077 48.7541 13.5789 48.9807C13.5683 49.0677 13.4941 49.1312 13.4089 49.1312ZM13.7476 46.7526C13.7387 46.7526 13.7299 46.7518 13.7206 46.7504C13.6269 46.7359 13.563 46.6478 13.5779 46.5541C13.6134 46.3275 13.6503 46.1013 13.6883 45.8752C13.7039 45.7818 13.7916 45.7179 13.8861 45.7342C13.9798 45.7498 14.0427 45.8382 14.0271 45.932C13.9894 46.1571 13.9528 46.3826 13.917 46.608C13.9038 46.6922 13.8307 46.7526 13.7476 46.7526ZM14.1595 44.3852C14.1488 44.3852 14.1382 44.3842 14.1272 44.3824C14.0342 44.3647 13.9731 44.2748 13.9908 44.1814C14.0338 43.956 14.0778 43.7308 14.1229 43.5061C14.1414 43.413 14.2326 43.3516 14.325 43.3715C14.418 43.39 14.4784 43.4805 14.4595 43.5735C14.4148 43.7972 14.3711 44.0213 14.3282 44.2457C14.3122 44.3284 14.2405 44.3852 14.1595 44.3852ZM14.6477 42.0325C14.6353 42.0325 14.6225 42.0311 14.6101 42.0282C14.5174 42.0073 14.4595 41.9157 14.4801 41.8234C14.5306 41.5993 14.5817 41.376 14.6342 41.1526C14.6559 41.0599 14.7479 41.0038 14.8405 41.0248C14.9329 41.0464 14.99 41.1391 14.9684 41.2311C14.9162 41.4534 14.865 41.6756 14.815 41.8983C14.7969 41.9782 14.7262 42.0325 14.6477 42.0325ZM15.2137 39.6975C15.1992 39.6975 15.1846 39.6957 15.1704 39.6918C15.0788 39.668 15.0238 39.5743 15.0475 39.4823C15.1054 39.2604 15.1644 39.0385 15.2244 38.8173C15.2489 38.7257 15.3433 38.6706 15.4349 38.6965C15.5265 38.7214 15.5805 38.8155 15.5557 38.9071C15.496 39.1272 15.4374 39.3478 15.3799 39.569C15.3597 39.6464 15.2901 39.6975 15.2137 39.6975ZM15.8607 37.3835C15.8443 37.3835 15.828 37.381 15.8117 37.3764C15.7208 37.349 15.6693 37.2535 15.6963 37.1626C15.762 36.9424 15.8291 36.723 15.8969 36.5039C15.9253 36.4134 16.0208 36.3633 16.1117 36.391C16.2023 36.4191 16.253 36.5153 16.2246 36.6058C16.1568 36.8235 16.0904 37.0422 16.0251 37.2606C16.0027 37.3355 15.9345 37.3835 15.8607 37.3835ZM16.5914 35.0943C16.5733 35.0943 16.5545 35.0914 16.5364 35.0854C16.4466 35.0549 16.3986 34.9572 16.4288 34.8677C16.5027 34.6504 16.5776 34.4335 16.6539 34.2169C16.6852 34.1274 16.7835 34.0802 16.873 34.1118C16.9625 34.1434 17.0094 34.2414 16.9781 34.3308C16.9025 34.546 16.8276 34.7619 16.7544 34.9778C16.7296 35.0495 16.6628 35.0943 16.5914 35.0943ZM17.4081 32.8342C17.3875 32.8342 17.3669 32.8306 17.347 32.8228C17.2583 32.7891 17.2142 32.6897 17.2476 32.6013C17.3296 32.3868 17.4127 32.173 17.4976 31.9596C17.5327 31.8716 17.6329 31.8283 17.7206 31.8634C17.8086 31.8982 17.852 31.9983 17.8168 32.0864C17.7326 32.2984 17.6499 32.5111 17.5686 32.7241C17.5423 32.7923 17.477 32.8342 17.4081 32.8342ZM18.3118 30.6075C18.2891 30.6075 18.266 30.6029 18.244 30.5936C18.157 30.556 18.1165 30.4552 18.1538 30.3682C18.2443 30.1573 18.3363 29.9471 18.4293 29.7368C18.4677 29.6506 18.5692 29.6111 18.6559 29.6495C18.7425 29.6878 18.7815 29.789 18.7432 29.876C18.6509 30.0848 18.5593 30.2943 18.4694 30.5038C18.4414 30.5684 18.3782 30.6075 18.3118 30.6075ZM19.3046 28.4188C19.2797 28.4188 19.2545 28.4135 19.2307 28.4021C19.1452 28.3613 19.1089 28.2587 19.1498 28.1731C19.2488 27.9657 19.3493 27.7591 19.4509 27.5535C19.4928 27.4686 19.5965 27.4335 19.6806 27.4753C19.7658 27.5173 19.8006 27.6202 19.7584 27.7051C19.6572 27.91 19.5574 28.1152 19.459 28.3211C19.4303 28.3829 19.3685 28.4188 19.3046 28.4188ZM20.3883 26.2727C20.3613 26.2727 20.3336 26.2663 20.3077 26.2525C20.2239 26.2077 20.1923 26.104 20.2367 26.0202C20.3446 25.8175 20.4536 25.6154 20.564 25.4138C20.6095 25.3307 20.7139 25.2998 20.797 25.3456C20.8801 25.391 20.9106 25.4954 20.8651 25.5785C20.7554 25.7788 20.6468 25.9801 20.5399 26.1814C20.509 26.2397 20.4497 26.2727 20.3883 26.2727ZM21.5643 24.1763C21.5345 24.1763 21.5043 24.1685 21.4769 24.1525C21.3956 24.1042 21.3687 23.9988 21.4169 23.9171C21.5341 23.7193 21.6527 23.5226 21.7724 23.3263C21.8217 23.2453 21.9272 23.2197 22.0085 23.2694C22.0895 23.3188 22.115 23.4246 22.0657 23.5056C21.9464 23.7005 21.8288 23.8962 21.7124 24.0925C21.6801 24.1461 21.6229 24.1763 21.5643 24.1763ZM22.839 22.1371C22.8067 22.1371 22.7737 22.1279 22.7446 22.1087C22.6654 22.0565 22.6437 21.95 22.6959 21.8708C22.8227 21.6787 22.9502 21.4877 23.0791 21.2973C23.1327 21.2192 23.2396 21.199 23.3177 21.2515C23.3961 21.3048 23.4167 21.4117 23.3635 21.4902C23.2353 21.6791 23.1085 21.869 22.9828 22.0597C22.9495 22.1101 22.8948 22.1371 22.839 22.1371ZM24.2089 20.1607C24.1738 20.1607 24.1386 20.1501 24.1081 20.1277C24.0314 20.072 24.0147 19.9647 24.0704 19.888C24.2057 19.7023 24.3424 19.5177 24.4798 19.3334C24.5367 19.2578 24.6442 19.2418 24.7202 19.299C24.7959 19.3558 24.8115 19.4634 24.7547 19.5393C24.6176 19.7222 24.482 19.9058 24.3474 20.0901C24.314 20.1362 24.2618 20.1607 24.2089 20.1607ZM25.6697 18.2515C25.6321 18.2515 25.5941 18.2391 25.5625 18.2135C25.4886 18.1542 25.4766 18.0462 25.5362 17.972C25.6804 17.7927 25.8252 17.6145 25.9715 17.4373C26.0312 17.3641 26.1395 17.3535 26.213 17.4142C26.2861 17.4746 26.2964 17.5825 26.2361 17.6557C26.0908 17.8318 25.9467 18.0086 25.8036 18.1865C25.7698 18.2295 25.7201 18.2515 25.6697 18.2515ZM27.2189 16.4132C27.1784 16.4132 27.1376 16.399 27.1053 16.3703C27.0343 16.3074 27.0275 16.1988 27.0904 16.1281C27.2427 15.9559 27.3958 15.7848 27.5502 15.615C27.6141 15.5451 27.7231 15.5401 27.7927 15.6033C27.8627 15.6672 27.868 15.7755 27.8044 15.8458C27.6511 16.0145 27.4987 16.1846 27.3475 16.3554C27.3137 16.3937 27.2665 16.4132 27.2189 16.4132ZM102.41 15.8504C102.389 15.8504 102.367 15.8465 102.346 15.838C102.133 15.7521 101.921 15.6654 101.709 15.5785C101.622 15.5422 101.58 15.4421 101.616 15.3544C101.652 15.2667 101.753 15.2251 101.84 15.261C102.052 15.348 102.263 15.4343 102.475 15.5199C102.563 15.5554 102.606 15.6555 102.57 15.7432C102.542 15.81 102.478 15.8504 102.41 15.8504ZM100.191 14.929C100.169 14.929 100.146 14.9248 100.124 14.9152L99.4919 14.6453C99.4046 14.608 99.3644 14.5072 99.4017 14.4198C99.4397 14.3321 99.5402 14.2924 99.6272 14.3296L100.258 14.5991C100.345 14.6361 100.386 14.7369 100.349 14.8243C100.321 14.8896 100.258 14.929 100.191 14.929ZM28.8533 14.6517C28.81 14.6517 28.7671 14.6357 28.7337 14.6031C28.6655 14.5367 28.6641 14.4284 28.7305 14.3602C28.8906 14.1954 29.0522 14.0321 29.2145 13.8698C29.2816 13.8027 29.3902 13.8027 29.4573 13.8698C29.5244 13.9369 29.5244 14.0456 29.4573 14.1127C29.2961 14.2739 29.136 14.4365 28.9769 14.5999C28.9425 14.6343 28.8981 14.6517 28.8533 14.6517ZM97.9853 13.9742C97.9622 13.9742 97.9388 13.9696 97.9164 13.9597L97.2876 13.682C97.201 13.6433 97.1619 13.5421 97.2006 13.4554C97.2397 13.3684 97.3405 13.3294 97.4271 13.3681L98.0546 13.6454C98.1415 13.6834 98.181 13.785 98.1426 13.8716C98.1142 13.9362 98.0517 13.9742 97.9853 13.9742ZM95.7906 12.9949C95.7668 12.9949 95.743 12.9899 95.7203 12.9796L95.0943 12.6966C95.0076 12.6576 94.9696 12.5557 95.0087 12.4694C95.0478 12.3831 95.1511 12.3455 95.2356 12.3838L95.8609 12.6668C95.9475 12.7059 95.9859 12.8074 95.9472 12.8937C95.9184 12.9573 95.8559 12.9949 95.7906 12.9949ZM30.5698 12.9708C30.524 12.9708 30.4782 12.9526 30.4441 12.9161C30.3795 12.8468 30.3834 12.7382 30.4526 12.6736C30.6206 12.517 30.7896 12.3614 30.9597 12.2073C31.03 12.1441 31.1386 12.1491 31.2022 12.2194C31.2657 12.2897 31.2604 12.3984 31.1905 12.4619C31.0215 12.615 30.8539 12.7691 30.687 12.925C30.6539 12.9555 30.6121 12.9708 30.5698 12.9708ZM93.6026 12.0003C93.5784 12.0003 93.5543 11.9954 93.5312 11.9847L92.9063 11.6985C92.82 11.6591 92.7827 11.5572 92.8221 11.4709C92.8619 11.3846 92.9635 11.3473 93.0497 11.3864L93.674 11.6722C93.7602 11.7116 93.7979 11.8136 93.7588 11.8998C93.7297 11.963 93.6676 12.0003 93.6026 12.0003ZM32.3665 11.3761C32.3178 11.3761 32.2692 11.3555 32.2355 11.3154C32.1744 11.2429 32.1833 11.1346 32.2557 11.0736C32.4311 10.9255 32.6076 10.7785 32.7851 10.6329C32.8583 10.5726 32.9666 10.5836 33.0266 10.6571C33.0866 10.7302 33.0759 10.8385 33.0028 10.8985C32.8267 11.043 32.6513 11.189 32.4773 11.3356C32.445 11.3626 32.4059 11.3761 32.3665 11.3761ZM91.4178 10.9987C91.3936 10.9987 91.3695 10.9937 91.3464 10.983L90.7218 10.6968C90.6356 10.6571 90.5983 10.5552 90.6377 10.4692C90.6771 10.3826 90.7787 10.3457 90.8653 10.3847L91.4892 10.6709C91.5754 10.7103 91.6131 10.8122 91.5737 10.8985C91.5446 10.9614 91.4828 10.9987 91.4178 10.9987ZM89.2323 9.99875C89.2085 9.99875 89.1843 9.99378 89.1613 9.98348L88.5363 9.69942C88.45 9.66036 88.4121 9.55845 88.4511 9.47217C88.4902 9.38553 88.5921 9.34789 88.6784 9.38695L89.3033 9.67101C89.3899 9.71043 89.4276 9.81234 89.3885 9.89862C89.3594 9.96147 89.2973 9.99875 89.2323 9.99875ZM34.2406 9.87305C34.1888 9.87305 34.1376 9.84962 34.1039 9.80523C34.0464 9.72996 34.0613 9.62201 34.1366 9.56449C34.3194 9.4253 34.503 9.28753 34.6873 9.15153C34.7633 9.09543 34.8712 9.11141 34.9273 9.18775C34.9838 9.26409 34.9674 9.37168 34.8911 9.42778C34.7079 9.56307 34.5257 9.69977 34.3443 9.8379C34.3134 9.86169 34.2768 9.87305 34.2406 9.87305ZM87.0418 9.00915C87.0184 9.00915 86.9946 9.00418 86.9719 8.99423L86.3448 8.71479C86.2581 8.67609 86.2191 8.57489 86.2574 8.48825C86.2961 8.40125 86.3977 8.36255 86.484 8.4009L87.1118 8.6807C87.1984 8.71976 87.2371 8.82096 87.1984 8.9076C87.1696 8.97116 87.1071 9.00915 87.0418 9.00915ZM36.1886 8.46836C36.1339 8.46836 36.0799 8.44209 36.0465 8.39344C35.9929 8.31532 36.0131 8.20845 36.0913 8.15483C36.2812 8.02523 36.4716 7.8974 36.6633 7.77099C36.7425 7.71915 36.849 7.74045 36.9012 7.81963C36.9534 7.89882 36.9314 8.00534 36.8526 8.05754C36.6626 8.18288 36.4733 8.31 36.2855 8.43854C36.2553 8.45878 36.2219 8.46836 36.1886 8.46836ZM84.8425 8.03943C84.8197 8.03943 84.7967 8.03481 84.7743 8.02523L84.1447 7.7543C84.0577 7.71702 84.0169 7.61582 84.0542 7.52883C84.0915 7.44183 84.193 7.401 84.2797 7.43828L84.9106 7.70992C84.998 7.74755 85.0377 7.84875 85.0001 7.93575C84.9717 8.00073 84.9089 8.03943 84.8425 8.03943ZM38.2072 7.16842C38.1493 7.16842 38.0925 7.13895 38.0602 7.08569C38.0108 7.00473 38.0367 6.89927 38.1177 6.84992C38.3137 6.73061 38.5111 6.61308 38.7089 6.49732C38.7906 6.44939 38.8957 6.47673 38.944 6.55875C38.9919 6.64042 38.9646 6.74588 38.8825 6.79381C38.6862 6.90886 38.4905 7.02532 38.2956 7.14357C38.2682 7.16025 38.2377 7.16842 38.2072 7.16842ZM82.6303 7.10096C82.6083 7.10096 82.5859 7.0967 82.5646 7.08782C82.3537 7.00047 82.1424 6.91312 81.9305 6.82684C81.8428 6.79097 81.8005 6.69084 81.8364 6.60314C81.8722 6.51508 81.9731 6.47318 82.0601 6.50904C82.2728 6.59568 82.4844 6.68303 82.696 6.77073C82.7833 6.80695 82.8249 6.90744 82.789 6.99514C82.7617 7.06154 82.6978 7.10096 82.6303 7.10096ZM80.4022 6.20119C80.3812 6.20119 80.3599 6.19728 80.3397 6.18911C80.127 6.10567 79.9143 6.02294 79.7009 5.94056C79.6125 5.90647 79.5685 5.80705 79.6022 5.71864C79.6363 5.63022 79.7364 5.58619 79.8241 5.61993C80.0379 5.7023 80.2516 5.78575 80.4647 5.86955C80.5527 5.90434 80.5964 6.00377 80.562 6.09183C80.5353 6.16 80.4707 6.20119 80.4022 6.20119ZM40.2943 5.97962C40.2329 5.97962 40.1736 5.9466 40.1427 5.88908C40.098 5.80528 40.1296 5.70159 40.213 5.65685C40.4154 5.54855 40.6192 5.44203 40.8234 5.33764C40.9072 5.29361 41.0112 5.32734 41.0546 5.4122C41.0979 5.49636 41.0645 5.60004 40.98 5.64336C40.7776 5.7474 40.5759 5.85286 40.3749 5.96009C40.349 5.97287 40.3217 5.97962 40.2943 5.97962ZM78.1549 5.34865C78.1354 5.34865 78.1155 5.34509 78.096 5.33835C77.8811 5.25952 77.6663 5.18176 77.4511 5.10471C77.362 5.07275 77.3155 4.97475 77.3475 4.88527C77.3794 4.79614 77.4774 4.74963 77.5669 4.78158C77.7828 4.85899 77.9987 4.93711 78.2139 5.01594C78.303 5.0486 78.3488 5.14732 78.3161 5.23608C78.2905 5.30533 78.2249 5.34865 78.1549 5.34865ZM42.444 4.90977C42.379 4.90977 42.3172 4.87284 42.2881 4.80999C42.2483 4.72406 42.2856 4.6218 42.3719 4.58203C42.5803 4.48545 42.7898 4.391 42.9997 4.29797C43.0863 4.25926 43.1879 4.29868 43.2262 4.38532C43.2646 4.47231 43.2255 4.57351 43.1389 4.61186C42.9308 4.70418 42.7231 4.79792 42.5161 4.89344C42.4926 4.9048 42.4681 4.90977 42.444 4.90977ZM75.887 4.55114C75.8689 4.55114 75.8504 4.5483 75.8323 4.54226C75.6157 4.46947 75.3988 4.39739 75.1818 4.32602C75.0916 4.29655 75.0426 4.19961 75.0721 4.10942C75.1016 4.01923 75.1982 3.96952 75.2887 3.9997C75.5064 4.07107 75.7244 4.14351 75.9421 4.21665C76.0319 4.24684 76.0802 4.34413 76.05 4.43396C76.0259 4.50605 75.9588 4.55114 75.887 4.55114ZM44.6526 3.96633C44.584 3.96633 44.5194 3.92514 44.4928 3.85732C44.458 3.7689 44.5016 3.66948 44.5897 3.63504C44.8035 3.55088 45.0183 3.46886 45.2338 3.38861C45.3226 3.35595 45.4213 3.40104 45.4547 3.48981C45.4877 3.57858 45.4422 3.67729 45.3535 3.71067C45.1401 3.79021 44.927 3.87152 44.7151 3.95461C44.6948 3.96242 44.6735 3.96633 44.6526 3.96633ZM73.5978 3.81826C73.5815 3.81826 73.5645 3.81577 73.5481 3.8108C73.3294 3.7444 73.1103 3.67907 72.8912 3.61515C72.8003 3.58852 72.7481 3.493 72.7748 3.4021C72.8017 3.3112 72.8969 3.25936 72.9878 3.28564C73.208 3.35027 73.4281 3.4156 73.6479 3.48235C73.7388 3.5097 73.7899 3.60592 73.7622 3.69647C73.7395 3.77032 73.6717 3.81826 73.5978 3.81826ZM71.2859 3.15888C71.2714 3.15888 71.2564 3.1571 71.2415 3.1532C71.0207 3.09425 70.7998 3.03673 70.5782 2.98027C70.4863 2.95684 70.4309 2.86345 70.4543 2.77149C70.4778 2.67952 70.5701 2.62342 70.6631 2.64756C70.8857 2.70438 71.108 2.76226 71.3299 2.82155C71.4216 2.8457 71.4759 2.93979 71.4514 3.03176C71.4311 3.10846 71.3619 3.15888 71.2859 3.15888ZM46.9144 3.1571C46.842 3.1571 46.7745 3.11094 46.7511 3.03815C46.722 2.94796 46.7713 2.85138 46.8615 2.82191C47.0802 2.75125 47.2997 2.68236 47.5195 2.61525C47.6111 2.58756 47.7059 2.63904 47.7336 2.72959C47.7609 2.82013 47.7101 2.916 47.6192 2.9437C47.4012 3.0101 47.1836 3.07827 46.967 3.14823C46.9496 3.15426 46.9318 3.1571 46.9144 3.1571ZM68.9516 2.58472C68.9392 2.58472 68.9264 2.5833 68.9136 2.58046C68.6906 2.53003 68.4677 2.48103 68.2443 2.43381C68.1516 2.41392 68.0923 2.32267 68.1122 2.22999C68.1321 2.13732 68.223 2.07766 68.316 2.09755C68.5405 2.14548 68.7649 2.19448 68.9893 2.24526C69.0819 2.26621 69.1398 2.35817 69.1189 2.45049C69.1011 2.53039 69.0301 2.58472 68.9516 2.58472ZM49.2224 2.4892C49.1457 2.4892 49.0761 2.43771 49.0562 2.35995C49.0328 2.26799 49.0882 2.1746 49.1802 2.15117C49.4032 2.09435 49.6265 2.03967 49.8506 1.98641C49.9418 1.96475 50.0352 2.02192 50.0572 2.11424C50.0789 2.20656 50.0217 2.29888 49.9294 2.32089C49.7075 2.37309 49.4859 2.42777 49.265 2.48387C49.2508 2.48742 49.2366 2.4892 49.2224 2.4892ZM66.596 2.10571C66.5861 2.10571 66.5758 2.105 66.5655 2.10287C66.3407 2.06204 66.1156 2.02298 65.8909 1.98534C65.7975 1.96972 65.7343 1.88095 65.7499 1.78756C65.7655 1.69382 65.8532 1.63097 65.9477 1.6466C66.1742 1.68459 66.4007 1.724 66.6269 1.76484C66.7203 1.78188 66.7821 1.87101 66.7654 1.96439C66.7498 2.04748 66.6777 2.10571 66.596 2.10571ZM51.5695 1.97007C51.4885 1.97007 51.4164 1.91255 51.4012 1.83017C51.3834 1.73714 51.4449 1.64731 51.5382 1.62991C51.7644 1.5873 51.9913 1.54718 52.2186 1.50883C52.3134 1.49391 52.4007 1.55641 52.4163 1.64979C52.432 1.74318 52.3691 1.83195 52.2754 1.84757C52.0503 1.88557 51.8259 1.92533 51.6014 1.96723C51.5908 1.96901 51.5801 1.97007 51.5695 1.97007ZM64.2216 1.73324C64.2142 1.73324 64.2064 1.73288 64.1989 1.73182C63.9727 1.70199 63.7462 1.67358 63.5196 1.64695C63.4255 1.63594 63.3581 1.55073 63.3691 1.45628C63.3801 1.36218 63.4646 1.29543 63.5598 1.30572C63.7881 1.33271 64.016 1.36112 64.2436 1.3913C64.3377 1.40373 64.4038 1.49001 64.3914 1.58375C64.38 1.67039 64.3061 1.73324 64.2216 1.73324ZM53.9471 1.60541C53.8615 1.60541 53.7873 1.54149 53.7766 1.45414C53.7653 1.36005 53.8324 1.27448 53.9268 1.26311C54.1555 1.23577 54.3845 1.21056 54.6143 1.18748C54.7109 1.17931 54.7929 1.24713 54.8021 1.34123C54.8113 1.43568 54.7425 1.51983 54.6484 1.52907C54.4211 1.55179 54.1942 1.57665 53.9677 1.60399C53.9606 1.60505 53.9535 1.60541 53.9471 1.60541ZM61.832 1.479C61.8273 1.479 61.8227 1.479 61.8181 1.47865C61.5909 1.46054 61.3633 1.4442 61.136 1.42929C61.0415 1.4229 60.9698 1.34159 60.9759 1.24678C60.9819 1.15197 61.065 1.08344 61.1584 1.08664C61.3874 1.10155 61.6168 1.11789 61.8458 1.13635C61.9403 1.14381 62.0109 1.22689 62.0031 1.32135C61.9956 1.41083 61.9207 1.479 61.832 1.479ZM56.3432 1.39875C56.2526 1.39875 56.177 1.32774 56.172 1.23648C56.1667 1.14203 56.2395 1.06107 56.3343 1.05575C56.564 1.04332 56.7938 1.03302 57.0231 1.02486C57.1218 1.01704 57.1975 1.09552 57.201 1.18997C57.2046 1.28477 57.1304 1.36431 57.0356 1.36786C56.808 1.37603 56.5803 1.38633 56.3527 1.3984C56.3495 1.39875 56.3464 1.39875 56.3432 1.39875ZM59.4323 1.35401C59.4309 1.35401 59.4295 1.35401 59.4284 1.35401C59.2005 1.34869 58.9729 1.34514 58.7449 1.34336C58.6501 1.34265 58.5738 1.26524 58.5745 1.17044C58.5752 1.07599 58.6519 1 58.746 1C58.746 1 58.7467 1 58.7474 1C58.9771 1.00178 59.2072 1.00533 59.4366 1.01065C59.5314 1.01314 59.6063 1.09161 59.6042 1.18642C59.6017 1.27945 59.5254 1.35401 59.4323 1.35401Z" fill="#0088FF"/>
<path opacity="0.6" d="M12.7289 58.7155C12.7278 58.7155 12.7268 58.7155 12.7257 58.7155C12.6309 58.7137 12.5556 58.6356 12.557 58.5404C12.5613 58.3114 12.5659 58.082 12.5719 57.8527C12.5744 57.7582 12.6454 57.6858 12.7481 57.6854C12.8429 57.6879 12.9178 57.7667 12.9153 57.8612C12.9096 58.0895 12.9046 58.3182 12.9004 58.5468C12.899 58.6406 12.8223 58.7155 12.7289 58.7155ZM12.8027 56.313C12.8003 56.313 12.7974 56.313 12.7949 56.3127C12.7001 56.3084 12.627 56.2282 12.6309 56.1337C12.6408 55.9047 12.6518 55.6757 12.6635 55.4466C12.6685 55.3522 12.7505 55.279 12.8439 55.284C12.9384 55.289 13.0115 55.3696 13.0066 55.4644C12.9948 55.6924 12.9842 55.9207 12.9739 56.149C12.97 56.2413 12.894 56.313 12.8027 56.313ZM12.9391 53.9138C12.9352 53.9138 12.9309 53.9134 12.927 53.9134C12.8326 53.907 12.7612 53.825 12.7676 53.7302C12.7836 53.5015 12.8006 53.2729 12.8184 53.0442C12.8258 52.9494 12.9043 52.8777 13.003 52.8862C13.0975 52.8936 13.1681 52.9764 13.1607 53.0708C13.1429 53.2984 13.1259 53.526 13.1102 53.754C13.1038 53.8445 13.0282 53.9138 12.9391 53.9138ZM13.1401 51.5191C13.1344 51.5191 13.1287 51.5188 13.123 51.5184C13.0286 51.5092 12.9597 51.4254 12.9689 51.3309C12.9913 51.1026 13.0144 50.8747 13.0389 50.6467C13.0485 50.5522 13.1315 50.4837 13.2278 50.494C13.3219 50.504 13.3904 50.5885 13.3805 50.6829C13.3567 50.9098 13.3332 51.1374 13.3109 51.3643C13.302 51.4527 13.2274 51.5191 13.1401 51.5191ZM13.4089 49.1312C13.4018 49.1312 13.3943 49.1309 13.3872 49.1298C13.2931 49.1181 13.2267 49.0318 13.2384 48.9377C13.2675 48.7101 13.2974 48.4829 13.3283 48.2556C13.341 48.1615 13.4266 48.0965 13.5214 48.1086C13.6152 48.1214 13.6812 48.208 13.6684 48.3018C13.6375 48.5279 13.6077 48.7541 13.5789 48.9807C13.5683 49.0677 13.4941 49.1312 13.4089 49.1312ZM13.7476 46.7526C13.7387 46.7526 13.7299 46.7518 13.7206 46.7504C13.6269 46.7359 13.563 46.6478 13.5779 46.5541C13.6134 46.3275 13.6503 46.1013 13.6883 45.8752C13.7039 45.7818 13.7916 45.7179 13.8861 45.7342C13.9798 45.7498 14.0427 45.8382 14.0271 45.932C13.9894 46.1571 13.9528 46.3826 13.917 46.608C13.9038 46.6922 13.8307 46.7526 13.7476 46.7526ZM14.1595 44.3852C14.1488 44.3852 14.1382 44.3842 14.1272 44.3824C14.0342 44.3647 13.9731 44.2748 13.9908 44.1814C14.0338 43.956 14.0778 43.7308 14.1229 43.5061C14.1414 43.413 14.2326 43.3516 14.325 43.3715C14.418 43.39 14.4784 43.4805 14.4595 43.5735C14.4148 43.7972 14.3711 44.0213 14.3282 44.2457C14.3122 44.3284 14.2405 44.3852 14.1595 44.3852ZM14.6477 42.0325C14.6353 42.0325 14.6225 42.0311 14.6101 42.0282C14.5174 42.0073 14.4595 41.9157 14.4801 41.8234C14.5306 41.5993 14.5817 41.376 14.6342 41.1526C14.6559 41.0599 14.7479 41.0038 14.8405 41.0248C14.9329 41.0464 14.99 41.1391 14.9684 41.2311C14.9162 41.4534 14.865 41.6756 14.815 41.8983C14.7969 41.9782 14.7262 42.0325 14.6477 42.0325ZM15.2137 39.6975C15.1992 39.6975 15.1846 39.6957 15.1704 39.6918C15.0788 39.668 15.0238 39.5743 15.0475 39.4823C15.1054 39.2604 15.1644 39.0385 15.2244 38.8173C15.2489 38.7257 15.3433 38.6706 15.4349 38.6965C15.5265 38.7214 15.5805 38.8155 15.5557 38.9071C15.496 39.1272 15.4374 39.3478 15.3799 39.569C15.3597 39.6464 15.2901 39.6975 15.2137 39.6975ZM15.8607 37.3835C15.8443 37.3835 15.828 37.381 15.8117 37.3764C15.7208 37.349 15.6693 37.2535 15.6963 37.1626C15.762 36.9424 15.8291 36.723 15.8969 36.5039C15.9253 36.4134 16.0208 36.3633 16.1117 36.391C16.2023 36.4191 16.253 36.5153 16.2246 36.6058C16.1568 36.8235 16.0904 37.0422 16.0251 37.2606C16.0027 37.3355 15.9345 37.3835 15.8607 37.3835ZM16.5914 35.0943C16.5733 35.0943 16.5545 35.0914 16.5364 35.0854C16.4466 35.0549 16.3986 34.9572 16.4288 34.8677C16.5027 34.6504 16.5776 34.4335 16.6539 34.2169C16.6852 34.1274 16.7835 34.0802 16.873 34.1118C16.9625 34.1434 17.0094 34.2414 16.9781 34.3308C16.9025 34.546 16.8276 34.7619 16.7544 34.9778C16.7296 35.0495 16.6628 35.0943 16.5914 35.0943ZM17.4081 32.8342C17.3875 32.8342 17.3669 32.8306 17.347 32.8228C17.2583 32.7891 17.2142 32.6897 17.2476 32.6013C17.3296 32.3868 17.4127 32.173 17.4976 31.9596C17.5327 31.8716 17.6329 31.8283 17.7206 31.8634C17.8086 31.8982 17.852 31.9983 17.8168 32.0864C17.7326 32.2984 17.6499 32.5111 17.5686 32.7241C17.5423 32.7923 17.477 32.8342 17.4081 32.8342ZM18.3118 30.6075C18.2891 30.6075 18.266 30.6029 18.244 30.5936C18.157 30.556 18.1165 30.4552 18.1538 30.3682C18.2443 30.1573 18.3363 29.9471 18.4293 29.7368C18.4677 29.6506 18.5692 29.6111 18.6559 29.6495C18.7425 29.6878 18.7815 29.789 18.7432 29.876C18.6509 30.0848 18.5593 30.2943 18.4694 30.5038C18.4414 30.5684 18.3782 30.6075 18.3118 30.6075ZM19.3046 28.4188C19.2797 28.4188 19.2545 28.4135 19.2307 28.4021C19.1452 28.3613 19.1089 28.2587 19.1498 28.1731C19.2488 27.9657 19.3493 27.7591 19.4509 27.5535C19.4928 27.4686 19.5965 27.4335 19.6806 27.4753C19.7658 27.5173 19.8006 27.6202 19.7584 27.7051C19.6572 27.91 19.5574 28.1152 19.459 28.3211C19.4303 28.3829 19.3685 28.4188 19.3046 28.4188ZM20.3883 26.2727C20.3613 26.2727 20.3336 26.2663 20.3077 26.2525C20.2239 26.2077 20.1923 26.104 20.2367 26.0202C20.3446 25.8175 20.4536 25.6154 20.564 25.4138C20.6095 25.3307 20.7139 25.2998 20.797 25.3456C20.8801 25.391 20.9106 25.4954 20.8651 25.5785C20.7554 25.7788 20.6468 25.9801 20.5399 26.1814C20.509 26.2397 20.4497 26.2727 20.3883 26.2727ZM21.5643 24.1763C21.5345 24.1763 21.5043 24.1685 21.4769 24.1525C21.3956 24.1042 21.3687 23.9988 21.4169 23.9171C21.5341 23.7193 21.6527 23.5226 21.7724 23.3263C21.8217 23.2453 21.9272 23.2197 22.0085 23.2694C22.0895 23.3188 22.115 23.4246 22.0657 23.5056C21.9464 23.7005 21.8288 23.8962 21.7124 24.0925C21.6801 24.1461 21.6229 24.1763 21.5643 24.1763ZM22.839 22.1371C22.8067 22.1371 22.7737 22.1279 22.7446 22.1087C22.6654 22.0565 22.6437 21.95 22.6959 21.8708C22.8227 21.6787 22.9502 21.4877 23.0791 21.2973C23.1327 21.2192 23.2396 21.199 23.3177 21.2515C23.3961 21.3048 23.4167 21.4117 23.3635 21.4902C23.2353 21.6791 23.1085 21.869 22.9828 22.0597C22.9495 22.1101 22.8948 22.1371 22.839 22.1371ZM24.2089 20.1607C24.1738 20.1607 24.1386 20.1501 24.1081 20.1277C24.0314 20.072 24.0147 19.9647 24.0704 19.888C24.2057 19.7023 24.3424 19.5177 24.4798 19.3334C24.5367 19.2578 24.6442 19.2418 24.7202 19.299C24.7959 19.3558 24.8115 19.4634 24.7547 19.5393C24.6176 19.7222 24.482 19.9058 24.3474 20.0901C24.314 20.1362 24.2618 20.1607 24.2089 20.1607ZM25.6697 18.2515C25.6321 18.2515 25.5941 18.2391 25.5625 18.2135C25.4886 18.1542 25.4766 18.0462 25.5362 17.972C25.6804 17.7927 25.8252 17.6145 25.9715 17.4373C26.0312 17.3641 26.1395 17.3535 26.213 17.4142C26.2861 17.4746 26.2964 17.5825 26.2361 17.6557C26.0908 17.8318 25.9467 18.0086 25.8036 18.1865C25.7698 18.2295 25.7201 18.2515 25.6697 18.2515ZM27.2189 16.4132C27.1784 16.4132 27.1376 16.399 27.1053 16.3703C27.0343 16.3074 27.0275 16.1988 27.0904 16.1281C27.2427 15.9559 27.3958 15.7848 27.5502 15.615C27.6141 15.5451 27.7231 15.5401 27.7927 15.6033C27.8627 15.6672 27.868 15.7755 27.8044 15.8458C27.6511 16.0145 27.4987 16.1846 27.3475 16.3554C27.3137 16.3937 27.2665 16.4132 27.2189 16.4132ZM102.41 15.8504C102.389 15.8504 102.367 15.8465 102.346 15.838C102.133 15.7521 101.921 15.6654 101.709 15.5785C101.622 15.5422 101.58 15.4421 101.616 15.3544C101.652 15.2667 101.753 15.2251 101.84 15.261C102.052 15.348 102.263 15.4343 102.475 15.5199C102.563 15.5554 102.606 15.6555 102.57 15.7432C102.542 15.81 102.478 15.8504 102.41 15.8504ZM100.191 14.929C100.169 14.929 100.146 14.9248 100.124 14.9152L99.4919 14.6453C99.4046 14.608 99.3644 14.5072 99.4017 14.4198C99.4397 14.3321 99.5402 14.2924 99.6272 14.3296L100.258 14.5991C100.345 14.6361 100.386 14.7369 100.349 14.8243C100.321 14.8896 100.258 14.929 100.191 14.929ZM28.8533 14.6517C28.81 14.6517 28.7671 14.6357 28.7337 14.6031C28.6655 14.5367 28.6641 14.4284 28.7305 14.3602C28.8906 14.1954 29.0522 14.0321 29.2145 13.8698C29.2816 13.8027 29.3902 13.8027 29.4573 13.8698C29.5244 13.9369 29.5244 14.0456 29.4573 14.1127C29.2961 14.2739 29.136 14.4365 28.9769 14.5999C28.9425 14.6343 28.8981 14.6517 28.8533 14.6517ZM97.9853 13.9742C97.9622 13.9742 97.9388 13.9696 97.9164 13.9597L97.2876 13.682C97.201 13.6433 97.1619 13.5421 97.2006 13.4554C97.2397 13.3684 97.3405 13.3294 97.4271 13.3681L98.0546 13.6454C98.1415 13.6834 98.181 13.785 98.1426 13.8716C98.1142 13.9362 98.0517 13.9742 97.9853 13.9742ZM95.7906 12.9949C95.7668 12.9949 95.743 12.9899 95.7203 12.9796L95.0943 12.6966C95.0076 12.6576 94.9696 12.5557 95.0087 12.4694C95.0478 12.3831 95.1511 12.3455 95.2356 12.3838L95.8609 12.6668C95.9475 12.7059 95.9859 12.8074 95.9472 12.8937C95.9184 12.9573 95.8559 12.9949 95.7906 12.9949ZM30.5698 12.9708C30.524 12.9708 30.4782 12.9526 30.4441 12.9161C30.3795 12.8468 30.3834 12.7382 30.4526 12.6736C30.6206 12.517 30.7896 12.3614 30.9597 12.2073C31.03 12.1441 31.1386 12.1491 31.2022 12.2194C31.2657 12.2897 31.2604 12.3984 31.1905 12.4619C31.0215 12.615 30.8539 12.7691 30.687 12.925C30.6539 12.9555 30.6121 12.9708 30.5698 12.9708ZM93.6026 12.0003C93.5784 12.0003 93.5543 11.9954 93.5312 11.9847L92.9063 11.6985C92.82 11.6591 92.7827 11.5572 92.8221 11.4709C92.8619 11.3846 92.9635 11.3473 93.0497 11.3864L93.674 11.6722C93.7602 11.7116 93.7979 11.8136 93.7588 11.8998C93.7297 11.963 93.6676 12.0003 93.6026 12.0003ZM32.3665 11.3761C32.3178 11.3761 32.2692 11.3555 32.2355 11.3154C32.1744 11.2429 32.1833 11.1346 32.2557 11.0736C32.4311 10.9255 32.6076 10.7785 32.7851 10.6329C32.8583 10.5726 32.9666 10.5836 33.0266 10.6571C33.0866 10.7302 33.0759 10.8385 33.0028 10.8985C32.8267 11.043 32.6513 11.189 32.4773 11.3356C32.445 11.3626 32.4059 11.3761 32.3665 11.3761ZM91.4178 10.9987C91.3936 10.9987 91.3695 10.9937 91.3464 10.983L90.7218 10.6968C90.6356 10.6571 90.5983 10.5552 90.6377 10.4692C90.6771 10.3826 90.7787 10.3457 90.8653 10.3847L91.4892 10.6709C91.5754 10.7103 91.6131 10.8122 91.5737 10.8985C91.5446 10.9614 91.4828 10.9987 91.4178 10.9987ZM89.2323 9.99875C89.2085 9.99875 89.1843 9.99378 89.1613 9.98348L88.5363 9.69942C88.45 9.66036 88.4121 9.55845 88.4511 9.47217C88.4902 9.38553 88.5921 9.34789 88.6784 9.38695L89.3033 9.67101C89.3899 9.71043 89.4276 9.81234 89.3885 9.89862C89.3594 9.96147 89.2973 9.99875 89.2323 9.99875ZM34.2406 9.87305C34.1888 9.87305 34.1376 9.84962 34.1039 9.80523C34.0464 9.72996 34.0613 9.62201 34.1366 9.56449C34.3194 9.4253 34.503 9.28753 34.6873 9.15153C34.7633 9.09543 34.8712 9.11141 34.9273 9.18775C34.9838 9.26409 34.9674 9.37168 34.8911 9.42778C34.7079 9.56307 34.5257 9.69977 34.3443 9.8379C34.3134 9.86169 34.2768 9.87305 34.2406 9.87305ZM87.0418 9.00915C87.0184 9.00915 86.9946 9.00418 86.9719 8.99423L86.3448 8.71479C86.2581 8.67609 86.2191 8.57489 86.2574 8.48825C86.2961 8.40125 86.3977 8.36255 86.484 8.4009L87.1118 8.6807C87.1984 8.71976 87.2371 8.82096 87.1984 8.9076C87.1696 8.97116 87.1071 9.00915 87.0418 9.00915ZM36.1886 8.46836C36.1339 8.46836 36.0799 8.44209 36.0465 8.39344C35.9929 8.31532 36.0131 8.20845 36.0913 8.15483C36.2812 8.02523 36.4716 7.8974 36.6633 7.77099C36.7425 7.71915 36.849 7.74045 36.9012 7.81963C36.9534 7.89882 36.9314 8.00534 36.8526 8.05754C36.6626 8.18288 36.4733 8.31 36.2855 8.43854C36.2553 8.45878 36.2219 8.46836 36.1886 8.46836ZM84.8425 8.03943C84.8197 8.03943 84.7967 8.03481 84.7743 8.02523L84.1447 7.7543C84.0577 7.71702 84.0169 7.61582 84.0542 7.52883C84.0915 7.44183 84.193 7.401 84.2797 7.43828L84.9106 7.70992C84.998 7.74755 85.0377 7.84875 85.0001 7.93575C84.9717 8.00073 84.9089 8.03943 84.8425 8.03943ZM38.2072 7.16842C38.1493 7.16842 38.0925 7.13895 38.0602 7.08569C38.0108 7.00473 38.0367 6.89927 38.1177 6.84992C38.3137 6.73061 38.5111 6.61308 38.7089 6.49732C38.7906 6.44939 38.8957 6.47673 38.944 6.55875C38.9919 6.64042 38.9646 6.74588 38.8825 6.79381C38.6862 6.90886 38.4905 7.02532 38.2956 7.14357C38.2682 7.16025 38.2377 7.16842 38.2072 7.16842ZM82.6303 7.10096C82.6083 7.10096 82.5859 7.0967 82.5646 7.08782C82.3537 7.00047 82.1424 6.91312 81.9305 6.82684C81.8428 6.79097 81.8005 6.69084 81.8364 6.60314C81.8722 6.51508 81.9731 6.47318 82.0601 6.50904C82.2728 6.59568 82.4844 6.68303 82.696 6.77073C82.7833 6.80695 82.8249 6.90744 82.789 6.99514C82.7617 7.06154 82.6978 7.10096 82.6303 7.10096ZM80.4022 6.20119C80.3812 6.20119 80.3599 6.19728 80.3397 6.18911C80.127 6.10567 79.9143 6.02294 79.7009 5.94056C79.6125 5.90647 79.5685 5.80705 79.6022 5.71864C79.6363 5.63022 79.7364 5.58619 79.8241 5.61993C80.0379 5.7023 80.2516 5.78575 80.4647 5.86955C80.5527 5.90434 80.5964 6.00377 80.562 6.09183C80.5353 6.16 80.4707 6.20119 80.4022 6.20119ZM40.2943 5.97962C40.2329 5.97962 40.1736 5.9466 40.1427 5.88908C40.098 5.80528 40.1296 5.70159 40.213 5.65685C40.4154 5.54855 40.6192 5.44203 40.8234 5.33764C40.9072 5.29361 41.0112 5.32734 41.0546 5.4122C41.0979 5.49636 41.0645 5.60004 40.98 5.64336C40.7776 5.7474 40.5759 5.85286 40.3749 5.96009C40.349 5.97287 40.3217 5.97962 40.2943 5.97962ZM78.1549 5.34865C78.1354 5.34865 78.1155 5.34509 78.096 5.33835C77.8811 5.25952 77.6663 5.18176 77.4511 5.10471C77.362 5.07275 77.3155 4.97475 77.3475 4.88527C77.3794 4.79614 77.4774 4.74963 77.5669 4.78158C77.7828 4.85899 77.9987 4.93711 78.2139 5.01594C78.303 5.0486 78.3488 5.14732 78.3161 5.23608C78.2905 5.30533 78.2249 5.34865 78.1549 5.34865ZM42.444 4.90977C42.379 4.90977 42.3172 4.87284 42.2881 4.80999C42.2483 4.72406 42.2856 4.6218 42.3719 4.58203C42.5803 4.48545 42.7898 4.391 42.9997 4.29797C43.0863 4.25926 43.1879 4.29868 43.2262 4.38532C43.2646 4.47231 43.2255 4.57351 43.1389 4.61186C42.9308 4.70418 42.7231 4.79792 42.5161 4.89344C42.4926 4.9048 42.4681 4.90977 42.444 4.90977ZM75.887 4.55114C75.8689 4.55114 75.8504 4.5483 75.8323 4.54226C75.6157 4.46947 75.3988 4.39739 75.1818 4.32602C75.0916 4.29655 75.0426 4.19961 75.0721 4.10942C75.1016 4.01923 75.1982 3.96952 75.2887 3.9997C75.5064 4.07107 75.7244 4.14351 75.9421 4.21665C76.0319 4.24684 76.0802 4.34413 76.05 4.43396C76.0259 4.50605 75.9588 4.55114 75.887 4.55114ZM44.6526 3.96633C44.584 3.96633 44.5194 3.92514 44.4928 3.85732C44.458 3.7689 44.5016 3.66948 44.5897 3.63504C44.8035 3.55088 45.0183 3.46886 45.2338 3.38861C45.3226 3.35595 45.4213 3.40104 45.4547 3.48981C45.4877 3.57858 45.4422 3.67729 45.3535 3.71067C45.1401 3.79021 44.927 3.87152 44.7151 3.95461C44.6948 3.96242 44.6735 3.96633 44.6526 3.96633ZM73.5978 3.81826C73.5815 3.81826 73.5645 3.81577 73.5481 3.8108C73.3294 3.7444 73.1103 3.67907 72.8912 3.61515C72.8003 3.58852 72.7481 3.493 72.7748 3.4021C72.8017 3.3112 72.8969 3.25936 72.9878 3.28564C73.208 3.35027 73.4281 3.4156 73.6479 3.48235C73.7388 3.5097 73.7899 3.60592 73.7622 3.69647C73.7395 3.77032 73.6717 3.81826 73.5978 3.81826ZM71.2859 3.15888C71.2714 3.15888 71.2564 3.1571 71.2415 3.1532C71.0207 3.09425 70.7998 3.03673 70.5782 2.98027C70.4863 2.95684 70.4309 2.86345 70.4543 2.77149C70.4778 2.67952 70.5701 2.62342 70.6631 2.64756C70.8857 2.70438 71.108 2.76226 71.3299 2.82155C71.4216 2.8457 71.4759 2.93979 71.4514 3.03176C71.4311 3.10846 71.3619 3.15888 71.2859 3.15888ZM46.9144 3.1571C46.842 3.1571 46.7745 3.11094 46.7511 3.03815C46.722 2.94796 46.7713 2.85138 46.8615 2.82191C47.0802 2.75125 47.2997 2.68236 47.5195 2.61525C47.6111 2.58756 47.7059 2.63904 47.7336 2.72959C47.7609 2.82013 47.7101 2.916 47.6192 2.9437C47.4012 3.0101 47.1836 3.07827 46.967 3.14823C46.9496 3.15426 46.9318 3.1571 46.9144 3.1571ZM68.9516 2.58472C68.9392 2.58472 68.9264 2.5833 68.9136 2.58046C68.6906 2.53003 68.4677 2.48103 68.2443 2.43381C68.1516 2.41392 68.0923 2.32267 68.1122 2.22999C68.1321 2.13732 68.223 2.07766 68.316 2.09755C68.5405 2.14548 68.7649 2.19448 68.9893 2.24526C69.0819 2.26621 69.1398 2.35817 69.1189 2.45049C69.1011 2.53039 69.0301 2.58472 68.9516 2.58472ZM49.2224 2.4892C49.1457 2.4892 49.0761 2.43771 49.0562 2.35995C49.0328 2.26799 49.0882 2.1746 49.1802 2.15117C49.4032 2.09435 49.6265 2.03967 49.8506 1.98641C49.9418 1.96475 50.0352 2.02192 50.0572 2.11424C50.0789 2.20656 50.0217 2.29888 49.9294 2.32089C49.7075 2.37309 49.4859 2.42777 49.265 2.48387C49.2508 2.48742 49.2366 2.4892 49.2224 2.4892ZM66.596 2.10571C66.5861 2.10571 66.5758 2.105 66.5655 2.10287C66.3407 2.06204 66.1156 2.02298 65.8909 1.98534C65.7975 1.96972 65.7343 1.88095 65.7499 1.78756C65.7655 1.69382 65.8532 1.63097 65.9477 1.6466C66.1742 1.68459 66.4007 1.724 66.6269 1.76484C66.7203 1.78188 66.7821 1.87101 66.7654 1.96439C66.7498 2.04748 66.6777 2.10571 66.596 2.10571ZM51.5695 1.97007C51.4885 1.97007 51.4164 1.91255 51.4012 1.83017C51.3834 1.73714 51.4449 1.64731 51.5382 1.62991C51.7644 1.5873 51.9913 1.54718 52.2186 1.50883C52.3134 1.49391 52.4007 1.55641 52.4163 1.64979C52.432 1.74318 52.3691 1.83195 52.2754 1.84757C52.0503 1.88557 51.8259 1.92533 51.6014 1.96723C51.5908 1.96901 51.5801 1.97007 51.5695 1.97007ZM64.2216 1.73324C64.2142 1.73324 64.2064 1.73288 64.1989 1.73182C63.9727 1.70199 63.7462 1.67358 63.5196 1.64695C63.4255 1.63594 63.3581 1.55073 63.3691 1.45628C63.3801 1.36218 63.4646 1.29543 63.5598 1.30572C63.7881 1.33271 64.016 1.36112 64.2436 1.3913C64.3377 1.40373 64.4038 1.49001 64.3914 1.58375C64.38 1.67039 64.3061 1.73324 64.2216 1.73324ZM53.9471 1.60541C53.8615 1.60541 53.7873 1.54149 53.7766 1.45414C53.7653 1.36005 53.8324 1.27448 53.9268 1.26311C54.1555 1.23577 54.3845 1.21056 54.6143 1.18748C54.7109 1.17931 54.7929 1.24713 54.8021 1.34123C54.8113 1.43568 54.7425 1.51983 54.6484 1.52907C54.4211 1.55179 54.1942 1.57665 53.9677 1.60399C53.9606 1.60505 53.9535 1.60541 53.9471 1.60541ZM61.832 1.479C61.8273 1.479 61.8227 1.479 61.8181 1.47865C61.5909 1.46054 61.3633 1.4442 61.136 1.42929C61.0415 1.4229 60.9698 1.34159 60.9759 1.24678C60.9819 1.15197 61.065 1.08344 61.1584 1.08664C61.3874 1.10155 61.6168 1.11789 61.8458 1.13635C61.9403 1.14381 62.0109 1.22689 62.0031 1.32135C61.9956 1.41083 61.9207 1.479 61.832 1.479ZM56.3432 1.39875C56.2526 1.39875 56.177 1.32774 56.172 1.23648C56.1667 1.14203 56.2395 1.06107 56.3343 1.05575C56.564 1.04332 56.7938 1.03302 57.0231 1.02486C57.1218 1.01704 57.1975 1.09552 57.201 1.18997C57.2046 1.28477 57.1304 1.36431 57.0356 1.36786C56.808 1.37603 56.5803 1.38633 56.3527 1.3984C56.3495 1.39875 56.3464 1.39875 56.3432 1.39875ZM59.4323 1.35401C59.4309 1.35401 59.4295 1.35401 59.4284 1.35401C59.2005 1.34869 58.9729 1.34514 58.7449 1.34336C58.6501 1.34265 58.5738 1.26524 58.5745 1.17044C58.5752 1.07599 58.6519 1 58.746 1C58.746 1 58.7467 1 58.7474 1C58.9771 1.00178 59.2072 1.00533 59.4366 1.01065C59.5314 1.01314 59.6063 1.09161 59.6042 1.18642C59.6017 1.27945 59.5254 1.35401 59.4323 1.35401Z" fill="white"/>
<path d="M146.057 65.6772C146.031 65.6772 146.005 65.6715 145.981 65.6598C145.896 65.6179 145.861 65.5153 145.902 65.4301C146.003 65.2255 146.101 65.0199 146.198 64.8133C146.239 64.7274 146.341 64.6908 146.426 64.7309C146.512 64.771 146.549 64.8733 146.509 64.9592C146.411 65.1673 146.312 65.3747 146.211 65.581C146.181 65.642 146.12 65.6772 146.057 65.6772ZM147.053 63.4906C147.03 63.4906 147.007 63.4864 146.985 63.4771C146.898 63.4402 146.857 63.3394 146.894 63.252C146.983 63.0422 147.07 62.8316 147.156 62.62C147.191 62.5319 147.292 62.4897 147.379 62.5248C147.467 62.5603 147.51 62.6604 147.474 62.7481C147.388 62.9615 147.3 63.1742 147.211 63.3859C147.183 63.4512 147.119 63.4906 147.053 63.4906ZM147.926 61.2519C147.907 61.2519 147.887 61.2487 147.868 61.2419C147.779 61.2099 147.733 61.1119 147.764 61.0225C147.841 60.808 147.916 60.5928 147.989 60.3769C148.019 60.2871 148.116 60.2392 148.207 60.269C148.296 60.2992 148.345 60.3965 148.314 60.4863C148.241 60.704 148.165 60.9213 148.088 61.1379C148.062 61.2078 147.996 61.2519 147.926 61.2519ZM148.669 58.9662C148.653 58.9662 148.637 58.9641 148.621 58.9595C148.53 58.9328 148.477 58.8373 148.504 58.7464C148.568 58.5277 148.63 58.3083 148.691 58.0885C148.716 57.9972 148.809 57.9436 148.902 57.9684C148.993 57.9936 149.047 58.0881 149.022 58.1794C148.961 58.4009 148.898 58.6221 148.833 58.8426C148.812 58.9176 148.743 58.9662 148.669 58.9662ZM149.274 56.6408C149.262 56.6408 149.249 56.6394 149.236 56.6365C149.143 56.6156 149.086 56.5236 149.107 56.431C149.157 56.2087 149.206 55.986 149.253 55.763C149.273 55.67 149.364 55.6111 149.456 55.6302C149.549 55.6498 149.608 55.7407 149.589 55.8334C149.542 56.0585 149.493 56.2829 149.442 56.5073C149.423 56.5868 149.353 56.6408 149.274 56.6408ZM149.736 54.2817C149.726 54.2817 149.717 54.281 149.708 54.2795C149.614 54.2643 149.551 54.1762 149.566 54.0828C149.602 53.8577 149.637 53.6326 149.669 53.4067C149.683 53.3127 149.771 53.2477 149.864 53.2612C149.957 53.2747 150.023 53.3617 150.009 53.4554C149.976 53.683 149.942 53.9102 149.905 54.1375C149.891 54.2217 149.818 54.2817 149.736 54.2817ZM150.042 51.8984C150.037 51.8984 150.031 51.898 150.026 51.8977C149.931 51.8888 149.862 51.805 149.871 51.7105C149.892 51.4836 149.912 51.2564 149.928 51.0295C149.936 50.9347 150.018 50.8626 150.112 50.8711C150.207 50.8782 150.278 50.9606 150.271 51.0551C150.254 51.2844 150.234 51.5138 150.213 51.7429C150.205 51.8316 150.13 51.8984 150.042 51.8984ZM150.185 49.4995C150.183 49.4995 150.182 49.4995 150.181 49.4995C150.086 49.497 150.011 49.4185 150.013 49.3237C150.019 49.0957 150.022 48.8681 150.022 48.6402C150.023 48.5457 150.099 48.4694 150.194 48.4694H150.195C150.289 48.4697 150.366 48.5471 150.366 48.642C150.365 48.872 150.362 49.1018 150.356 49.3319C150.354 49.4253 150.277 49.4995 150.185 49.4995ZM150.155 47.097C150.064 47.097 149.988 47.0256 149.984 46.934C149.972 46.7064 149.959 46.4792 149.943 46.2519C149.936 46.1575 150.007 46.0751 150.102 46.0687C150.189 46.0595 150.279 46.1326 150.286 46.2278C150.302 46.4572 150.315 46.6869 150.327 46.9166C150.331 47.0114 150.259 47.092 150.164 47.0967C150.161 47.097 150.157 47.097 150.155 47.097ZM149.944 44.7031C149.858 44.7031 149.785 44.6399 149.774 44.5529C149.745 44.327 149.714 44.1019 149.68 43.8768C149.666 43.7831 149.73 43.6957 149.824 43.6812C149.914 43.6691 150.005 43.7316 150.019 43.8253C150.054 44.0533 150.085 44.2812 150.114 44.5096C150.126 44.6036 150.06 44.6896 149.966 44.7017C149.958 44.7027 149.951 44.7031 149.944 44.7031ZM149.544 42.334C149.465 42.334 149.394 42.2786 149.377 42.198C149.33 41.9757 149.28 41.7534 149.227 41.5322C149.206 41.4399 149.263 41.3476 149.355 41.3256C149.448 41.3046 149.54 41.3607 149.562 41.453C149.614 41.6771 149.665 41.9015 149.713 42.127C149.732 42.22 149.673 42.3109 149.58 42.3304C149.568 42.3329 149.556 42.334 149.544 42.334ZM148.945 40.0075C148.872 40.0075 148.804 39.9599 148.781 39.8857C148.715 39.6681 148.646 39.4515 148.574 39.2352C148.545 39.145 148.594 39.0481 148.683 39.0186C148.774 38.9881 148.871 39.0374 148.9 39.1276C148.972 39.346 149.042 39.5654 149.11 39.7856C149.137 39.8765 149.086 39.9724 148.995 40.0001C148.979 40.0054 148.962 40.0075 148.945 40.0075ZM148.148 37.7414C148.079 37.7414 148.015 37.7006 147.989 37.6335C147.904 37.4225 147.817 37.2123 147.727 37.0028C147.689 36.9158 147.73 36.815 147.817 36.7777C147.903 36.7404 148.005 36.7802 148.042 36.8679C148.133 37.0795 148.221 37.2922 148.307 37.5056C148.342 37.5937 148.299 37.6935 148.212 37.7286C148.191 37.7375 148.169 37.7414 148.148 37.7414ZM147.158 35.5516C147.096 35.5516 147.036 35.5172 147.005 35.4575C146.902 35.2544 146.797 35.0528 146.689 34.8521C146.645 34.7687 146.675 34.6647 146.759 34.6196C146.843 34.5748 146.946 34.6057 146.991 34.6895C147.101 34.8926 147.207 35.0968 147.311 35.3027C147.354 35.3872 147.32 35.4906 147.235 35.5335C147.211 35.5456 147.184 35.5516 147.158 35.5516ZM145.982 33.456C145.924 33.456 145.869 33.4272 145.836 33.3746C145.716 33.1811 145.594 32.9894 145.469 32.7994C145.417 32.7202 145.439 32.6137 145.518 32.5619C145.597 32.51 145.704 32.5317 145.755 32.6112C145.882 32.804 146.006 32.9983 146.128 33.1939C146.178 33.2745 146.153 33.3803 146.072 33.4304C146.044 33.4478 146.013 33.456 145.982 33.456ZM144.624 31.4732C144.572 31.4732 144.521 31.4494 144.487 31.4047C144.35 31.2232 144.211 31.0432 144.069 30.8653C144.01 30.7911 144.022 30.6832 144.096 30.6239C144.17 30.5653 144.278 30.577 144.337 30.6512C144.481 30.8316 144.622 31.0137 144.761 31.198C144.818 31.2737 144.803 31.3816 144.728 31.4384C144.697 31.4618 144.66 31.4732 144.624 31.4732ZM143.09 29.624C143.043 29.624 142.997 29.6051 142.963 29.5682C142.809 29.4003 142.654 29.2341 142.496 29.0707C142.43 29.0026 142.432 28.8939 142.5 28.8279C142.569 28.7622 142.677 28.7643 142.743 28.8321C142.903 28.998 143.061 29.1663 143.216 29.3363C143.28 29.4063 143.275 29.515 143.205 29.5789C143.173 29.609 143.131 29.624 143.09 29.624ZM141.385 27.9309C141.344 27.9309 141.303 27.9164 141.27 27.8869C141.101 27.7349 140.93 27.5855 140.757 27.4385C140.684 27.377 140.675 27.2687 140.737 27.1963C140.798 27.1242 140.907 27.1157 140.979 27.1764C141.154 27.3255 141.328 27.4772 141.499 27.6313C141.57 27.6945 141.575 27.8031 141.512 27.8738C141.479 27.9114 141.432 27.9309 141.385 27.9309ZM139.519 26.4187C139.483 26.4187 139.448 26.408 139.418 26.3856C139.234 26.2521 139.048 26.1215 138.861 25.9933C138.783 25.9397 138.763 25.8331 138.816 25.7547C138.869 25.6762 138.976 25.657 139.054 25.7096C139.244 25.8395 139.433 25.9723 139.619 26.108C139.696 26.1637 139.713 26.271 139.657 26.3477C139.624 26.3942 139.571 26.4187 139.519 26.4187ZM137.504 25.1123C137.475 25.1123 137.446 25.1049 137.418 25.0896C137.222 24.9767 137.023 24.8673 136.823 24.7604C136.739 24.7157 136.707 24.6117 136.752 24.5282C136.797 24.4448 136.901 24.4139 136.984 24.4576C137.188 24.5659 137.389 24.6774 137.589 24.7921C137.671 24.8393 137.7 24.944 137.652 25.0264C137.621 25.0814 137.563 25.1123 137.504 25.1123ZM135.357 24.0354C135.334 24.0354 135.31 24.0308 135.288 24.0212C135.079 23.9303 134.869 23.8422 134.659 23.7574C134.571 23.7218 134.528 23.6221 134.563 23.534C134.599 23.4459 134.698 23.4037 134.787 23.4388C135.001 23.5248 135.213 23.6139 135.425 23.7062C135.512 23.7442 135.552 23.8454 135.514 23.9321C135.486 23.997 135.423 24.0354 135.357 24.0354ZM133.11 23.1825C133.093 23.1825 133.075 23.1796 133.057 23.174C132.841 23.1029 132.624 23.0348 132.406 22.9687C132.315 22.9414 132.264 22.8455 132.291 22.7546C132.319 22.6641 132.415 22.6133 132.505 22.6403C132.726 22.707 132.946 22.7763 133.164 22.848C133.254 22.8775 133.303 22.9748 133.273 23.0646C133.25 23.1367 133.182 23.1825 133.11 23.1825ZM130.801 22.5231C130.787 22.5231 130.774 22.5213 130.76 22.5181C130.539 22.4634 130.317 22.4109 130.095 22.3601C130.002 22.3392 129.945 22.2469 129.966 22.1545C129.987 22.0626 130.078 22.004 130.171 22.0256C130.396 22.0771 130.62 22.13 130.842 22.1851C130.934 22.2078 130.99 22.3008 130.968 22.3928C130.948 22.4706 130.878 22.5231 130.801 22.5231ZM128.453 22.015C128.443 22.015 128.432 22.0139 128.421 22.0121C128.197 21.9699 127.972 21.9291 127.748 21.8893C127.655 21.873 127.592 21.7838 127.609 21.6904C127.626 21.5971 127.717 21.5349 127.808 21.5513C128.034 21.591 128.259 21.6322 128.485 21.6748C128.578 21.6922 128.639 21.7821 128.622 21.8754C128.606 21.9575 128.534 22.015 128.453 22.015ZM126.084 21.6148C126.075 21.6148 126.067 21.6141 126.058 21.6127C125.832 21.5786 125.606 21.5449 125.38 21.5122C125.286 21.4987 125.221 21.4117 125.234 21.3176C125.248 21.2235 125.34 21.1575 125.429 21.1724C125.656 21.2054 125.883 21.2388 126.109 21.2732C126.203 21.2874 126.268 21.3751 126.253 21.4685C126.241 21.5541 126.167 21.6148 126.084 21.6148ZM123.705 21.2782C123.697 21.2782 123.689 21.2778 123.682 21.2768L123.001 21.1862C122.908 21.1738 122.841 21.0875 122.854 20.9938C122.866 20.8997 122.954 20.8326 123.046 20.8461L123.727 20.9366C123.821 20.949 123.888 21.0357 123.875 21.1298C123.863 21.2157 123.789 21.2782 123.705 21.2782ZM121.322 20.9622C121.314 20.9622 121.307 20.9618 121.299 20.9608L120.618 20.8684C120.524 20.8557 120.458 20.769 120.471 20.6749C120.484 20.5812 120.572 20.5166 120.664 20.5279L121.345 20.6202C121.438 20.6327 121.504 20.7193 121.492 20.8134C121.48 20.8997 121.407 20.9622 121.322 20.9622ZM118.942 20.6245C118.933 20.6245 118.924 20.6238 118.915 20.6224C118.688 20.5876 118.461 20.5521 118.235 20.5155C118.141 20.5002 118.078 20.4125 118.093 20.3188C118.108 20.2254 118.198 20.1608 118.289 20.1767C118.515 20.2133 118.741 20.2485 118.967 20.2833C119.061 20.2975 119.125 20.3852 119.111 20.4789C119.098 20.5634 119.025 20.6245 118.942 20.6245Z" fill="#0088FF"/>
<path opacity="0.6" d="M146.057 65.6772C146.031 65.6772 146.005 65.6715 145.981 65.6598C145.896 65.6179 145.861 65.5153 145.902 65.4301C146.003 65.2255 146.101 65.0199 146.198 64.8133C146.239 64.7274 146.341 64.6908 146.426 64.7309C146.512 64.771 146.549 64.8733 146.509 64.9592C146.411 65.1673 146.312 65.3747 146.211 65.581C146.181 65.642 146.12 65.6772 146.057 65.6772ZM147.053 63.4906C147.03 63.4906 147.007 63.4864 146.985 63.4771C146.898 63.4402 146.857 63.3394 146.894 63.252C146.983 63.0422 147.07 62.8316 147.156 62.62C147.191 62.5319 147.292 62.4897 147.379 62.5248C147.467 62.5603 147.51 62.6604 147.474 62.7481C147.388 62.9615 147.3 63.1742 147.211 63.3859C147.183 63.4512 147.119 63.4906 147.053 63.4906ZM147.926 61.2519C147.907 61.2519 147.887 61.2487 147.868 61.2419C147.779 61.2099 147.733 61.1119 147.764 61.0225C147.841 60.808 147.916 60.5928 147.989 60.3769C148.019 60.2871 148.116 60.2392 148.207 60.269C148.296 60.2992 148.345 60.3965 148.314 60.4863C148.241 60.704 148.165 60.9213 148.088 61.1379C148.062 61.2078 147.996 61.2519 147.926 61.2519ZM148.669 58.9662C148.653 58.9662 148.637 58.9641 148.621 58.9595C148.53 58.9328 148.477 58.8373 148.504 58.7464C148.568 58.5277 148.63 58.3083 148.691 58.0885C148.716 57.9972 148.809 57.9436 148.902 57.9684C148.993 57.9936 149.047 58.0881 149.022 58.1794C148.961 58.4009 148.898 58.6221 148.833 58.8426C148.812 58.9176 148.743 58.9662 148.669 58.9662ZM149.274 56.6408C149.262 56.6408 149.249 56.6394 149.236 56.6365C149.143 56.6156 149.086 56.5236 149.107 56.431C149.157 56.2087 149.206 55.986 149.253 55.763C149.273 55.67 149.364 55.6111 149.456 55.6302C149.549 55.6498 149.608 55.7407 149.589 55.8334C149.542 56.0585 149.493 56.2829 149.442 56.5073C149.423 56.5868 149.353 56.6408 149.274 56.6408ZM149.736 54.2817C149.726 54.2817 149.717 54.281 149.708 54.2795C149.614 54.2643 149.551 54.1762 149.566 54.0828C149.602 53.8577 149.637 53.6326 149.669 53.4067C149.683 53.3127 149.771 53.2477 149.864 53.2612C149.957 53.2747 150.023 53.3617 150.009 53.4554C149.976 53.683 149.942 53.9102 149.905 54.1375C149.891 54.2217 149.818 54.2817 149.736 54.2817ZM150.042 51.8984C150.037 51.8984 150.031 51.898 150.026 51.8977C149.931 51.8888 149.862 51.805 149.871 51.7105C149.892 51.4836 149.912 51.2564 149.928 51.0295C149.936 50.9347 150.018 50.8626 150.112 50.8711C150.207 50.8782 150.278 50.9606 150.271 51.0551C150.254 51.2844 150.234 51.5138 150.213 51.7429C150.205 51.8316 150.13 51.8984 150.042 51.8984ZM150.185 49.4995C150.183 49.4995 150.182 49.4995 150.181 49.4995C150.086 49.497 150.011 49.4185 150.013 49.3237C150.019 49.0957 150.022 48.8681 150.022 48.6402C150.023 48.5457 150.099 48.4694 150.194 48.4694H150.195C150.289 48.4697 150.366 48.5471 150.366 48.642C150.365 48.872 150.362 49.1018 150.356 49.3319C150.354 49.4253 150.277 49.4995 150.185 49.4995ZM150.155 47.097C150.064 47.097 149.988 47.0256 149.984 46.934C149.972 46.7064 149.959 46.4792 149.943 46.2519C149.936 46.1575 150.007 46.0751 150.102 46.0687C150.189 46.0595 150.279 46.1326 150.286 46.2278C150.302 46.4572 150.315 46.6869 150.327 46.9166C150.331 47.0114 150.259 47.092 150.164 47.0967C150.161 47.097 150.157 47.097 150.155 47.097ZM149.944 44.7031C149.858 44.7031 149.785 44.6399 149.774 44.5529C149.745 44.327 149.714 44.1019 149.68 43.8768C149.666 43.7831 149.73 43.6957 149.824 43.6812C149.914 43.6691 150.005 43.7316 150.019 43.8253C150.054 44.0533 150.085 44.2812 150.114 44.5096C150.126 44.6036 150.06 44.6896 149.966 44.7017C149.958 44.7027 149.951 44.7031 149.944 44.7031ZM149.544 42.334C149.465 42.334 149.394 42.2786 149.377 42.198C149.33 41.9757 149.28 41.7534 149.227 41.5322C149.206 41.4399 149.263 41.3476 149.355 41.3256C149.448 41.3046 149.54 41.3607 149.562 41.453C149.614 41.6771 149.665 41.9015 149.713 42.127C149.732 42.22 149.673 42.3109 149.58 42.3304C149.568 42.3329 149.556 42.334 149.544 42.334ZM148.945 40.0075C148.872 40.0075 148.804 39.9599 148.781 39.8857C148.715 39.6681 148.646 39.4515 148.574 39.2352C148.545 39.145 148.594 39.0481 148.683 39.0186C148.774 38.9881 148.871 39.0374 148.9 39.1276C148.972 39.346 149.042 39.5654 149.11 39.7856C149.137 39.8765 149.086 39.9724 148.995 40.0001C148.979 40.0054 148.962 40.0075 148.945 40.0075ZM148.148 37.7414C148.079 37.7414 148.015 37.7006 147.989 37.6335C147.904 37.4225 147.817 37.2123 147.727 37.0028C147.689 36.9158 147.73 36.815 147.817 36.7777C147.903 36.7404 148.005 36.7802 148.042 36.8679C148.133 37.0795 148.221 37.2922 148.307 37.5056C148.342 37.5937 148.299 37.6935 148.212 37.7286C148.191 37.7375 148.169 37.7414 148.148 37.7414ZM147.158 35.5516C147.096 35.5516 147.036 35.5172 147.005 35.4575C146.902 35.2544 146.797 35.0528 146.689 34.8521C146.645 34.7687 146.675 34.6647 146.759 34.6196C146.843 34.5748 146.946 34.6057 146.991 34.6895C147.101 34.8926 147.207 35.0968 147.311 35.3027C147.354 35.3872 147.32 35.4906 147.235 35.5335C147.211 35.5456 147.184 35.5516 147.158 35.5516ZM145.982 33.456C145.924 33.456 145.869 33.4272 145.836 33.3746C145.716 33.1811 145.594 32.9894 145.469 32.7994C145.417 32.7202 145.439 32.6137 145.518 32.5619C145.597 32.51 145.704 32.5317 145.755 32.6112C145.882 32.804 146.006 32.9983 146.128 33.1939C146.178 33.2745 146.153 33.3803 146.072 33.4304C146.044 33.4478 146.013 33.456 145.982 33.456ZM144.624 31.4732C144.572 31.4732 144.521 31.4494 144.487 31.4047C144.35 31.2232 144.211 31.0432 144.069 30.8653C144.01 30.7911 144.022 30.6832 144.096 30.6239C144.17 30.5653 144.278 30.577 144.337 30.6512C144.481 30.8316 144.622 31.0137 144.761 31.198C144.818 31.2737 144.803 31.3816 144.728 31.4384C144.697 31.4618 144.66 31.4732 144.624 31.4732ZM143.09 29.624C143.043 29.624 142.997 29.6051 142.963 29.5682C142.809 29.4003 142.654 29.2341 142.496 29.0707C142.43 29.0026 142.432 28.8939 142.5 28.8279C142.569 28.7622 142.677 28.7643 142.743 28.8321C142.903 28.998 143.061 29.1663 143.216 29.3363C143.28 29.4063 143.275 29.515 143.205 29.5789C143.173 29.609 143.131 29.624 143.09 29.624ZM141.385 27.9309C141.344 27.9309 141.303 27.9164 141.27 27.8869C141.101 27.7349 140.93 27.5855 140.757 27.4385C140.684 27.377 140.675 27.2687 140.737 27.1963C140.798 27.1242 140.907 27.1157 140.979 27.1764C141.154 27.3255 141.328 27.4772 141.499 27.6313C141.57 27.6945 141.575 27.8031 141.512 27.8738C141.479 27.9114 141.432 27.9309 141.385 27.9309ZM139.519 26.4187C139.483 26.4187 139.448 26.408 139.418 26.3856C139.234 26.2521 139.048 26.1215 138.861 25.9933C138.783 25.9397 138.763 25.8331 138.816 25.7547C138.869 25.6762 138.976 25.657 139.054 25.7096C139.244 25.8395 139.433 25.9723 139.619 26.108C139.696 26.1637 139.713 26.271 139.657 26.3477C139.624 26.3942 139.571 26.4187 139.519 26.4187ZM137.504 25.1123C137.475 25.1123 137.446 25.1049 137.418 25.0896C137.222 24.9767 137.023 24.8673 136.823 24.7604C136.739 24.7157 136.707 24.6117 136.752 24.5282C136.797 24.4448 136.901 24.4139 136.984 24.4576C137.188 24.5659 137.389 24.6774 137.589 24.7921C137.671 24.8393 137.7 24.944 137.652 25.0264C137.621 25.0814 137.563 25.1123 137.504 25.1123ZM135.357 24.0354C135.334 24.0354 135.31 24.0308 135.288 24.0212C135.079 23.9303 134.869 23.8422 134.659 23.7574C134.571 23.7218 134.528 23.6221 134.563 23.534C134.599 23.4459 134.698 23.4037 134.787 23.4388C135.001 23.5248 135.213 23.6139 135.425 23.7062C135.512 23.7442 135.552 23.8454 135.514 23.9321C135.486 23.997 135.423 24.0354 135.357 24.0354ZM133.11 23.1825C133.093 23.1825 133.075 23.1796 133.057 23.174C132.841 23.1029 132.624 23.0348 132.406 22.9687C132.315 22.9414 132.264 22.8455 132.291 22.7546C132.319 22.6641 132.415 22.6133 132.505 22.6403C132.726 22.707 132.946 22.7763 133.164 22.848C133.254 22.8775 133.303 22.9748 133.273 23.0646C133.25 23.1367 133.182 23.1825 133.11 23.1825ZM130.801 22.5231C130.787 22.5231 130.774 22.5213 130.76 22.5181C130.539 22.4634 130.317 22.4109 130.095 22.3601C130.002 22.3392 129.945 22.2469 129.966 22.1545C129.987 22.0626 130.078 22.004 130.171 22.0256C130.396 22.0771 130.62 22.13 130.842 22.1851C130.934 22.2078 130.99 22.3008 130.968 22.3928C130.948 22.4706 130.878 22.5231 130.801 22.5231ZM128.453 22.015C128.443 22.015 128.432 22.0139 128.421 22.0121C128.197 21.9699 127.972 21.9291 127.748 21.8893C127.655 21.873 127.592 21.7838 127.609 21.6904C127.626 21.5971 127.717 21.5349 127.808 21.5513C128.034 21.591 128.259 21.6322 128.485 21.6748C128.578 21.6922 128.639 21.7821 128.622 21.8754C128.606 21.9575 128.534 22.015 128.453 22.015ZM126.084 21.6148C126.075 21.6148 126.067 21.6141 126.058 21.6127C125.832 21.5786 125.606 21.5449 125.38 21.5122C125.286 21.4987 125.221 21.4117 125.234 21.3176C125.248 21.2235 125.34 21.1575 125.429 21.1724C125.656 21.2054 125.883 21.2388 126.109 21.2732C126.203 21.2874 126.268 21.3751 126.253 21.4685C126.241 21.5541 126.167 21.6148 126.084 21.6148ZM123.705 21.2782C123.697 21.2782 123.689 21.2778 123.682 21.2768L123.001 21.1862C122.908 21.1738 122.841 21.0875 122.854 20.9938C122.866 20.8997 122.954 20.8326 123.046 20.8461L123.727 20.9366C123.821 20.949 123.888 21.0357 123.875 21.1298C123.863 21.2157 123.789 21.2782 123.705 21.2782ZM121.322 20.9622C121.314 20.9622 121.307 20.9618 121.299 20.9608L120.618 20.8684C120.524 20.8557 120.458 20.769 120.471 20.6749C120.484 20.5812 120.572 20.5166 120.664 20.5279L121.345 20.6202C121.438 20.6327 121.504 20.7193 121.492 20.8134C121.48 20.8997 121.407 20.9622 121.322 20.9622ZM118.942 20.6245C118.933 20.6245 118.924 20.6238 118.915 20.6224C118.688 20.5876 118.461 20.5521 118.235 20.5155C118.141 20.5002 118.078 20.4125 118.093 20.3188C118.108 20.2254 118.198 20.1608 118.289 20.1767C118.515 20.2133 118.741 20.2485 118.967 20.2833C119.061 20.2975 119.125 20.3852 119.111 20.4789C119.098 20.5634 119.025 20.6245 118.942 20.6245Z" fill="white"/>
<path d="M66.7842 39.8088H10.2241V75.621H66.7842V39.8088Z" fill="white" stroke="#263238" stroke-width="0.5" stroke-miterlimit="10"/>
<path d="M27.9426 35.6495L26.8461 32.5095H9.12305V78.2315H67.8803V35.6495H27.9426ZM66.7839 75.6256H10.2241V39.8089H66.7839V75.6256Z" fill="#0088FF" stroke="#263238" stroke-width="0.5" stroke-miterlimit="10" stroke-linecap="round" stroke-linejoin="round"/>
<path d="M11.5848 36.5586L10.7723 37.3373L11.6135 38.2413" fill="#0088FF"/>
<path d="M11.5848 36.5586L10.7723 37.3373L11.6135 38.2413" stroke="#263238" stroke-width="0.5" stroke-miterlimit="10" stroke-linecap="round" stroke-linejoin="round"/>
<path d="M10.7723 37.3372H12.5754" stroke="#263238" stroke-width="0.5" stroke-miterlimit="10" stroke-linecap="round" stroke-linejoin="round"/>
<path d="M16.1767 36.5586L16.9895 37.3373L16.1479 38.2413" fill="#0088FF"/>
<path d="M16.1767 36.5586L16.9895 37.3373L16.1479 38.2413" stroke="#263238" stroke-width="0.5" stroke-miterlimit="10" stroke-linecap="round" stroke-linejoin="round"/>
<path d="M16.9895 37.3372H15.1864" stroke="#263238" stroke-width="0.5" stroke-miterlimit="10" stroke-linecap="round" stroke-linejoin="round"/>
<path d="M20.8601 37.2267C20.7529 36.8542 20.4155 36.5953 20.0282 36.5872C19.5793 36.5879 19.2161 36.9522 19.2168 37.401C19.2175 37.8498 19.5818 38.2131 20.0306 38.2124C20.2174 38.212 20.3981 38.1477 20.543 38.0298" fill="#0088FF"/>
<path d="M20.8601 37.2267C20.7529 36.8542 20.4155 36.5953 20.0282 36.5872C19.5793 36.5879 19.2161 36.9522 19.2168 37.401C19.2175 37.8498 19.5818 38.2131 20.0306 38.2124C20.2174 38.212 20.3981 38.1477 20.543 38.0298" stroke="#263238" stroke-width="0.5" stroke-miterlimit="10" stroke-linecap="round" stroke-linejoin="round"/>
<path d="M20.3119 37.3229H20.9464V36.5776" fill="#0088FF"/>
<path d="M20.3119 37.3229H20.9464V36.5776" stroke="#263238" stroke-width="0.5" stroke-miterlimit="10" stroke-linecap="round" stroke-linejoin="round"/>
<path d="M24.8846 34.135L26.0241 35.3082" stroke="#263238" stroke-width="0.5" stroke-miterlimit="10" stroke-linecap="round" stroke-linejoin="round"/>
<path d="M26.0433 34.1543L24.8655 35.2891" stroke="#263238" stroke-width="0.5" stroke-miterlimit="10" stroke-linecap="round" stroke-linejoin="round"/>
<path d="M53.2919 100.966L44.5712 83.9485L19.3531 97.6261L28.1151 113.692L53.2919 100.966Z" fill="white"/>
<path d="M42.7169 88.5484L37.6687 101.169L19.4557 97.6828L36.3667 99.2675L42.044 88.3801L42.7169 88.5484Z" fill="#0088FF"/>
<path opacity="0.5" d="M42.7169 88.5484L37.6687 101.169L19.4557 97.6828L36.3667 99.2675L42.044 88.3801L42.7169 88.5484Z" fill="white"/>
<path d="M19.4415 97.5694L28.115 113.692L53.2919 100.966L44.4628 84.0569L19.4415 97.5694Z" stroke="#263238" stroke-width="0.5" stroke-miterlimit="10" stroke-linecap="round" stroke-linejoin="round"/>
<path d="M19.4415 97.5694L36.3667 99.2677L44.4628 84.0569" stroke="#263238" stroke-width="0.5" stroke-miterlimit="10" stroke-linecap="round" stroke-linejoin="round"/>
<path d="M46.2083 87.3832C47.6613 85.9301 47.6613 83.5742 46.2083 82.1212C44.7552 80.6681 42.3993 80.6681 40.9462 82.1212C39.4931 83.5742 39.4931 85.9301 40.9462 87.3832C42.3993 88.8363 44.7552 88.8363 46.2083 87.3832Z" fill="#0088FF"/>
<path opacity="0.3" d="M46.2083 87.3832C47.6613 85.9301 47.6613 83.5742 46.2083 82.1212C44.7552 80.6681 42.3993 80.6681 40.9462 82.1212C39.4931 83.5742 39.4931 85.9301 40.9462 87.3832C42.3993 88.8363 44.7552 88.8363 46.2083 87.3832Z" fill="black"/>
<path d="M43.5783 88.5882C45.6333 88.5882 47.2992 86.9223 47.2992 84.8674C47.2992 82.8124 45.6333 81.1465 43.5783 81.1465C41.5233 81.1465 39.8574 82.8124 39.8574 84.8674C39.8574 86.9223 41.5233 88.5882 43.5783 88.5882Z" stroke="#263238" stroke-width="0.5" stroke-miterlimit="10" stroke-linecap="round" stroke-linejoin="round"/>
<path d="M43.5783 87.5496C45.6333 87.5496 47.2992 85.8838 47.2992 83.8288C47.2992 81.7738 45.6333 80.1079 43.5783 80.1079C41.5233 80.1079 39.8574 81.7738 39.8574 83.8288C39.8574 85.8838 41.5233 87.5496 43.5783 87.5496Z" fill="#0088FF"/>
<path d="M43.5783 87.5496C45.6333 87.5496 47.2992 85.8838 47.2992 83.8288C47.2992 81.7738 45.6333 80.1079 43.5783 80.1079C41.5233 80.1079 39.8574 81.7738 39.8574 83.8288C39.8574 85.8838 41.5233 87.5496 43.5783 87.5496Z" stroke="#263238" stroke-width="0.5" stroke-miterlimit="10" stroke-linecap="round" stroke-linejoin="round"/>
<path d="M102.398 73.849H84.5829C83.9946 73.849 83.5177 73.3721 83.5177 72.7837V62.8667C83.5177 62.2784 83.9946 61.8015 84.5829 61.8015H102.398C102.986 61.8015 103.463 62.2784 103.463 62.8667V72.7837C103.463 73.3717 102.986 73.849 102.398 73.849Z" fill="white"/>
<path d="M102.398 73.849H84.5829C83.9946 73.849 83.5177 73.3721 83.5177 72.7837V62.8667C83.5177 62.2784 83.9946 61.8015 84.5829 61.8015H102.398C102.986 61.8015 103.463 62.2784 103.463 62.8667V72.7837C103.463 73.3717 102.986 73.849 102.398 73.849Z" stroke="#263238" stroke-width="0.5" stroke-miterlimit="10" stroke-linecap="round" stroke-linejoin="round"/>
<path d="M102.241 63.6318H84.8322V64.446H102.241V63.6318Z" fill="#0088FF"/>
<path d="M102.241 65.5105H84.8322V66.3247H102.241V65.5105Z" fill="#0088FF"/>
<path d="M102.241 67.3889H84.8322V68.2031H102.241V67.3889Z" fill="#0088FF"/>
<path d="M102.241 69.2676H84.8322V70.0818H102.241V69.2676Z" fill="#0088FF"/>
<path d="M102.241 71.1462H84.8322V71.9604H102.241V71.1462Z" fill="#0088FF"/>
<path d="M82.4257 71.5918C79.5997 73.1698 76.9302 74.9597 74.641 77.2436C69.3212 82.5502 66.6919 89.8812 62.9074 96.3642C59.0442 102.982 53.8664 108.834 47.7609 113.484C41.4671 118.276 34.0087 121.835 26.1064 122.404C18.2045 122.973 9.86087 120.247 4.70869 114.252C-0.443501 108.258 -1.71433 98.8785 2.63716 92.2847C6.22238 86.8513 13.3303 83.9816 19.7026 85.3948C22.1949 85.9473 24.5146 87.0753 26.8073 88.1938C27.9876 88.7694 29.1675 89.345 30.3475 89.9206" stroke="#263238" stroke-width="0.5" stroke-miterlimit="10" stroke-linecap="round" stroke-linejoin="round" stroke-dasharray="2 5"/>
<path d="M93.2415 37.2227C96.8057 35.529 101.028 35.0436 104.745 36.3694C108.462 37.6953 111.541 40.9666 112.179 44.8608C112.73 48.2202 111.477 51.6882 109.433 54.4103C107.905 56.4442 105.97 58.118 103.906 59.6203" stroke="#263238" stroke-width="0.5" stroke-miterlimit="10" stroke-linecap="round" stroke-linejoin="round" stroke-dasharray="2 5"/>
<path d="M72.4883 54.4392L75.5963 52.4945L83.3938 42.9929L89.7043 48.2893L81.6223 57.4045L80.4555 56.5839L73.8411 57.9726C73.8411 57.9726 73.1764 55.3706 72.4883 54.4392Z" fill="white"/>
<path d="M26.6617 52.4998L23.5228 54.9874L24.3708 56.7458C24.3708 56.7458 24.5305 59.0172 25.8401 59.7224C27.1496 60.4276 30.6194 58.1831 30.6194 58.1831C30.6194 58.1831 30.9781 55.7935 29.7694 54.0301L26.6617 52.4998Z" fill="white"/>
<path d="M63.4163 25.9677C63.4163 25.9677 58.0437 36.3552 54.8796 37.0714L53.6258 37.4893C53.6258 37.4893 52.4945 41.0689 48.6426 41.6668L49.1486 38.6831L46.3477 41.4506C46.3477 41.4506 41.8329 37.3139 42.9074 31.7026L46.8587 31.9618L48.6202 28.6589C48.6202 28.6589 47.119 27.8181 47.4772 26.1467C47.8355 24.475 48.1934 22.9229 49.9248 24.296C49.9248 24.296 53.6858 26.2064 56.7302 23.5198C59.7747 20.8333 60.6105 20.4754 62.2222 21.4305C62.2222 21.4305 61.8046 25.1319 63.4163 25.9677Z" fill="white"/>
<path d="M46.3477 41.4505C46.3477 41.4505 42.1862 38.6983 42.8498 31.8957C42.8498 31.8957 37.753 30.8059 30.4558 31.373L8.77722 50.4095C8.77722 50.4095 9.50229 53.2817 12.6096 53.8935C15.7169 54.5053 23.3706 54.9964 23.3706 54.9964L26.3589 52.383L19.5776 49.5907L30.1125 43.3406L30.1192 53.7987C30.1192 53.7987 31.3045 57.3118 30.6195 58.1835L26.0486 62.7985C26.0486 62.7985 33.7335 76.9928 50.9989 68.0238L49.1617 58.1768C49.1617 58.1768 52.0449 57.424 50.3732 55.851L53.1574 51.2908C53.1574 51.2908 56.0921 61.9012 58.7094 64.6296L73.5602 58.0919C73.5602 58.0919 73.1661 55.545 72.37 54.5213L61.9136 56.9017C61.9136 56.9017 62.0862 47.4758 61.4037 44.4051C60.7213 41.334 59.3997 38.2928 56.553 36.2195C56.553 36.2195 54.6626 37.5489 53.7525 37.094C53.7525 37.094 52.1099 41.6813 48.6426 41.6671L49.1944 38.4582L46.7145 41.1238L46.3477 41.4505Z" fill="#0088FF"/>
<path d="M62.1468 21.9098C61.3071 21.9098 60.5216 22.3416 59.8818 22.8856C59.2419 23.4295 58.7125 24.0896 58.105 24.6691C56.3971 26.2979 54.0589 27.2484 51.6987 27.2733C51.5204 28.7088 50.9498 30.0936 50.0649 31.2377C49.8167 31.5587 49.5266 31.9205 49.5959 32.3207C49.6285 32.51 49.7393 32.6751 49.8473 32.8338C50.2031 33.3557 50.5589 33.8781 50.9146 34.4004C51.0162 34.5495 51.1213 34.7082 51.1337 34.8883C51.1568 35.2227 50.8642 35.4844 50.5986 35.6893C49.8405 36.2738 49.0824 36.8586 48.3243 37.4431C48.3243 37.4431 46.7812 33.6558 46.8579 31.9621L48.6194 28.6591C48.6194 28.6591 45.2774 24.7447 47.9167 23.3947C50.5557 22.0444 52.2128 23.763 52.2128 23.763C52.2128 23.763 58.5343 20.6944 60.4368 20.7558C62.3404 20.8165 62.1468 21.9098 62.1468 21.9098Z" fill="#0088FF"/>
<path opacity="0.6" d="M62.1468 21.9098C61.3071 21.9098 60.5216 22.3416 59.8818 22.8856C59.2419 23.4295 58.7125 24.0896 58.105 24.6691C56.3971 26.2979 54.0589 27.2484 51.6987 27.2733C51.5204 28.7088 50.9498 30.0936 50.0649 31.2377C49.8167 31.5587 49.5266 31.9205 49.5959 32.3207C49.6285 32.51 49.7393 32.6751 49.8473 32.8338C50.2031 33.3557 50.5589 33.8781 50.9146 34.4004C51.0162 34.5495 51.1213 34.7082 51.1337 34.8883C51.1568 35.2227 50.8642 35.4844 50.5986 35.6893C49.8405 36.2738 49.0824 36.8586 48.3243 37.4431C48.3243 37.4431 46.7812 33.6558 46.8579 31.9621L48.6194 28.6591C48.6194 28.6591 45.2774 24.7447 47.9167 23.3947C50.5557 22.0444 52.2128 23.763 52.2128 23.763C52.2128 23.763 58.5343 20.6944 60.4368 20.7558C62.3404 20.8165 62.1468 21.9098 62.1468 21.9098Z" fill="white"/>
<path d="M63.3825 25.271C63.3825 25.271 59.8587 34.0801 55.1397 37.0372C55.1397 37.0372 54.8251 37.3518 53.8185 37.0372C52.8118 36.7226 50.6096 34.2058 49.7915 32.9474C49.4077 32.3569 49.2734 31.476 49.2386 30.7069" stroke="#263238" stroke-width="0.5" stroke-miterlimit="10" stroke-linecap="round" stroke-linejoin="round"/>
<path d="M54.6991 31.6887C54.6991 31.6887 55.1394 32.9471 56.461 33.1989" stroke="#263238" stroke-width="0.5" stroke-miterlimit="10" stroke-linecap="round" stroke-linejoin="round"/>
<path d="M59.4032 26.2202C58.9156 25.6255 58.0894 25.3293 57.3348 25.4792" stroke="#263238" stroke-width="0.5" stroke-miterlimit="10" stroke-linecap="round" stroke-linejoin="round"/>
<path d="M60.9695 27.1125C61.4946 26.9179 62.1366 27.1047 62.475 27.5507" stroke="#263238" stroke-width="0.5" stroke-miterlimit="10" stroke-linecap="round" stroke-linejoin="round"/>
<path d="M60.3584 27.9561C59.9692 28.342 59.6567 28.8146 59.5087 29.3423C59.3606 29.8699 59.3851 30.454 59.6283 30.9455C59.732 31.155 59.8748 31.3506 59.9206 31.5796C59.9664 31.809 59.8709 32.0924 59.645 32.1531C59.5431 32.1804 59.4348 32.1577 59.3322 32.1318C58.7034 31.9734 58.1036 31.7018 57.5699 31.3336" stroke="#263238" stroke-width="0.5" stroke-miterlimit="10" stroke-linecap="round" stroke-linejoin="round"/>
<path d="M50.2816 25.9081C50.2035 25.558 50.0984 25.2135 49.9673 24.8794C49.8022 24.4586 49.5256 24.0013 49.0768 23.9484C48.9159 23.9296 48.7519 23.9679 48.6045 24.0354C48.1667 24.2364 47.8773 24.6834 47.7683 25.1528C47.6593 25.6222 47.7087 26.114 47.7978 26.5873C47.8734 26.99 47.9778 27.387 48.1092 27.7751C48.22 28.1014 48.3588 28.4344 48.6202 28.6592C48.9351 28.9301 49.4116 28.9962 49.7884 28.8211C50.1651 28.6461 50.4222 28.2399 50.4183 27.8244" stroke="#263238" stroke-width="0.5" stroke-miterlimit="10" stroke-linecap="round" stroke-linejoin="round"/>
<path d="M48.3986 28.5247C47.9945 29.8669 47.5478 30.8462 46.8455 31.9703" stroke="#263238" stroke-width="0.5" stroke-miterlimit="10" stroke-linecap="round" stroke-linejoin="round"/>
<path d="M23.3708 54.9964L24.3708 56.7459C24.3708 56.7459 24.4332 59.1828 25.6831 59.6828C26.933 60.1827 30.6194 58.1833 30.6194 58.1833C30.6819 57.9958 31.0029 56.2239 30.0655 54.162C30.0655 54.162 28.3008 53.1635 26.3592 52.3831" stroke="#263238" stroke-width="0.5" stroke-miterlimit="10" stroke-linecap="round" stroke-linejoin="round"/>
<path d="M28.8072 58.9331L27.8701 55.3088" stroke="#263238" stroke-width="0.5" stroke-miterlimit="10" stroke-linecap="round" stroke-linejoin="round"/>
<path d="M27.1004 59.5206L25.9329 55.8711" stroke="#263238" stroke-width="0.5" stroke-miterlimit="10" stroke-linecap="round" stroke-linejoin="round"/>
<path d="M19.5109 49.5391L32.6189 41.9365" stroke="#263238" stroke-width="0.5" stroke-miterlimit="10" stroke-linecap="round" stroke-linejoin="round"/>
<path d="M30.2637 43.3399C31.5139 43.2948 32.3064 43.245 33.5567 43.2" stroke="#263238" stroke-width="0.5" stroke-miterlimit="10" stroke-linecap="round" stroke-linejoin="round"/>
<path d="M30.1771 43.418V54.1634" stroke="#263238" stroke-width="0.5" stroke-miterlimit="10" stroke-linecap="round" stroke-linejoin="round"/>
<path d="M56.3022 36.1389C56.3022 36.1389 59.4415 37.1505 61.4388 43.9606C62.1017 49.8329 61.926 57.0076 61.926 57.0076" stroke="#263238" stroke-width="0.5" stroke-miterlimit="10" stroke-linecap="round" stroke-linejoin="round"/>
<path d="M76.028 52.249C76.028 52.249 79.7591 52.3811 79.6682 53.0163C79.5777 53.6516 76.4789 54.246 76.4789 54.246C76.4789 54.246 76.5038 54.2982 76.5258 54.3948C76.5258 54.3948 77.2771 55.7824 76.1856 56.4244" stroke="#263238" stroke-width="0.5" stroke-miterlimit="10" stroke-linecap="round" stroke-linejoin="round"/>
<path d="M75.882 52.2314C74.3257 53.0602 72.4342 54.4777 72.4342 54.4777L61.6377 57.2359" stroke="#263238" stroke-width="0.5" stroke-miterlimit="10" stroke-linecap="round" stroke-linejoin="round"/>
<path d="M41.0176 57.9721C41.0176 57.9721 44.2076 59.2482 48.4185 56.8237" stroke="#263238" stroke-width="0.5" stroke-miterlimit="10" stroke-linecap="round" stroke-linejoin="round"/>
<path d="M57.8486 28.2399C57.6846 28.6987 57.3711 29.0058 57.1488 28.9263C56.9265 28.8467 56.8793 28.4104 57.0433 27.9516C57.2074 27.4928 57.5209 27.1857 57.7432 27.2652C57.9658 27.3448 58.013 27.7812 57.8486 28.2399Z" fill="#263238"/>
<path d="M61.0402 29.0043C60.8758 29.4631 60.5626 29.7702 60.3399 29.6907C60.1177 29.6111 60.0704 29.1748 60.2345 28.716C60.3989 28.2572 60.7121 27.9501 60.9343 28.0296C61.1573 28.1092 61.2042 28.5456 61.0402 29.0043Z" fill="#263238"/>
<path d="M42.5604 73.4915C43.168 73.4624 43.794 73.4116 44.4388 73.3367" stroke="#263238" stroke-width="0.5" stroke-miterlimit="10" stroke-linecap="round" stroke-linejoin="round"/>
<path d="M26.6906 67.5151C26.6906 67.5151 31.057 73.2252 40.5855 73.5099" stroke="#263238" stroke-width="0.5" stroke-miterlimit="10" stroke-linecap="round" stroke-linejoin="round"/>
<path d="M77.7004 54.1091L81.6219 57.4049L89.7039 48.2897L83.4687 42.9067L75.5746 52.3131" stroke="#263238" stroke-width="0.5" stroke-miterlimit="10" stroke-linecap="round" stroke-linejoin="round"/>
<path d="M83.4687 42.9067L82.6392 50.3012L75.5746 52.3131" stroke="#263238" stroke-width="0.5" stroke-miterlimit="10" stroke-linecap="round" stroke-linejoin="round"/>
<path d="M49.9674 24.8795C49.9674 24.8795 54.5869 26.0583 57.7802 23.2362C60.9737 20.414 61.9392 21.9735 61.9392 21.9735C61.9392 21.9735 61.1221 24.7214 62.9789 25.9838L67.4557 21.884C67.4557 21.884 65.0582 19.2998 62.0876 19.7454C62.0876 19.7454 59.8527 14.9621 56.0761 14.6408C51.6273 14.2623 41.3098 18.2377 47.273 31.1111L48.3486 28.5829C48.3486 28.5829 47.2354 25.1241 48.6049 24.0354C49.6109 23.2362 49.9674 24.8795 49.9674 24.8795Z" fill="#263238"/>
<path d="M63.5107 20.714C63.6879 20.7833 64.3253 20.5532 64.566 20.5592C65.0244 20.5706 65.4789 20.6877 65.9015 20.8617C66.8634 21.2587 67.8171 22.0495 68.5077 22.8218C69.9898 24.4796 71.3683 26.6847 73.8218 26.8391C76.0077 26.9769 77.6041 25.3126 79.6881 25.0616C84.0268 24.5393 87.2261 28.9511 86.6775 32.9465C85.4436 41.9324 71.7954 47.3879 61.5688 45.5123C61.2226 45.4488 61.5297 39.7831 56.5526 36.2185C56.5526 36.2185 62.9671 28.6521 63.39 24.7392C63.8122 20.8376 63.5121 20.7147 63.5107 20.714Z" fill="#263238"/>
<path d="M62.0102 19.9832C62.0102 19.9832 62.4459 17.0581 59.2719 14.4443" stroke="#263238" stroke-width="0.5" stroke-miterlimit="10" stroke-linecap="round" stroke-linejoin="round"/>
<path d="M46.8586 31.9617C46.8586 31.9617 46.7855 34.1515 49.1943 38.4579L46.3477 41.4505C46.3477 41.4505 41.6763 38.0928 42.9901 31.5967L46.8586 31.9617Z" stroke="#263238" stroke-width="0.5" stroke-miterlimit="10" stroke-linecap="round" stroke-linejoin="round"/>
<path d="M53.8182 37.0372C51.7676 42.0424 48.6426 41.6667 48.6426 41.6667L49.1944 38.4579C49.1944 38.4579 51.3053 37.2872 52.2733 36.01C52.3077 35.9645 52.2331 36.0558 52.2573 36.0295" stroke="#263238" stroke-width="0.5" stroke-miterlimit="10" stroke-linecap="round" stroke-linejoin="round"/>
<path d="M30.2445 58.4956L29.176 54.7549" stroke="#263238" stroke-width="0.5" stroke-miterlimit="10" stroke-linecap="round" stroke-linejoin="round"/>
<path d="M56.1099 46.2551L50.3732 55.8511C50.3732 55.8511 50.9811 56.4558 50.7723 57.0818C50.5639 57.7078 49.1305 58.1907 49.1305 58.1907C49.1305 58.1907 50.9939 67.9987 50.9989 68.0243C51.1139 68.6304 45.912 70.2101 45.4 70.349C41.2342 71.4792 36.8607 71.3677 32.9769 69.261C30.2186 67.7651 27.7313 65.4578 26.0486 62.7986L30.2445 58.4961" stroke="#263238" stroke-width="0.5" stroke-miterlimit="10" stroke-linecap="round" stroke-linejoin="round"/>
<path d="M53.2061 51.2463C53.2061 51.2463 54.1065 56.6492 58.7094 64.6292L73.638 58.0209L80.2904 56.5043" stroke="#263238" stroke-width="0.5" stroke-miterlimit="10" stroke-linecap="round" stroke-linejoin="round"/>
<path d="M62.0134 57.0037C60.5136 57.6165 59.4302 59.1391 59.3429 60.7568" stroke="#263238" stroke-width="0.5" stroke-miterlimit="10" stroke-linecap="round" stroke-linejoin="round"/>
<path d="M58.3593 58.2755C59.0882 57.7135 59.8985 57.2575 60.7567 56.9255" stroke="#263238" stroke-width="0.5" stroke-miterlimit="10" stroke-linecap="round" stroke-linejoin="round"/>
<path d="M73.6379 58.0209C73.8833 57.2844 72.4338 54.4775 72.4338 54.4775" stroke="#263238" stroke-width="0.5" stroke-miterlimit="10" stroke-linecap="round" stroke-linejoin="round"/>
<path d="M42.9968 31.7845C38.8066 31.3328 32.0033 30.7171 30.682 31.3137C28.7451 32.1886 16.0812 43.9768 16.0812 43.9768L8.77759 50.4091C8.8937 52.7316 12.6099 53.8931 12.6099 53.8931L23.371 54.996L26.6618 52.4994C26.6618 52.4994 17.3712 48.4348 13.8872 48.0865" stroke="#263238" stroke-width="0.5" stroke-miterlimit="10" stroke-linecap="round" stroke-linejoin="round"/>
<path d="M16.0002 46.5828C16.0002 46.5828 19.0489 47.5067 19.5109 49.5391" stroke="#263238" stroke-width="0.5" stroke-miterlimit="10" stroke-linecap="round" stroke-linejoin="round"/>
<path d="M61.9899 29.0654C62.8648 30.462 63.8295 31.8553 65.1873 32.7891C66.8257 33.9154 68.9174 34.2641 70.8903 34.0159C72.8627 33.7677 74.7297 32.9621 76.4398 31.9483C77.5952 31.2634 78.7073 30.4733 79.9778 30.0387C81.2486 29.6037 82.7513 29.5789 83.8403 30.365" stroke="white" stroke-width="0.5" stroke-miterlimit="10" stroke-linecap="round" stroke-linejoin="round"/>
<path d="M59.8297 32.8123C59.8872 34.8327 60.0594 36.9532 61.1637 38.6462C62.1707 40.1901 63.8609 41.1953 65.6377 41.6864C67.596 42.2279 69.7098 42.1941 71.6499 41.5902C73.2542 41.0909 74.7135 40.2224 76.2389 39.519C77.7644 38.8156 79.4336 38.2652 81.101 38.4687" stroke="white" stroke-width="0.5" stroke-miterlimit="10" stroke-linecap="round" stroke-linejoin="round"/>
<path d="M82.4957 91.7952L82.7868 88.6151L85.44 87.176L81.4233 79.7144L70.1049 85.6236L74.0633 93.05L76.5094 91.8417L81.3282 94.3688L82.4957 91.7952Z" fill="white"/>
<path d="M119.24 57.8892C119.24 57.8892 115.563 66.4668 115.229 69.3632C114.895 72.2595 115.062 73.7075 116.455 74.7103C117.847 75.713 120.381 75.7627 120.381 75.7627L120.139 77.2903C120.139 77.2903 119.128 77.2168 118.348 78.3864C117.569 79.556 117.581 80.3219 117.581 80.3219C117.581 80.3219 118.556 84.1603 119.343 84.2253C120.131 84.2906 120.967 81.5992 120.967 81.5992C120.967 81.5992 121.669 85.4418 122.348 85.3119C123.027 85.1819 129.266 81.0044 129.266 81.0044C129.266 81.0044 129.824 78.1066 128.459 76.6036C128.459 76.6036 128.096 73.731 128.486 72.3941C128.486 72.3941 131.181 72.7343 131.326 69.976C131.456 67.5185 130.157 66.4671 129.377 67.4695L127.539 62.8464L128.263 59.5602L119.24 57.8892Z" fill="white"/>
<path d="M120.563 58.7481L120.848 59.2466C120.848 59.2466 116.361 66.6553 116.574 71.4993C116.788 76.3433 123.698 75.0611 123.698 75.0611C123.698 75.0611 123.27 81.1163 120.706 80.7601L120.065 79.2642L120.248 75.8842C120.248 75.8842 117.571 76.1299 115.933 74.4916C114.294 72.8532 115.078 69.3624 116.574 64.5895C118.07 59.8165 119.239 57.8892 119.239 57.8892L120.563 58.7481Z" fill="#0088FF"/>
<path opacity="0.6" d="M120.563 58.7481L120.848 59.2466C120.848 59.2466 116.361 66.6553 116.574 71.4993C116.788 76.3433 123.698 75.0611 123.698 75.0611C123.698 75.0611 123.27 81.1163 120.706 80.7601L120.065 79.2642L120.248 75.8842C120.248 75.8842 117.571 76.1299 115.933 74.4916C114.294 72.8532 115.078 69.3624 116.574 64.5895C118.07 59.8165 119.239 57.8892 119.239 57.8892L120.563 58.7481Z" fill="white"/>
<path d="M142.266 92.867C142.014 94.4187 141.482 95.9385 140.775 97.3588C140.012 98.8927 139.042 100.309 137.995 101.513L138.616 107.365L140.104 116.082C140.1 116.086 140.093 116.089 140.09 116.093C140.068 116.107 140.044 116.125 140.022 116.142C139.933 116.21 139.774 116.327 139.546 116.487H117.51C116.931 115.145 116.289 113.625 115.685 112.13C114.584 109.399 113.612 106.758 113.391 105.433C113.363 105.256 113.349 105.107 113.345 104.979L109.606 101.243L97.2673 107.961L81.3597 94.5004L81.3846 94.4542L83.0002 91.223L83.0073 91.2053L98.8296 98.7578L102.107 94.227L102.153 94.0779L102.157 94.0601L103.094 90.9922L103.105 90.9603L103.691 89.0429L104.44 86.5893L109.123 84.3558L109.138 84.3487L117.581 80.3221C117.581 80.3221 117.585 80.3363 117.592 80.3647C117.635 80.5103 117.766 80.9826 117.954 81.5543C117.997 81.6927 118.039 81.8312 118.089 81.9697C118.121 82.0727 118.157 82.1756 118.196 82.2751C118.373 82.7615 118.568 83.248 118.764 83.6137C118.799 83.6812 118.838 83.7451 118.874 83.8019C118.931 83.8942 118.987 83.9759 119.041 84.0398C119.044 84.0469 119.051 84.0505 119.055 84.0576C119.154 84.1712 119.254 84.2315 119.342 84.2244C119.74 84.1925 120.22 83.3261 120.557 82.5982C120.564 82.5769 120.575 82.552 120.585 82.5307C120.777 82.1011 120.919 81.7318 120.958 81.6288C120.965 81.6111 120.969 81.6004 120.969 81.6004C120.969 81.6004 120.972 81.6146 120.976 81.643C121.029 81.9803 121.427 84.3061 121.998 85.0695C122.016 85.0944 122.038 85.1192 122.055 85.1441C122.148 85.2471 122.247 85.3074 122.346 85.311C122.35 85.311 122.35 85.311 122.354 85.311C122.631 85.311 123.5 84.7819 124.541 84.0789C124.544 84.0789 124.548 84.0753 124.551 84.0718C126.472 82.7722 128.962 80.8725 129.327 80.5955C129.359 80.5671 129.373 80.5565 129.373 80.5565C129.373 80.5565 129.519 79.9457 129.373 78.5112C129.373 78.5112 129.395 78.5183 129.434 78.5325L139.713 82.5059C139.713 82.5094 139.713 82.5094 139.717 82.5094L140.015 82.623C140.015 82.623 141.51 84.4552 142.284 88.9789C142.504 90.2679 142.483 91.5781 142.266 92.867Z" fill="#0088FF"/>
<path d="M108.253 89.2625L109.205 83.8877L97.8126 80.8276L95.8455 89.0757L100.384 90.4968L102.438 94.6554L105.553 96.7973L108.973 93.6083L109.265 91.0624L108.253 89.2625Z" fill="white"/>
<path d="M82.7868 88.615L85.4325 87.303L81.4453 79.6677L70.1464 85.7694L74.0632 93.0499L79.3851 90.3268" stroke="#263238" stroke-width="0.5" stroke-miterlimit="10" stroke-linecap="round" stroke-linejoin="round"/>
<path d="M70.1464 85.7694L77.7894 86.5364L81.4453 79.6677" stroke="#263238" stroke-width="0.5" stroke-miterlimit="10" stroke-linecap="round" stroke-linejoin="round"/>
<path d="M106.447 92.1396L107.664 92.4912L109.243 83.7605L97.8154 80.7778L95.8455 89.0757L100.233 90.3436" stroke="#263238" stroke-width="0.5" stroke-miterlimit="10" stroke-linecap="round" stroke-linejoin="round"/>
<path d="M97.8751 80.7778L102.412 86.4491L109.243 83.7605" stroke="#263238" stroke-width="0.5" stroke-miterlimit="10" stroke-linecap="round" stroke-linejoin="round"/>
<path d="M119.73 56.7283C119.73 56.7283 115.255 66.8629 114.954 70.9797C114.655 75.072 118.494 75.7058 118.54 75.7129C120.061 75.959 121.698 75.8624 123.125 75.2488C124.272 74.7556 125.188 73.8427 126.143 73.0594" stroke="#263238" stroke-width="0.5" stroke-miterlimit="10" stroke-linecap="round" stroke-linejoin="round"/>
<path d="M118.926 68.1751L117.119 67.1713L119.228 62.6526" stroke="#263238" stroke-width="0.5" stroke-miterlimit="10" stroke-linecap="round" stroke-linejoin="round"/>
<path d="M121.176 64.6357C121.044 65.0362 121.109 65.4179 121.323 65.4886C121.537 65.5592 121.817 65.2919 121.949 64.8913C122.082 64.4908 122.016 64.1091 121.802 64.0384C121.589 63.9678 121.309 64.2351 121.176 64.6357Z" fill="#263238"/>
<path d="M117.72 63.3394C117.588 63.7399 117.654 64.1217 117.868 64.1923C118.081 64.263 118.361 63.9956 118.494 63.5951C118.626 63.1945 118.561 62.8128 118.347 62.7422C118.133 62.6719 117.853 62.9392 117.72 63.3394Z" fill="#263238"/>
<path d="M121.417 69.0759C121.417 69.0759 120.517 70.264 118.825 70.0478" stroke="#263238" stroke-width="0.5" stroke-miterlimit="10" stroke-linecap="round" stroke-linejoin="round"/>
<path d="M121.355 62.445C121.751 62.1908 122.304 62.3485 122.64 62.6773C122.977 63.0061 123.147 63.4638 123.307 63.9058" stroke="#263238" stroke-width="0.5" stroke-miterlimit="10" stroke-linecap="round" stroke-linejoin="round"/>
<path d="M119.376 61.8809C119.278 61.5933 119.003 61.3738 118.701 61.3405C118.399 61.3071 118.084 61.4612 117.924 61.7204" stroke="#263238" stroke-width="0.5" stroke-miterlimit="10" stroke-linecap="round" stroke-linejoin="round"/>
<path d="M128.375 69.5102C128.375 69.5102 129.571 67.5526 130.822 67.988C132.072 68.4229 131.474 70.2171 130.876 71.3591C130.278 72.501 128.756 72.5553 127.886 72.066" stroke="#263238" stroke-width="0.5" stroke-miterlimit="10" stroke-linecap="round" stroke-linejoin="round"/>
<path d="M131.194 70.6087C131.194 70.6087 132.382 68.604 131.12 67.9357C129.858 67.2675 128.304 69.5297 128.304 69.5297C128.265 69.5588 128.144 69.53 127.984 69.4714C127.37 69.2463 127.082 68.5536 127.332 67.9492C127.384 67.8235 127.429 67.6992 127.467 67.5824C127.633 67.0768 127.695 66.5072 127.595 65.981C127.388 64.8959 126.616 64.0107 126.74 62.8489C126.834 61.9594 127.132 61.0444 127.545 60.25C121.088 61.5415 117.214 57.8824 118.075 54.8692C118.936 51.856 120.981 54.5464 125.501 52.8243C130.02 51.1025 133.264 58.4452 133.264 58.4452C137.784 61.5663 133.465 65.9537 133.465 65.9537L131.158 70.7327L131.194 70.6087Z" fill="#263238"/>
<path d="M137.98 101.35C138.147 107.049 140.104 116.082 140.104 116.082C140.1 116.086 140.093 116.089 140.09 116.093C140.068 116.107 140.043 116.125 140.022 116.142C139.859 116.26 139.695 116.373 139.532 116.487" stroke="#263238" stroke-width="0.5" stroke-miterlimit="10" stroke-linecap="round" stroke-linejoin="round"/>
<path d="M117.375 116.487C116.8 115.131 116.239 113.668 115.685 112.13C114.876 109.879 114.091 107.465 113.345 104.979" stroke="#263238" stroke-width="0.5" stroke-miterlimit="10" stroke-linecap="round" stroke-linejoin="round"/>
<path d="M129.375 78.512C129.375 78.512 138.559 81.7751 139.957 82.6426" stroke="#263238" stroke-width="0.5" stroke-miterlimit="10" stroke-linecap="round" stroke-linejoin="round"/>
<path d="M121.127 81.15C120.407 80.6206 120.001 79.2656 120.164 78.2657L120.39 75.9236" stroke="#263238" stroke-width="0.5" stroke-miterlimit="10" stroke-linecap="round" stroke-linejoin="round"/>
<path d="M128.503 72.2925C128.503 72.2925 128.042 73.8356 128.42 76.6035" stroke="#263238" stroke-width="0.5" stroke-miterlimit="10" stroke-linecap="round" stroke-linejoin="round"/>
<path d="M125.447 105.036L109.124 93.5588L105.553 96.7471C105.553 96.7471 120.091 112.943 125.829 115.493C125.829 115.493 137.279 103.151 140.977 97.0301C140.977 97.0301 144.714 90.9153 140.019 82.6409" stroke="#263238" stroke-width="0.5" stroke-miterlimit="10" stroke-linecap="round" stroke-linejoin="round"/>
<path d="M123.485 103.689L132.252 92.064" stroke="#263238" stroke-width="0.5" stroke-miterlimit="10" stroke-linecap="round" stroke-linejoin="round"/>
<path d="M123.758 103.874L129.241 104.129" stroke="#263238" stroke-width="0.5" stroke-miterlimit="10" stroke-linecap="round" stroke-linejoin="round"/>
<path d="M133.362 58.9399C133.362 58.9399 134.074 56.0943 132.295 53.9006" stroke="#263238" stroke-width="0.5" stroke-miterlimit="10" stroke-linecap="round"/>
<path d="M102.106 94.2278L98.7568 98.8804L82.8255 91.1379L81.3367 94.4135L97.268 107.963L109.555 101.188" stroke="#263238" stroke-width="0.5" stroke-miterlimit="10" stroke-linecap="round" stroke-linejoin="round"/>
<path d="M109.123 84.5332L117.58 80.322" stroke="#263238" stroke-width="0.5" stroke-miterlimit="10" stroke-linecap="round" stroke-linejoin="round"/>
<path d="M82.3867 91.9944L82.8441 87.7257L81.1319 84.5481C81.1319 84.5481 81.3776 82.3019 80.8858 82.315C80.394 82.3281 80.4206 87.7907 80.4206 87.7907C80.4206 87.7907 78.9719 88.8133 79.5067 91.0556" stroke="#263238" stroke-width="0.5" stroke-miterlimit="10" stroke-linecap="round" stroke-linejoin="round"/>
<path d="M76.7756 91.7739L81.3366 94.4136" stroke="#263238" stroke-width="0.5" stroke-miterlimit="10" stroke-linecap="round" stroke-linejoin="round"/>
<path d="M108.333 89.3713L109.193 90.8783L109.027 93.5602" stroke="#263238" stroke-width="0.5" stroke-miterlimit="10" stroke-linecap="round" stroke-linejoin="round"/>
<path d="M106.778 92.5935C106.778 92.3609 101.925 87.1267 101.925 87.1267L101.37 87.5652L103.361 91.4594L101.691 88.53L101.224 89.0853L101.66 91.2268L101.078 89.6698L100.288 90.0792L102.438 94.6551L105.5 96.6307" stroke="#263238" stroke-width="0.5" stroke-miterlimit="10" stroke-linecap="round" stroke-linejoin="round"/>
<path d="M128.458 76.6035C128.458 76.6035 124.655 79.6114 121.126 80.9685C121.126 80.9685 121.465 85.0405 122.347 85.3118C122.674 85.4123 123.172 85.0743 123.438 84.9301C124.067 84.5892 124.665 84.1891 125.256 83.7864C126.462 82.9633 127.635 82.0902 128.792 81.2004C129.018 81.0271 129.358 80.8616 129.374 80.5584C129.452 79.1324 129.534 77.7241 128.473 76.6191L128.458 76.6035Z" stroke="#263238" stroke-width="0.5" stroke-miterlimit="10" stroke-linecap="round" stroke-linejoin="round"/>
<path d="M121.126 80.9685C121.126 80.9685 120.156 84.3418 119.343 84.2253C118.53 84.1092 117.543 80.1025 117.543 80.1025C117.543 80.1025 118.472 76.9089 120.214 77.4316" stroke="#263238" stroke-width="0.5" stroke-miterlimit="10" stroke-linecap="round" stroke-linejoin="round"/>
<path d="M98.8126 98.7615C98.9578 99.9677 98.9635 101.191 98.8293 102.398" stroke="#263238" stroke-width="0.5" stroke-miterlimit="10" stroke-linecap="round" stroke-linejoin="round"/>
<path d="M110.59 91.0994L111.942 95.5009" stroke="#263238" stroke-width="0.5" stroke-miterlimit="10" stroke-linecap="round" stroke-linejoin="round"/>
<path d="M131.526 88.3586C130.49 90.3112 130.01 92.5553 130.158 94.7611" stroke="#263238" stroke-width="0.5" stroke-miterlimit="10" stroke-linecap="round" stroke-linejoin="round"/>
<path d="M129.19 90.8733C129.055 92.1665 129.1 93.4785 129.322 94.7596" stroke="#263238" stroke-width="0.5" stroke-miterlimit="10" stroke-linecap="round" stroke-linejoin="round"/>
<path d="M99.3778 99.2666C99.7542 99.9604 99.9946 100.727 100.082 101.512" stroke="#263238" stroke-width="0.5" stroke-miterlimit="10" stroke-linecap="round" stroke-linejoin="round"/>
<path d="M119.128 55.3708C119.24 55.9514 119.629 56.4513 120.105 56.8022C120.58 57.153 121.14 57.3706 121.702 57.5546C123.359 58.0964 125.1 58.3773 126.843 58.3837C127.225 58.3851 127.613 58.3745 127.98 58.4792C128.347 58.584 128.698 58.8282 128.822 59.189" stroke="white" stroke-width="0.5" stroke-miterlimit="10" stroke-linecap="round" stroke-linejoin="round"/>
<path d="M120.442 53.9922C120.672 54.9587 121.672 55.5748 122.655 55.7154C123.639 55.856 124.632 55.6312 125.616 55.4924C126.6 55.3536 127.656 55.3131 128.532 55.7814C129.409 56.2498 129.994 57.3853 129.55 58.2741" stroke="white" stroke-width="0.5" stroke-miterlimit="10" stroke-linecap="round" stroke-linejoin="round"/>
<path d="M110.59 116.487H117.375H117.51H139.532H139.546H152.155" stroke="#263238" stroke-width="0.5" stroke-miterlimit="10" stroke-linecap="round" stroke-linejoin="round"/>
<path d="M94.8159 116.486H107.367" stroke="#263238" stroke-width="0.5" stroke-miterlimit="10" stroke-linecap="round" stroke-linejoin="round"/>
<path d="M122.354 121.431H99.0331L90.131 126.24H114.568L122.354 121.431Z" stroke="#263238" stroke-width="0.5" stroke-miterlimit="10" stroke-linecap="round" stroke-linejoin="round"/>
<path d="M100.558 122.687H117.779" stroke="#263238" stroke-width="0.5" stroke-miterlimit="10" stroke-linecap="round" stroke-linejoin="round"/>
<path d="M99.3024 123.584H116.043" stroke="#263238" stroke-width="0.5" stroke-miterlimit="10" stroke-linecap="round" stroke-linejoin="round"/>
<path d="M98.0464 124.481H114.299" stroke="#263238" stroke-width="0.5" stroke-miterlimit="10" stroke-linecap="round" stroke-linejoin="round"/>
<path d="M117.869 122.687L112.938 125.109" stroke="#263238" stroke-width="0.5" stroke-miterlimit="10" stroke-linecap="round" stroke-linejoin="round"/>
<path d="M115.178 122.687L110.247 125.109" stroke="#263238" stroke-width="0.5" stroke-miterlimit="10" stroke-linecap="round" stroke-linejoin="round"/>
<path d="M85.9567 109.464H110.396L114.568 126.24H90.131L85.9567 109.464Z" fill="#263238"/>
<path d="M114.567 126.236H89.9122V127.429H114.567V126.236Z" stroke="#263238" stroke-width="0.5" stroke-miterlimit="10" stroke-linecap="round" stroke-linejoin="round"/>
<path d="M85.6875 109.464H110.127L114.299 126.24H89.859L85.6875 109.464Z" fill="white" stroke="#263238" stroke-width="0.5" stroke-miterlimit="10" stroke-linecap="round" stroke-linejoin="round"/>
<path d="M114.568 126.24L122.526 121.402L122.519 122.308L114.657 127.585L114.568 126.24Z" fill="#263238"/>
<path d="M101.055 117.34C101.164 118.053 100.674 118.72 99.9609 118.83C99.2476 118.939 98.5807 118.449 98.4714 117.736C98.3698 117.073 98.787 116.44 99.4368 116.273C100.178 116.122 100.902 116.599 101.055 117.34Z" stroke="#263238" stroke-width="0.5" stroke-miterlimit="10" stroke-linecap="round" stroke-linejoin="round"/>
</g>
<defs>
<clipPath id="clip0_496_2752">
<rect width="160" height="127" fill="white" transform="translate(0 0.5)"/>
</clipPath>
</defs>
</svg>
