<svg width="161" height="134" viewBox="0 0 161 134" fill="none" xmlns="http://www.w3.org/2000/svg">
<path d="M16.0752 131.168H150.26C152.463 128.535 165.275 111.866 159.533 86.5346C153.262 58.8692 149.573 58.5005 121.908 41.1634C94.2427 23.8266 84.6521 9.07153 52.9292 20.8755C21.2064 32.6795 20.0997 54.8118 21.5754 72.5176C23.0508 90.2234 2.76288 103.872 1.65653 114.938C0.767841 123.82 8.43606 129.609 16.0752 131.168Z" fill="#0088FF"/>
<path opacity="0.7" d="M16.0752 131.168H150.26C152.463 128.535 165.275 111.866 159.533 86.5346C153.262 58.8692 149.573 58.5005 121.908 41.1634C94.2427 23.8266 84.6521 9.07153 52.9292 20.8755C21.2064 32.6795 20.0997 54.8118 21.5754 72.5176C23.0508 90.2234 2.76288 103.872 1.65653 114.938C0.767841 123.82 8.43606 129.609 16.0752 131.168Z" fill="white"/>
<g opacity="0.5">
<path d="M25.752 36.4485C35.5408 36.4485 43.4762 28.5131 43.4762 18.7242C43.4762 8.93541 35.5408 1 25.752 1C15.9631 1 8.02771 8.93541 8.02771 18.7242C8.02771 28.5131 15.9631 36.4485 25.752 36.4485Z" stroke="black" stroke-width="0.5" stroke-miterlimit="10"/>
<path d="M25.752 34.6761C34.5619 34.6761 41.7038 27.5342 41.7038 18.7243C41.7038 9.91433 34.5619 2.77246 25.752 2.77246C16.942 2.77246 9.80017 9.91433 9.80017 18.7243C9.80017 27.5342 16.942 34.6761 25.752 34.6761Z" stroke="black" stroke-width="0.5" stroke-miterlimit="10"/>
<path d="M19.5453 22.7055L25.752 18.7243L19.0848 7.81396" stroke="black" stroke-width="0.5" stroke-miterlimit="10"/>
</g>
<g opacity="0.5">
<path d="M49.0295 63.3623H7.20032V130.951H49.0295V63.3623Z" stroke="black" stroke-width="0.5" stroke-miterlimit="10"/>
<path d="M47.3755 67.1433H8.85474V90.5393H47.3755V67.1433Z" stroke="black" stroke-width="0.5" stroke-miterlimit="10"/>
<path d="M30.3603 76.3599H24.4521V81.7952H30.3603V76.3599Z" stroke="black" stroke-width="0.5" stroke-miterlimit="10"/>
<path d="M47.3755 94.084H8.85474V117.48H47.3755V94.084Z" stroke="black" stroke-width="0.5" stroke-miterlimit="10"/>
<path d="M30.3603 103.301H24.4521V108.736H30.3603V103.301Z" stroke="black" stroke-width="0.5" stroke-miterlimit="10"/>
<path d="M47.3755 121.261H8.85474V130.715H47.3755V121.261Z" stroke="black" stroke-width="0.5" stroke-miterlimit="10"/>
</g>
<g opacity="0.5">
<path d="M20.1284 55.6895H9.29919L10.653 63.3435H18.7746L20.1284 55.6895Z" stroke="black" stroke-width="0.5" stroke-miterlimit="10"/>
<path d="M16.0911 44.0819C16.0911 45.6257 14.5665 47.2836 14.5665 47.2836C14.5665 47.2836 12.2286 45.6257 12.2286 44.0819C12.2286 42.5382 14.1599 40.4736 14.1599 40.4736C14.1599 40.4736 16.0911 42.5382 16.0911 44.0819Z" stroke="black" stroke-width="0.5" stroke-miterlimit="10"/>
<path d="M10.5888 48.3867C11.5785 49.5714 11.4708 51.8213 11.4708 51.8213C11.4708 51.8213 8.61361 52.0471 7.62424 50.8624C6.63487 49.6777 6.79368 46.855 6.79368 46.855C6.79368 46.855 9.59943 47.202 10.5888 48.3867Z" stroke="black" stroke-width="0.5" stroke-miterlimit="10"/>
<path d="M17.9823 45.1504C19.0571 44.0423 21.5796 44.3868 21.5796 44.3868C21.5796 44.3868 21.8295 46.7307 20.7551 47.8392C19.6803 48.9473 16.8568 49.0852 16.8568 49.0852C16.8568 49.0852 16.9079 46.2585 17.9823 45.1504Z" stroke="black" stroke-width="0.5" stroke-miterlimit="10"/>
<path d="M19.658 53.4536C18.2149 52.9055 17.2057 50.892 17.2057 50.892C17.2057 50.892 19.5853 49.2947 21.0288 49.8428C22.4719 50.3908 23.7169 52.9289 23.7169 52.9289C23.7169 52.9289 21.1011 54.0016 19.658 53.4536Z" stroke="black" stroke-width="0.5" stroke-miterlimit="10"/>
<path d="M14.4651 55.5671V43.5735" stroke="black" stroke-width="0.5" stroke-miterlimit="10"/>
<path d="M14.3634 51.3999L20.3602 46.2163" stroke="black" stroke-width="0.5" stroke-miterlimit="10"/>
<path d="M14.4651 54.1442L8.36658 49.3672" stroke="black" stroke-width="0.5" stroke-miterlimit="10"/>
<path d="M15.8881 50.2817L20.5634 52.1112" stroke="black" stroke-width="0.5" stroke-miterlimit="10"/>
</g>
<path opacity="0.5" d="M158.092 25.4307H76.7977V79.7151H158.092V25.4307Z" stroke="black" stroke-width="0.5" stroke-miterlimit="10"/>
<path opacity="0.5" d="M157.001 26.1587H77.8881V78.9865H157.001V26.1587Z" stroke="black" stroke-width="0.5" stroke-miterlimit="10"/>
<path opacity="0.3" d="M87.4652 34.0715C87.4652 34.0715 88.3312 38.7471 88.3312 40.1325C88.3312 41.5178 88.3312 44.9811 88.3312 44.9811C88.3312 44.9811 91.7945 45.1541 94.5655 44.9811C97.3362 44.8081 100.627 43.0761 100.627 43.0761C100.627 43.0761 99.4142 38.4004 99.4142 37.1885C99.4142 35.9765 98.7215 33.0325 98.7215 33.0325L87.4652 34.0715Z" fill="white" stroke="black" stroke-width="0.5" stroke-miterlimit="10"/>
<path opacity="0.3" d="M87.8116 63.1646C87.8116 63.1646 87.2919 67.1475 87.2919 68.8792C87.2919 70.6109 86.4259 73.3815 86.4259 73.3815C86.4259 73.3815 90.5819 74.9402 91.6209 74.9402C92.6599 74.9402 97.1625 74.5939 97.1625 74.5939L97.8552 64.3769C97.8552 64.3769 89.1969 63.5109 87.8116 63.1646Z" fill="white" stroke="black" stroke-width="0.5" stroke-miterlimit="10"/>
<path opacity="0.3" d="M107.033 41.6913L109.111 51.2156C109.111 51.2156 111.709 51.3886 114.48 51.3886C117.25 51.3886 121.926 48.7909 121.926 48.7909C121.926 48.7909 119.675 44.2886 119.675 43.0763C119.675 41.864 118.982 38.4006 118.982 38.4006C118.982 38.4006 111.882 40.652 110.843 40.825C109.804 40.9979 107.033 41.6913 107.033 41.6913Z" fill="white" stroke="black" stroke-width="0.5" stroke-miterlimit="10"/>
<path opacity="0.3" d="M122.619 39.0935C122.619 39.0935 122.099 45.3278 122.099 46.0205C122.099 46.7132 121.927 49.4838 121.927 49.4838C121.927 49.4838 125.39 50.0031 127.295 50.0031C129.2 50.0031 132.49 49.8301 132.49 49.8301C132.49 49.8301 132.316 43.7692 132.663 43.2495C133.009 42.7302 133.182 39.9592 133.182 39.9592C133.182 39.9592 123.312 39.2668 122.619 39.0935Z" fill="white" stroke="black" stroke-width="0.5" stroke-miterlimit="10"/>
<path opacity="0.3" d="M126.429 52.9471C126.429 52.9471 126.429 56.4104 126.429 57.103C126.429 57.7957 126.083 62.8177 126.083 62.8177C126.083 62.8177 130.585 62.991 132.317 62.8177C134.049 62.6447 137.512 61.6054 137.512 61.6054L136.992 56.064L136.646 52.2544C136.646 52.2544 128.334 53.4667 126.429 52.9471Z" fill="white" stroke="black" stroke-width="0.5" stroke-miterlimit="10"/>
<path opacity="0.3" d="M152.578 29.5694L148.595 29.7427H146.517C146.517 29.7427 146.517 31.8207 146.517 32.6867C146.517 33.5527 146.344 36.3234 146.344 36.8427C146.344 37.362 149.114 37.7087 150.327 37.7087C151.539 37.7087 154.656 37.7087 154.656 37.7087L154.829 29.2234L152.578 29.5694Z" fill="white" stroke="black" stroke-width="0.5" stroke-miterlimit="10"/>
<g opacity="0.5">
<path d="M142.534 48.2715H149.98" stroke="black" stroke-width="0.5" stroke-miterlimit="10"/>
<path d="M142.534 50.0037H149.98" stroke="black" stroke-width="0.5" stroke-miterlimit="10"/>
<path d="M142.534 51.7351H149.98" stroke="black" stroke-width="0.5" stroke-miterlimit="10"/>
<path d="M142.534 53.4668H149.98" stroke="black" stroke-width="0.5" stroke-miterlimit="10"/>
</g>
<g opacity="0.5">
<path d="M104.09 28.5303H128.68" stroke="black" stroke-width="0.5" stroke-miterlimit="10"/>
<path d="M104.09 30.262H128.68" stroke="black" stroke-width="0.5" stroke-miterlimit="10"/>
</g>
<g opacity="0.5">
<path d="M129.199 66.2815H136.646" stroke="black" stroke-width="0.5" stroke-miterlimit="10"/>
<path d="M129.199 68.0132H136.646" stroke="black" stroke-width="0.5" stroke-miterlimit="10"/>
<path d="M129.199 69.7449H136.646" stroke="black" stroke-width="0.5" stroke-miterlimit="10"/>
<path d="M129.199 71.4768H136.646" stroke="black" stroke-width="0.5" stroke-miterlimit="10"/>
</g>
<g opacity="0.5">
<path d="M82.9629 54.8523H90.4092" stroke="black" stroke-width="0.5" stroke-miterlimit="10"/>
<path d="M82.9629 56.584H90.4092" stroke="black" stroke-width="0.5" stroke-miterlimit="10"/>
<path d="M82.9629 58.3157H90.4092" stroke="black" stroke-width="0.5" stroke-miterlimit="10"/>
<path d="M82.9629 60.0476H90.4092" stroke="black" stroke-width="0.5" stroke-miterlimit="10"/>
</g>
<g opacity="0.5">
<path d="M135.434 33.0325H142.88" stroke="black" stroke-width="0.5" stroke-miterlimit="10"/>
<path d="M135.434 34.7642H142.88" stroke="black" stroke-width="0.5" stroke-miterlimit="10"/>
<path d="M135.434 36.4958H142.88" stroke="black" stroke-width="0.5" stroke-miterlimit="10"/>
<path d="M135.434 38.2278H142.88" stroke="black" stroke-width="0.5" stroke-miterlimit="10"/>
</g>
<path opacity="0.5" d="M108.168 49.5692L103.9 50.7887L104.998 51.7408C103.001 53.0549 98.7715 55.3069 96.0034 53.0202C92.2923 49.9546 93.2912 47.3037 93.3355 47.1924L93.0069 47.0591L92.679 46.9241C92.6255 47.0542 91.4149 50.1492 95.5517 53.5664C96.5666 54.4048 97.7254 54.7242 98.9016 54.7242C101.485 54.7242 104.152 53.1843 105.56 52.2272L106.948 53.4306L108.168 49.5692Z" fill="black"/>
<path opacity="0.5" d="M151.277 42.2804L150.043 38.1687L147.782 41.458L149.037 41.7533L147.733 46.4452L148.417 46.6349L149.728 41.916L151.277 42.2804Z" fill="black"/>
<path opacity="0.3" d="M94.5652 34.5912C94.5652 34.0173 94.1001 33.5522 93.5262 33.5522C92.9523 33.5522 92.4872 34.0173 92.4872 34.5912C92.4872 35.1652 92.9523 35.6302 93.5262 35.6302C94.1001 35.6302 94.5652 35.1652 94.5652 34.5912Z" fill="white" stroke="black" stroke-width="0.5" stroke-miterlimit="10"/>
<path opacity="0.3" d="M113.614 41.1716C113.614 40.5977 113.149 40.1326 112.575 40.1326C112.001 40.1326 111.536 40.5977 111.536 41.1716C111.536 41.7455 112.001 42.2106 112.575 42.2106C113.149 42.2106 113.614 41.7455 113.614 41.1716Z" fill="#0088FF" stroke="black" stroke-width="0.5" stroke-miterlimit="10"/>
<path opacity="0.3" d="M128.334 40.6522C128.908 40.6522 129.373 40.187 129.373 39.6132C129.373 39.0394 128.908 38.5742 128.334 38.5742C127.76 38.5742 127.295 39.0394 127.295 39.6132C127.295 40.187 127.76 40.6522 128.334 40.6522Z" fill="white" stroke="black" stroke-width="0.5" stroke-miterlimit="10"/>
<path opacity="0.3" d="M131.797 55.0253C132.371 55.0253 132.836 54.5601 132.836 53.9863C132.836 53.4124 132.371 52.9473 131.797 52.9473C131.223 52.9473 130.758 53.4124 130.758 53.9863C130.758 54.5601 131.223 55.0253 131.797 55.0253Z" fill="white" stroke="black" stroke-width="0.5" stroke-miterlimit="10"/>
<path opacity="0.3" d="M94.5652 65.069C94.5652 64.4951 94.1001 64.03 93.5262 64.03C92.9523 64.03 92.4872 64.4951 92.4872 65.069C92.4872 65.6429 92.9523 66.108 93.5262 66.108C94.1001 66.108 94.5652 65.6429 94.5652 65.069Z" fill="#0088FF" stroke="black" stroke-width="0.5" stroke-miterlimit="10"/>
<path opacity="0.3" d="M151.712 29.5693C151.712 28.9954 151.247 28.5303 150.673 28.5303C150.099 28.5303 149.634 28.9954 149.634 29.5693C149.634 30.1432 150.099 30.6083 150.673 30.6083C151.247 30.6083 151.712 30.1432 151.712 29.5693Z" fill="#0088FF" stroke="black" stroke-width="0.5" stroke-miterlimit="10"/>
<path d="M118.066 124.511V123.415L118.909 123.238L118.066 123.027V122.725L118.83 122.368L118.066 122.139V117.642H117.138V116.716L117.566 116.68L117.138 116.477V116.128L118.198 116.285L117.487 115.416L117.138 114.892V114.697L118.277 114.625C118.277 114.625 117.632 114.231 117.138 113.877V110.123H118.277C118.277 110.123 117.646 109.825 117.138 109.572V108.176H91.1507V110.451L89.9941 110.914L91.1507 111.428V111.693C90.7916 111.9 90.1834 112.273 90.0731 112.494C89.915 112.809 89.5992 113.52 89.5992 113.52C89.5992 113.52 90.3893 113.362 90.6261 113.283C90.8225 113.218 91.071 113.314 91.1507 113.35V113.391L90.2312 114.31L91.1507 114.713V117.828H93.1926V118.047C93.0483 118.083 92.8948 118.127 92.759 118.182C92.3641 118.34 91.4159 118.972 91.4159 118.972L92.6009 118.893L92.0479 119.762L93.1926 119.834V124.14H90.5938V125.708C90.4382 125.74 90.256 125.802 90.0731 125.924C89.9182 126.027 89.7385 126.198 89.5658 126.38C89.2103 126.758 88.8881 127.188 88.8881 127.188L90.2312 126.793L89.5201 127.741L90.0731 127.899L89.5992 128.61L90.5942 128.681V130.265H116.581V129.205C117.158 129.228 117.487 129.242 117.487 129.242L117.171 129.084L117.961 128.847L117.171 128.056L116.934 127.109C116.934 127.109 116.789 127.086 116.581 127.049V124.51H118.066V124.511Z" fill="#B5B5B5"/>
<path d="M92.285 110.597H108.086" stroke="#263238" stroke-width="0.5" stroke-miterlimit="10"/>
<path d="M92.4431 111.941H101.45" stroke="#263238" stroke-width="0.5" stroke-miterlimit="10"/>
<path d="M115.038 113.836H99.2375" stroke="#263238" stroke-width="0.5" stroke-miterlimit="10"/>
<path d="M93.9443 117.865H115.275" stroke="#263238" stroke-width="0.5" stroke-miterlimit="10"/>
<path d="M93.5492 115.1H109.034" stroke="#263238" stroke-width="0.5" stroke-miterlimit="10"/>
<path d="M115.67 119.446H104.294" stroke="#263238" stroke-width="0.5" stroke-miterlimit="10"/>
<path d="M115.196 121.579H94.3394" stroke="#263238" stroke-width="0.5" stroke-miterlimit="10"/>
<path d="M98.4474 123.396H110.772" stroke="#263238" stroke-width="0.5" stroke-miterlimit="10"/>
<path d="M115.828 124.502H95.2871" stroke="#263238" stroke-width="0.5" stroke-miterlimit="10"/>
<path d="M92.2059 127.425H107.058" stroke="#263238" stroke-width="0.5" stroke-miterlimit="10"/>
<path d="M105.637 125.924H94.7343" stroke="#263238" stroke-width="0.5" stroke-miterlimit="10"/>
<path d="M96.3932 128.294H112.194" stroke="#263238" stroke-width="0.5" stroke-miterlimit="10"/>
<path d="M114.564 125.766H110.298" stroke="#263238" stroke-width="0.5" stroke-miterlimit="10"/>
<path d="M125.156 102.403V101.307L125.999 101.13L125.156 100.919V100.617L125.92 100.26L125.156 100.031V95.534H124.228V94.6074L124.656 94.5716L124.228 94.3688V94.0196L125.288 94.1767L124.577 93.3075L124.228 92.7839V92.5886L125.367 92.5174C125.367 92.5174 124.722 92.1228 124.228 91.7687V88.0143H125.367C125.367 88.0143 124.736 87.7155 124.228 87.4624V86.0671H98.2405V88.3419L97.0838 88.8045L98.2405 89.3185V89.5843C97.8814 89.7906 97.2731 90.1639 97.1628 90.3844C97.0047 90.7003 96.6889 91.4114 96.6889 91.4114C96.6889 91.4114 97.479 91.2533 97.7158 91.1742C97.9122 91.1086 98.1607 91.205 98.2405 91.2405V91.2816L97.3209 92.2015L98.2405 92.6038V95.7194H100.282V95.9385C100.138 95.9743 99.9845 96.0182 99.8488 96.0725C99.4539 96.2306 98.5056 96.8626 98.5056 96.8626L99.6907 96.7836L99.1377 97.6528L100.282 97.7244V102.031H97.6836V103.599C97.5279 103.63 97.3457 103.693 97.1628 103.815C97.0079 103.918 96.8282 104.088 96.6556 104.271C96.3 104.649 95.9778 105.079 95.9778 105.079L97.3209 104.684L96.6098 105.632L97.1628 105.79L96.6889 106.501L97.6839 106.572V108.156H123.671V107.096C124.248 107.119 124.577 107.133 124.577 107.133L124.261 106.975L125.051 106.738L124.261 105.947L124.024 104.999C124.024 104.999 123.878 104.976 123.671 104.94V102.401H125.156V102.403Z" fill="#B5B5B5"/>
<path d="M99.3749 88.4893H115.176" stroke="#263238" stroke-width="0.5" stroke-miterlimit="10"/>
<path d="M99.5328 89.8325H108.539" stroke="#263238" stroke-width="0.5" stroke-miterlimit="10"/>
<path d="M122.128 91.7283H106.327" stroke="#263238" stroke-width="0.5" stroke-miterlimit="10"/>
<path d="M101.034 95.7578H122.364" stroke="#263238" stroke-width="0.5" stroke-miterlimit="10"/>
<path d="M100.639 92.9924H116.124" stroke="#263238" stroke-width="0.5" stroke-miterlimit="10"/>
<path d="M122.76 97.3376H111.383" stroke="#263238" stroke-width="0.5" stroke-miterlimit="10"/>
<path d="M122.286 99.4707H101.429" stroke="#263238" stroke-width="0.5" stroke-miterlimit="10"/>
<path d="M105.537 101.288H117.861" stroke="#263238" stroke-width="0.5" stroke-miterlimit="10"/>
<path d="M122.917 102.394H102.377" stroke="#263238" stroke-width="0.5" stroke-miterlimit="10"/>
<path d="M99.2957 105.317H114.148" stroke="#263238" stroke-width="0.5" stroke-miterlimit="10"/>
<path d="M112.727 103.816H101.824" stroke="#263238" stroke-width="0.5" stroke-miterlimit="10"/>
<path d="M103.483 106.186H119.284" stroke="#263238" stroke-width="0.5" stroke-miterlimit="10"/>
<path d="M121.654 103.658H117.388" stroke="#263238" stroke-width="0.5" stroke-miterlimit="10"/>
<path d="M141.793 124.511V123.415L142.636 123.238L141.793 123.027V122.725L142.557 122.368L141.793 122.139V117.642H140.865V116.716L141.293 116.68L140.865 116.477V116.128L141.925 116.285L141.214 115.416L140.865 114.892V114.697L142.004 114.625C142.004 114.625 141.359 114.231 140.865 113.877V110.123H142.004C142.004 110.123 141.373 109.825 140.865 109.572V108.176H114.878V110.451L113.721 110.914L114.878 111.428V111.693C114.519 111.9 113.91 112.273 113.8 112.494C113.642 112.809 113.326 113.52 113.326 113.52C113.326 113.52 114.116 113.362 114.353 113.283C114.55 113.218 114.798 113.314 114.878 113.35V113.391L113.958 114.31L114.878 114.713V117.828H116.92V118.047C116.775 118.083 116.622 118.127 116.486 118.182C116.091 118.34 115.143 118.972 115.143 118.972L116.328 118.893L115.775 119.762L116.92 119.834V124.14H114.321V125.708C114.165 125.74 113.983 125.802 113.8 125.924C113.645 126.027 113.466 126.198 113.293 126.38C112.937 126.758 112.615 127.188 112.615 127.188L113.958 126.793L113.247 127.741L113.8 127.899L113.326 128.61L114.321 128.681V130.265H140.309V129.205C140.885 129.228 141.214 129.242 141.214 129.242L140.898 129.084L141.688 128.847L140.898 128.056L140.661 127.109C140.661 127.109 140.516 127.086 140.308 127.049V124.51H141.793V124.511Z" fill="#B5B5B5" stroke="#263238" stroke-width="0.5" stroke-miterlimit="10"/>
<path d="M116.012 110.597H131.813" stroke="#263238" stroke-width="0.5" stroke-miterlimit="10"/>
<path d="M116.17 111.941H125.176" stroke="#263238" stroke-width="0.5" stroke-miterlimit="10"/>
<path d="M138.765 113.836H122.964" stroke="#263238" stroke-width="0.5" stroke-miterlimit="10"/>
<path d="M117.671 117.865H139.002" stroke="#263238" stroke-width="0.5" stroke-miterlimit="10"/>
<path d="M117.276 115.1H132.76" stroke="#263238" stroke-width="0.5" stroke-miterlimit="10"/>
<path d="M139.397 119.446H128.021" stroke="#263238" stroke-width="0.5" stroke-miterlimit="10"/>
<path d="M138.923 121.579H118.066" stroke="#263238" stroke-width="0.5" stroke-miterlimit="10"/>
<path d="M122.175 123.396H134.499" stroke="#263238" stroke-width="0.5" stroke-miterlimit="10"/>
<path d="M139.555 124.502H119.014" stroke="#263238" stroke-width="0.5" stroke-miterlimit="10"/>
<path d="M115.933 127.425H130.786" stroke="#263238" stroke-width="0.5" stroke-miterlimit="10"/>
<path d="M129.363 125.924H118.461" stroke="#263238" stroke-width="0.5" stroke-miterlimit="10"/>
<path d="M120.12 128.294H135.921" stroke="#263238" stroke-width="0.5" stroke-miterlimit="10"/>
<path d="M138.291 125.766H134.025" stroke="#263238" stroke-width="0.5" stroke-miterlimit="10"/>
<path d="M148.316 124.511V123.415L149.159 123.238L148.316 123.027V122.725L149.08 122.368L148.316 122.139V117.642H147.388V116.716L147.816 116.68L147.388 116.477V116.128L148.448 116.285L147.736 115.416L147.388 114.892V114.697L148.527 114.625C148.527 114.625 147.881 114.231 147.388 113.877V110.123H148.527C148.527 110.123 147.896 109.825 147.388 109.572V108.176H121.4V110.451L120.244 110.914L121.4 111.428V111.693C121.041 111.9 120.433 112.273 120.323 112.494C120.165 112.809 119.849 113.52 119.849 113.52C119.849 113.52 120.639 113.362 120.876 113.283C121.072 113.218 121.32 113.314 121.4 113.35V113.391L120.481 114.31L121.4 114.713V117.828H123.442V118.047C123.298 118.083 123.144 118.127 123.009 118.182C122.614 118.34 121.666 118.972 121.666 118.972L122.851 118.893L122.298 119.762L123.442 119.834V124.14H120.843V125.708C120.688 125.74 120.506 125.802 120.323 125.924C120.168 126.027 119.988 126.198 119.815 126.38C119.46 126.758 119.137 127.188 119.137 127.188L120.48 126.793L119.769 127.741L120.322 127.899L119.848 128.61L120.843 128.681V130.265H146.83V129.205C147.407 129.228 147.736 129.242 147.736 129.242L147.42 129.084L148.21 128.847L147.42 128.056L147.183 127.109C147.183 127.109 147.037 127.086 146.83 127.049V124.51H148.316V124.511Z" fill="white" stroke="#263238" stroke-width="0.5" stroke-miterlimit="10"/>
<path d="M122.535 110.597H138.335" stroke="#263238" stroke-width="0.5" stroke-miterlimit="10"/>
<path d="M122.693 111.941H131.699" stroke="#263238" stroke-width="0.5" stroke-miterlimit="10"/>
<path d="M145.287 113.836H129.487" stroke="#263238" stroke-width="0.5" stroke-miterlimit="10"/>
<path d="M124.194 117.865H145.524" stroke="#263238" stroke-width="0.5" stroke-miterlimit="10"/>
<path d="M123.799 115.1H139.283" stroke="#263238" stroke-width="0.5" stroke-miterlimit="10"/>
<path d="M145.919 119.446H134.543" stroke="#263238" stroke-width="0.5" stroke-miterlimit="10"/>
<path d="M145.445 121.579H124.589" stroke="#263238" stroke-width="0.5" stroke-miterlimit="10"/>
<path d="M128.697 123.396H141.021" stroke="#263238" stroke-width="0.5" stroke-miterlimit="10"/>
<path d="M146.077 124.502H125.537" stroke="#263238" stroke-width="0.5" stroke-miterlimit="10"/>
<path d="M122.456 127.425H137.308" stroke="#263238" stroke-width="0.5" stroke-miterlimit="10"/>
<path d="M135.886 125.924H124.984" stroke="#263238" stroke-width="0.5" stroke-miterlimit="10"/>
<path d="M126.643 128.294H142.443" stroke="#263238" stroke-width="0.5" stroke-miterlimit="10"/>
<path d="M144.813 125.766H140.547" stroke="#263238" stroke-width="0.5" stroke-miterlimit="10"/>
<path d="M148.316 102.769V101.673L149.159 101.496L148.316 101.285V100.983L149.08 100.627L148.316 100.397V95.9002H147.388V94.9736L147.816 94.9378L147.388 94.735V94.3855L148.448 94.5425L147.736 93.6733L147.388 93.1498V92.9544L148.527 92.8832C148.527 92.8832 147.881 92.4886 147.388 92.1345V88.3798H148.527C148.527 88.3798 147.896 88.081 147.388 87.8279V86.4326H121.4V88.7073L120.244 89.1699L121.4 89.684V89.9498C121.041 90.1561 120.433 90.5294 120.323 90.7499C120.165 91.0661 119.849 91.7768 119.849 91.7768C119.849 91.7768 120.639 91.6187 120.876 91.5397C121.072 91.4741 121.32 91.5705 121.4 91.606V91.6471L120.481 92.5666L121.4 92.969V96.0845H123.442V96.3036C123.298 96.3391 123.144 96.3834 123.009 96.4376C122.614 96.5957 121.666 97.2277 121.666 97.2277L122.851 97.1487L122.298 98.0179L123.442 98.0895V102.396H120.843V103.964C120.688 103.996 120.506 104.058 120.323 104.18C120.168 104.283 119.988 104.454 119.815 104.637C119.46 105.014 119.137 105.444 119.137 105.444L120.48 105.049L119.769 105.997L120.322 106.155L119.848 106.867L120.843 106.937V108.522H146.83V107.462C147.407 107.485 147.736 107.499 147.736 107.499L147.42 107.34L148.21 107.103L147.42 106.313L147.183 105.365C147.183 105.365 147.037 105.342 146.83 105.306V102.767H148.316V102.769Z" fill="white" stroke="#263238" stroke-width="0.5" stroke-miterlimit="10"/>
<path d="M122.535 88.856H138.335" stroke="#263238" stroke-width="0.5" stroke-miterlimit="10"/>
<path d="M122.693 90.1987H131.699" stroke="#263238" stroke-width="0.5" stroke-miterlimit="10"/>
<path d="M145.287 92.0947H129.487" stroke="#263238" stroke-width="0.5" stroke-miterlimit="10"/>
<path d="M124.194 96.1238H145.524" stroke="#263238" stroke-width="0.5" stroke-miterlimit="10"/>
<path d="M123.799 93.3589H139.283" stroke="#263238" stroke-width="0.5" stroke-miterlimit="10"/>
<path d="M145.919 97.7041H134.543" stroke="#263238" stroke-width="0.5" stroke-miterlimit="10"/>
<path d="M145.445 99.8372H124.589" stroke="#263238" stroke-width="0.5" stroke-miterlimit="10"/>
<path d="M128.697 101.654H141.021" stroke="#263238" stroke-width="0.5" stroke-miterlimit="10"/>
<path d="M146.077 102.76H125.537" stroke="#263238" stroke-width="0.5" stroke-miterlimit="10"/>
<path d="M122.456 105.683H137.308" stroke="#263238" stroke-width="0.5" stroke-miterlimit="10"/>
<path d="M135.886 104.182H124.984" stroke="#263238" stroke-width="0.5" stroke-miterlimit="10"/>
<path d="M126.643 106.552H142.443" stroke="#263238" stroke-width="0.5" stroke-miterlimit="10"/>
<path d="M144.813 104.024H140.547" stroke="#263238" stroke-width="0.5" stroke-miterlimit="10"/>
<path d="M101.775 129.881H71.4677V128.264L101.775 126.648V129.881Z" fill="white" stroke="#263238" stroke-width="0.5" stroke-miterlimit="10"/>
<path d="M119.062 123.87L111.251 104.538L109.93 105.072V105.386L117.631 124.448C117.774 124.801 117.846 125.172 117.846 125.553C117.846 127.18 116.523 128.503 114.896 128.503H104.676V130.046H114.896C117.373 130.046 119.389 128.031 119.389 125.553C119.389 124.973 119.279 124.407 119.062 123.87Z" fill="white" stroke="#263238" stroke-width="0.5" stroke-miterlimit="10"/>
<path d="M115.068 77.8596L112.661 77.5691L107.215 122.702L109.622 122.993L115.068 77.8596Z" fill="white" stroke="#263238" stroke-width="0.5" stroke-miterlimit="10"/>
<path d="M104.934 129.92H91.8083V128.374C91.8083 126.704 93.0724 125.306 94.7339 125.138L101.352 124.467C103.269 124.273 104.934 125.778 104.934 127.704V129.92Z" fill="white" stroke="#263238" stroke-width="0.5" stroke-miterlimit="10"/>
<path d="M46.6724 66.2418C46.6724 66.2418 43.877 59.474 41.2286 58.8855C38.5803 58.2971 27.3987 63.8877 30.4884 69.0373C33.5781 74.1869 36.8149 73.8923 39.7575 72.5683C42.7001 71.244 46.6724 66.2418 46.6724 66.2418Z" fill="#263238" stroke="#263238" stroke-width="0.5" stroke-miterlimit="10"/>
<path d="M34.6079 61.3865C34.6079 61.3865 31.6653 60.3567 30.1942 60.3567C28.7231 60.3567 28.4288 65.0646 28.4288 65.0646C28.4288 65.0646 29.4586 60.5038 34.6079 61.3865Z" fill="#263238" stroke="#263238" stroke-width="0.5" stroke-miterlimit="10"/>
<path d="M66.3871 71.391C66.3871 71.391 68.0053 73.598 68.447 75.5104C68.8884 77.4232 67.7115 79.4828 68.1528 81.1014C68.5941 82.7196 70.654 84.1911 70.5069 85.2208C70.3598 86.2506 67.4172 87.8692 67.4172 87.8692C67.4172 87.8692 64.916 93.9015 63.8862 94.3428C62.8564 94.7841 59.3254 93.7543 57.7068 93.0188C56.0886 92.2832 54.0287 92.4304 54.0287 92.4304L44.4654 87.5753C44.4654 87.5753 45.4952 85.6625 44.3183 82.8674C43.1414 80.0723 42.553 75.364 49.7621 70.6561C56.9713 65.9475 66.3871 71.391 66.3871 71.391Z" fill="white" stroke="#263238" stroke-width="0.5" stroke-miterlimit="10"/>
<path d="M65.0631 87.5749C65.0631 87.5749 64.4746 86.5451 63.1503 86.9864" stroke="#263238" stroke-width="0.5" stroke-miterlimit="10"/>
<path d="M66.24 80.3655C66.24 81.0968 66.0096 81.6895 65.7249 81.6895C65.4406 81.6895 65.2098 81.0968 65.2098 80.3655C65.2098 79.6342 65.4403 79.0415 65.7249 79.0415C66.0096 79.0415 66.24 79.6346 66.24 80.3655Z" fill="#263238"/>
<path d="M64.7688 76.6873C64.7688 76.6873 65.7986 75.6575 66.8287 76.8344" stroke="#263238" stroke-width="0.5" stroke-miterlimit="10"/>
<path d="M65.8724 83.308C67.2943 83.308 68.447 81.4637 68.447 79.1886C68.447 76.9134 67.2943 75.0691 65.8724 75.0691C64.4504 75.0691 63.2977 76.9134 63.2977 79.1886C63.2977 81.4637 64.4504 83.308 65.8724 83.308Z" stroke="#263238" stroke-width="0.5" stroke-miterlimit="10"/>
<path d="M63.2974 79.1885L51.8217 80.3654" stroke="#263238" stroke-width="0.5" stroke-miterlimit="10"/>
<path d="M49.4675 83.161C49.4675 83.161 46.672 86.2507 45.0538 86.2507C43.4356 86.2507 40.3459 84.1911 38.8744 81.9841C37.403 79.7771 40.3455 74.1865 41.9641 70.9497C43.5827 67.7129 46.5249 62.2691 52.5572 61.0922C58.5894 59.9153 60.9432 60.3566 66.0928 63.005C71.2421 65.6533 70.6536 69.4786 69.771 70.6555C68.8883 71.8324 67.5639 72.8625 67.5639 72.8625C67.5639 72.8625 70.8007 71.0972 71.9776 71.6856C73.1545 72.2741 73.1545 73.0096 73.1545 73.0096C73.1545 73.0096 69.4764 73.1567 69.0351 73.1567C68.5937 73.1567 67.1223 73.8923 67.1223 73.8923C67.1223 73.8923 64.0326 74.6278 62.4143 74.1865C60.7961 73.7452 58.5891 72.1266 58.442 73.8923C58.2949 75.6576 56.0879 78.7473 55.2052 79.0415C54.3225 79.3358 52.9982 79.4829 51.8213 80.3655C50.6447 81.2486 49.4675 83.161 49.4675 83.161Z" fill="#263238" stroke="#263238" stroke-width="0.5" stroke-miterlimit="10"/>
<path d="M52.8514 81.8369C52.8514 81.8369 50.7915 77.5704 48.7319 79.3357C46.6724 81.101 48.879 85.6622 49.7617 86.1035C50.6444 86.5448 52.4101 85.368 52.4101 85.368C52.4101 85.368 52.5572 87.2808 53.1456 88.1634" fill="white"/>
<path d="M52.8514 81.8369C52.8514 81.8369 50.7915 77.5704 48.7319 79.3357C46.6724 81.101 48.879 85.6622 49.7617 86.1035C50.6444 86.5448 52.4101 85.368 52.4101 85.368C52.4101 85.368 52.5572 87.2808 53.1456 88.1634" stroke="#263238" stroke-width="0.5" stroke-miterlimit="10"/>
<path d="M41.0815 92.4301C41.0815 92.4301 43.5828 89.9289 43.5828 88.3106C43.5828 86.6924 44.4655 85.368 50.0564 88.0164C55.647 90.6648 57.5598 93.7544 56.3829 94.6371C55.206 95.5198 52.7047 96.4025 52.1163 96.9913C51.5279 97.5797 49.4679 100.375 49.4679 100.375C49.4679 100.375 45.9366 92.4301 41.0815 92.4301Z" fill="#0088FF" stroke="#263238" stroke-width="0.5" stroke-miterlimit="10"/>
<path d="M47.1755 87.1509C47.1755 87.1509 45.9298 87.4001 46.179 88.2718C46.4282 89.1434 46.179 89.8911 46.179 89.8911L45.4318 91.0119" stroke="#263238" stroke-width="0.5" stroke-miterlimit="10"/>
<path d="M50.0564 88.0166C50.0564 88.0166 48.67 89.5175 48.7948 90.0155C48.9192 90.5136 49.1684 91.2612 48.6704 91.5101C48.1723 91.7593 47.3003 92.0081 47.3003 92.0081" stroke="#263238" stroke-width="0.5" stroke-miterlimit="10"/>
<path d="M50.5374 93.791C50.2789 94.1703 50.0397 94.4989 50.0397 94.4989" stroke="#263238" stroke-width="0.5" stroke-miterlimit="10"/>
<path d="M52.6554 89.7664C52.6554 89.7664 52.9046 90.8872 52.4062 91.6345C51.9081 92.3818 51.2853 92.3817 51.1609 92.7554" stroke="#263238" stroke-width="0.5" stroke-miterlimit="10"/>
<path d="M55.3956 91.759C55.3956 91.759 54.8975 93.1291 54.5239 93.6272C54.1503 94.1252 52.7802 94.0008 52.531 94.6236C52.2818 95.2465 51.5345 95.8689 51.5345 95.8689" stroke="#263238" stroke-width="0.5" stroke-miterlimit="10"/>
<path d="M84.0214 115.151C82.926 114.713 79.8594 114.274 79.8594 114.274" stroke="#263238" stroke-width="0.5" stroke-miterlimit="10"/>
<path d="M78.5449 113.836C78.5449 113.836 80.9544 113.179 82.4879 113.836" stroke="#263238" stroke-width="0.5" stroke-miterlimit="10"/>
<path d="M83.5329 118.932C83.5329 118.932 84.8328 121.177 85.1872 121.886C85.5417 122.595 85.6598 122.949 85.3053 122.949C84.9508 122.949 83.6509 122.359 83.5329 121.65C83.4148 120.941 83.1784 120.586 83.1784 120.586C83.1784 120.586 83.8448 123.186 83.6509 123.304C82.8799 123.774 82.351 122.949 82.351 122.949L81.4056 120.114C81.4056 120.114 81.0511 121.532 80.9331 121.886C80.815 122.24 80.1061 121.295 80.1061 120.586C80.1061 119.877 80.2241 118.932 80.2241 118.932L79.5151 118.341C79.5151 118.341 80.5786 117.277 81.7601 117.277C82.9419 117.278 83.5329 118.932 83.5329 118.932Z" fill="white" stroke="#263238" stroke-width="0.5" stroke-miterlimit="10"/>
<path d="M65.3357 115.387C65.3357 115.387 65.5037 115.376 65.7983 115.356C67.8352 115.219 75.9267 114.678 76.4428 114.678C77.0337 114.678 80.4602 116.569 80.4602 116.569C80.4602 116.569 82.469 116.451 83.6505 116.687C84.832 116.923 85.8955 118.341 86.3684 118.814C86.8409 119.286 88.3772 119.877 87.5499 120.114C86.7229 120.35 86.3684 120.468 85.8955 120.35C85.423 120.232 83.5321 118.932 83.5321 118.932L80.4598 118.46C80.4598 118.46 77.6239 119.996 77.2695 120.114C76.915 120.232 77.742 121.059 78.5693 121.65C79.3964 122.241 80.6963 123.068 80.5782 124.013C80.4602 124.959 80.1057 124.84 79.1603 124.013C78.2149 123.186 77.2698 122.713 75.8519 121.768C74.4339 120.823 72.5435 119.05 72.189 118.696C71.8345 118.342 71.48 117.987 71.48 117.987C71.48 117.987 63.2088 120.705 60.3729 121.532C57.5371 122.359 54.2286 122.95 52.4562 123.186C50.6838 123.423 47.257 122.714 46.3119 122.005C45.3665 121.296 42.8851 119.051 42.8851 119.051L47.139 110.543C47.139 110.543 52.2198 115.27 54.2286 115.742C56.2375 116.214 65.3357 115.387 65.3357 115.387Z" fill="white" stroke="#263238" stroke-width="0.5" stroke-miterlimit="10"/>
<path d="M54.2286 115.742C52.2198 115.269 47.139 110.542 47.139 110.542L42.8851 119.05C42.8851 119.05 45.3665 121.295 46.3119 122.004C47.2573 122.713 50.6838 123.422 52.4562 123.186C54.0798 122.969 56.9911 122.455 59.6487 121.734C59.7129 121.19 59.7611 120.608 59.7824 119.995C59.8284 118.657 59.7845 117.14 59.7136 115.786C57.4325 115.904 55.1248 115.953 54.2286 115.742Z" fill="#0088FF" stroke="#263238" stroke-width="0.5" stroke-miterlimit="10"/>
<path d="M51.285 101.756C51.2521 99.3152 50.519 96.916 49.0755 94.9475C48.3563 93.9667 47.4573 93.0677 46.3783 92.5771C41.4662 90.3442 38.0121 91.9617 34.9025 96.1081C28.7231 104.347 24.4984 114.138 22.8383 118.177C19.3711 126.613 18.7189 129.653 18.7189 129.653H41.9646C41.9646 129.653 40.7877 126.71 40.7877 125.975C40.7877 125.239 41.9646 123.768 41.9646 123.768C41.9646 123.768 49.0266 121.266 50.3506 117.441C51.3247 114.627 51.3432 106.078 51.285 101.756Z" fill="#0088FF" stroke="#263238" stroke-width="0.5" stroke-miterlimit="10"/>
<path d="M85.5546 103.76C85.5546 103.76 88.8403 104.418 91.0306 105.294" stroke="#263238" stroke-width="0.5" stroke-miterlimit="10"/>
<path d="M89.0593 103.103C89.0593 103.103 91.2497 103.98 92.7832 105.294" stroke="#263238" stroke-width="0.5" stroke-miterlimit="10"/>
<path d="M36.2266 107.731C36.2266 107.731 43.4357 127.446 45.3485 128.034C47.261 128.623 49.1738 127.74 50.0564 127.152C50.9391 126.563 76.5389 108.467 76.5389 108.467C76.5389 108.467 81.0997 111.115 81.9824 111.115C82.8651 111.115 84.6308 113.764 85.0721 114.646C85.5134 115.529 85.9548 115.97 86.1019 115.088C86.249 114.205 85.0721 112.292 84.7779 111.704C84.4836 111.115 84.3365 110.674 84.3365 110.674C84.3365 110.674 85.3663 110.821 85.8076 111.115C86.249 111.409 87.7205 113.322 88.1618 113.911C88.6031 114.499 89.6329 115.088 89.6329 114.205C89.6329 113.322 88.0147 111.704 87.7201 110.968C87.4255 110.233 86.8374 109.938 86.8374 109.938C86.8374 109.938 89.6329 110.38 90.3685 110.674C91.104 110.968 91.5453 112.734 92.4284 112.881C93.311 113.028 91.987 111.116 91.6928 110.233C91.3986 109.35 87.7205 108.173 87.7205 108.173C87.7205 108.173 90.0746 107.879 90.8101 107.879C91.5457 107.879 93.1643 109.35 93.6056 109.35C94.0469 109.35 94.0469 108.909 92.8701 108.026C91.6932 107.143 89.6333 106.261 88.7506 106.261C87.8679 106.261 86.9853 106.113 86.1022 105.966C85.2196 105.819 78.5989 104.495 77.2748 104.495C75.9508 104.495 56.0887 113.764 56.0887 113.764L54.8023 112.621C54.7775 112.599 54.747 112.585 54.714 112.581L54.496 112.555C53.7519 112.465 53.0387 112.726 52.4169 113.145C52.311 113.216 52.2043 113.205 52.116 113.029C51.8218 112.44 49.909 100.67 48.8792 98.1691C47.8494 95.6679 44.6126 90.0773 39.0217 93.3141" fill="white"/>
<path d="M36.2266 107.731C36.2266 107.731 43.4357 127.446 45.3485 128.034C47.261 128.623 49.1738 127.74 50.0564 127.152C50.9391 126.563 76.5389 108.467 76.5389 108.467C76.5389 108.467 81.0997 111.115 81.9824 111.115C82.8651 111.115 84.6308 113.764 85.0721 114.646C85.5134 115.529 85.9548 115.97 86.1019 115.088C86.249 114.205 85.0721 112.292 84.7779 111.704C84.4836 111.115 84.3365 110.674 84.3365 110.674C84.3365 110.674 85.3663 110.821 85.8076 111.115C86.249 111.409 87.7205 113.322 88.1618 113.911C88.6031 114.499 89.6329 115.088 89.6329 114.205C89.6329 113.322 88.0147 111.704 87.7201 110.968C87.4255 110.233 86.8374 109.938 86.8374 109.938C86.8374 109.938 89.6329 110.38 90.3685 110.674C91.104 110.968 91.5453 112.734 92.4284 112.881C93.311 113.028 91.987 111.116 91.6928 110.233C91.3986 109.35 87.7205 108.173 87.7205 108.173C87.7205 108.173 90.0746 107.879 90.8101 107.879C91.5457 107.879 93.1643 109.35 93.6056 109.35C94.0469 109.35 94.0469 108.909 92.8701 108.026C91.6932 107.143 89.6332 106.261 88.7506 106.261C87.8679 106.261 86.9853 106.113 86.1022 105.966C85.2196 105.819 78.5988 104.495 77.2748 104.495C75.9508 104.495 56.0887 113.764 56.0887 113.764L54.8023 112.621C54.7775 112.599 54.747 112.585 54.714 112.581L54.496 112.555C53.7519 112.465 53.0387 112.726 52.4169 113.145C52.311 113.216 52.2043 113.205 52.116 113.029C51.8218 112.44 49.909 100.67 48.8792 98.1691C47.8494 95.6679 44.6126 90.0773 39.0217 93.3141" stroke="#263238" stroke-width="0.5" stroke-miterlimit="10"/>
<path d="M36.2266 107.731C36.2266 107.731 43.4357 127.446 45.3485 128.035C47.261 128.623 49.1738 127.74 50.0564 127.152C50.5219 126.842 57.8615 121.662 64.6956 116.835L62.1493 110.965C58.7296 112.531 56.0883 113.764 56.0883 113.764L54.8019 112.621C54.7771 112.599 54.7466 112.585 54.7137 112.581L54.4956 112.555C53.7516 112.465 53.0384 112.726 52.4166 113.144C52.3106 113.215 52.2039 113.205 52.1153 113.028C51.8211 112.44 49.9083 100.67 48.8785 98.1686C47.8487 95.6674 44.6119 90.0768 39.021 93.3136" fill="#0088FF"/>
<path d="M36.2266 107.731C36.2266 107.731 43.4357 127.446 45.3485 128.035C47.261 128.623 49.1738 127.74 50.0564 127.152C50.5219 126.842 57.8615 121.662 64.6956 116.835L62.1493 110.965C58.7296 112.531 56.0883 113.764 56.0883 113.764L54.8019 112.621C54.7771 112.599 54.7466 112.585 54.7137 112.581L54.4956 112.555C53.7516 112.465 53.0384 112.726 52.4166 113.144C52.3106 113.215 52.2039 113.205 52.1153 113.028C51.8211 112.44 49.9083 100.67 48.8785 98.1686C47.8487 95.6674 44.6119 90.0768 39.021 93.3136" stroke="#263238" stroke-width="0.5" stroke-miterlimit="10"/>
<path d="M52.1362 113.505C52.1362 113.505 50.4485 115.615 48.4438 117.303" stroke="#263238" stroke-width="0.5" stroke-miterlimit="10"/>
<path d="M51.2922 114.455C51.2922 114.455 48.8657 115.299 46.8615 115.827" stroke="#263238" stroke-width="0.5" stroke-miterlimit="10"/>
<path d="M18.7185 129.653L14.6742 94.0605C14.4669 92.2356 12.7933 90.9421 10.9748 91.2019C9.21268 91.4536 7.97836 93.0725 8.2024 94.8386L12.625 129.709L18.7185 129.653Z" fill="#263238" stroke="#263238" stroke-width="0.5" stroke-miterlimit="10"/>
<path d="M38.1979 120.307C38.1979 120.307 37.271 119.318 36.0349 119.997C34.7988 120.677 34.5513 123.459 35.1079 125.436C35.6641 127.414 38.1983 126.302 38.1983 126.302L38.1366 125.004C38.1366 125.004 36.0352 125.251 35.9115 124.139C35.7878 123.026 35.7261 121.605 36.9622 121.605C38.1983 121.605 38.5691 121.914 38.5691 121.914L38.1979 120.307Z" fill="white" stroke="#263238" stroke-width="0.5" stroke-miterlimit="10"/>
<path d="M47.8098 117.884H37.9938V129.631H47.8098V117.884Z" fill="white" stroke="#263238" stroke-width="0.5" stroke-miterlimit="10"/>
<path d="M153.484 129.567H1V133.009H153.484V129.567Z" fill="#263238" stroke="#263238" stroke-width="0.5" stroke-miterlimit="10"/>
</svg>
