<svg width="28" height="28" viewBox="0 0 28 28" fill="none" xmlns="http://www.w3.org/2000/svg">
<mask id="mask0_632_1289" style="mask-type:alpha" maskUnits="userSpaceOnUse" x="0" y="0" width="28" height="28">
<rect width="28" height="28" fill="#D9D9D9"/>
</mask>
<g mask="url(#mask0_632_1289)">
<path d="M11.9388 16.0613L4.05415 12.9597C3.84026 12.8755 3.68471 12.7476 3.58748 12.5759C3.49026 12.404 3.44165 12.2241 3.44165 12.0363C3.44165 11.8483 3.49191 11.6748 3.59244 11.5159C3.69278 11.3573 3.84989 11.2358 4.06378 11.1514L22.4971 4.24878C22.6916 4.16439 22.8796 4.14816 23.0612 4.20007C23.2426 4.25199 23.3982 4.3427 23.5279 4.4722C23.6574 4.60189 23.7481 4.75745 23.8 4.93886C23.8519 5.12048 23.8357 5.3085 23.7513 5.50295L16.8487 23.9363C16.7643 24.1502 16.6428 24.3073 16.4841 24.4076C16.3252 24.5081 16.1518 24.5584 15.9638 24.5584C15.7759 24.5584 15.5961 24.5098 15.4242 24.4126C15.2525 24.3154 15.1246 24.1598 15.0404 23.9459L11.9388 16.0613Z" fill="#0088FF"/>
</g>
</svg>
