<svg width="21" height="21" viewBox="0 0 21 21" fill="none" xmlns="http://www.w3.org/2000/svg">
<path d="M8.28333 11.962L0.729167 8.89948C0.476389 8.80226 0.291667 8.65156 0.175 8.4474C0.0583333 8.24323 0 8.0342 0 7.82031C0 7.60642 0.0631944 7.3974 0.189583 7.19323C0.315972 6.98906 0.505556 6.83837 0.758333 6.74115L18.6667 0.0911458C18.9 -0.00607639 19.1236 -0.0255208 19.3375 0.0328125C19.5514 0.0911458 19.7361 0.19809 19.8917 0.353646C20.0472 0.509201 20.1542 0.693924 20.2125 0.907812C20.2708 1.1217 20.2514 1.34531 20.1542 1.57865L13.5042 19.487C13.4069 19.7398 13.2563 19.9293 13.0521 20.0557C12.8479 20.1821 12.6389 20.2453 12.425 20.2453C12.2111 20.2453 12.0021 20.187 11.7979 20.0703C11.5938 19.9536 11.4431 19.7689 11.3458 19.5161L8.28333 11.962ZM12.3667 15.8703L17.0917 3.15365L4.375 7.87865L10.0917 10.1536L12.3667 15.8703Z" fill="white"/>
</svg>
