<svg width="28" height="28" viewBox="0 0 28 28" fill="none" xmlns="http://www.w3.org/2000/svg">
<g opacity="0.2">
<mask id="mask0_632_1296" style="mask-type:alpha" maskUnits="userSpaceOnUse" x="0" y="0" width="28" height="28">
<rect width="28" height="28" fill="#D9D9D9"/>
</mask>
<g mask="url(#mask0_632_1296)">
<path d="M5.44454 24.5C4.91954 24.5 4.46415 24.3072 4.07838 23.9216C3.69279 23.5358 3.5 23.0805 3.5 22.5555V5.44454C3.5 4.91954 3.69279 4.46415 4.07838 4.07838C4.46415 3.69279 4.91954 3.5 5.44454 3.5H22.5555C23.0805 3.5 23.5358 3.69279 23.9216 4.07838C24.3072 4.46415 24.5 4.91954 24.5 5.44454V22.5555C24.5 23.0805 24.3072 23.5358 23.9216 23.9216C23.5358 24.3072 23.0805 24.5 22.5555 24.5H5.44454ZM5.44454 22.5555H22.5555V18.7445H18.55C18.0186 19.5093 17.3494 20.099 16.5425 20.5138C15.7355 20.9287 14.888 21.1362 14 21.1362C13.112 21.1362 12.2645 20.9287 11.4575 20.5138C10.6506 20.099 9.98142 19.5093 9.45 18.7445H5.44454V22.5555ZM14.0003 19.1917C14.6612 19.1917 15.2704 19.0247 15.8279 18.6909C16.3852 18.3572 16.8291 17.9019 17.1596 17.325C17.2893 17.137 17.4579 17.0025 17.6654 16.9216C17.8727 16.8405 18.0898 16.8 18.3167 16.8H22.5555V5.44454H5.44454V16.8H9.68333C9.91025 16.8 10.1273 16.8405 10.3346 16.9216C10.5421 17.0025 10.7107 17.137 10.8404 17.325C11.1709 17.9019 11.6149 18.3572 12.1724 18.6909C12.7301 19.0247 13.3394 19.1917 14.0003 19.1917Z" fill="#1C1B1F"/>
</g>
</g>
</svg>
