<svg width="28" height="28" viewBox="0 0 28 28" fill="none" xmlns="http://www.w3.org/2000/svg">
<mask id="mask0_711_311" style="mask-type:alpha" maskUnits="userSpaceOnUse" x="0" y="0" width="28" height="28">
<rect width="28" height="28" fill="#D9D9D9"/>
</mask>
<g mask="url(#mask0_711_311)">
<path d="M5.44454 24.5C4.91954 24.5 4.46415 24.3072 4.07838 23.9216C3.69279 23.5358 3.5 23.0805 3.5 22.5555V5.44454C3.5 4.91954 3.69279 4.46415 4.07838 4.07838C4.46415 3.69279 4.91954 3.5 5.44454 3.5H22.5555C23.0805 3.5 23.5358 3.69279 23.9216 4.07838C24.3072 4.46415 24.5 4.91954 24.5 5.44454V22.5555C24.5 23.0805 24.3072 23.5358 23.9216 23.9216C23.5358 24.3072 23.0805 24.5 22.5555 24.5H5.44454ZM14 19.1917C14.6611 19.1917 15.2671 19.0215 15.818 18.6812C16.369 18.341 16.8162 17.8889 17.1596 17.325C17.2763 17.1241 17.4416 16.9864 17.6555 16.9117C17.8693 16.8372 18.0898 16.8 18.3167 16.8H22.5555V5.44454H5.44454V16.8H9.68333C9.91025 16.8 10.1307 16.8372 10.3445 16.9117C10.5584 16.9864 10.7237 17.1241 10.8404 17.325C11.1838 17.8889 11.631 18.341 12.182 18.6812C12.7329 19.0215 13.3389 19.1917 14 19.1917Z" fill="#0088FF"/>
</g>
</svg>
