<svg width="40" height="40" viewBox="0 0 40 40" fill="none" xmlns="http://www.w3.org/2000/svg">
<g clip-path="url(#clip0_711_681)">
<mask id="mask0_711_681" style="mask-type:alpha" maskUnits="userSpaceOnUse" x="-3" y="0" width="40" height="40">
<rect x="-3" width="40" height="40" fill="#D9D9D9"/>
</mask>
<g mask="url(#mask0_711_681)">
<path d="M14.5833 23.5278L10.6666 19.6112C10.398 19.3426 10.0646 19.2083 9.66659 19.2083C9.26853 19.2083 8.92589 19.3517 8.63867 19.6387C8.37034 19.9073 8.23617 20.2406 8.23617 20.6387C8.23617 21.037 8.37034 21.3703 8.63867 21.6387L13.6112 26.6387C13.8889 26.9164 14.213 27.0553 14.5833 27.0553C14.9535 27.0553 15.2776 26.9164 15.5553 26.6387L25.3333 16.8612C25.6202 16.5739 25.7637 16.2313 25.7637 15.8333C25.7637 15.4352 25.6202 15.0926 25.3333 14.8053C25.0463 14.537 24.6991 14.4074 24.2916 14.4166C23.8841 14.4258 23.5462 14.5646 23.2778 14.8333L14.5833 23.5278ZM16.9999 36.6666C14.713 36.6666 12.5556 36.2291 10.5278 35.3541C8.50006 34.4791 6.73145 33.287 5.222 31.7778C3.71284 30.2684 2.52075 28.4998 1.64575 26.472C0.770752 24.4442 0.333252 22.2869 0.333252 19.9999C0.333252 17.6944 0.770752 15.5277 1.64575 13.4999C2.52075 11.4721 3.71284 9.70825 5.222 8.20825C6.73145 6.70825 8.50006 5.52075 10.5278 4.64575C12.5556 3.77075 14.713 3.33325 16.9999 3.33325C19.3055 3.33325 21.4721 3.77075 23.4999 4.64575C25.5277 5.52075 27.2916 6.70825 28.7916 8.20825C30.2916 9.70825 31.4791 11.4721 32.3541 13.4999C33.2291 15.5277 33.6666 17.6944 33.6666 19.9999C33.6666 22.2869 33.2291 24.4442 32.3541 26.472C31.4791 28.4998 30.2916 30.2684 28.7916 31.7778C27.2916 33.287 25.5277 34.4791 23.4999 35.3541C21.4721 36.2291 19.3055 36.6666 16.9999 36.6666Z" fill="#0F9D58"/>
</g>
</g>
<defs>
<clipPath id="clip0_711_681">
<rect width="40" height="40" fill="white"/>
</clipPath>
</defs>
</svg>
