<svg width="28" height="28" viewBox="0 0 28 28" fill="none" xmlns="http://www.w3.org/2000/svg">
<g opacity="0.2">
<mask id="mask0_632_1304" style="mask-type:alpha" maskUnits="userSpaceOnUse" x="0" y="0" width="28" height="28">
<rect width="28" height="28" fill="#D9D9D9"/>
</mask>
<g mask="url(#mask0_632_1304)">
<path d="M6.59171 20.3583C7.73893 19.5352 8.91853 18.8984 10.1305 18.4478C11.3427 17.9973 12.6325 17.772 14 17.772C15.3676 17.772 16.6606 17.9973 17.8792 18.4478C19.0978 18.8984 20.2807 19.5352 21.4279 20.3583C22.2251 19.3925 22.8068 18.3845 23.173 17.3345C23.5391 16.2845 23.7222 15.173 23.7222 13.9999C23.7222 11.2583 22.7873 8.95243 20.9175 7.08246C19.0475 5.21268 16.7417 4.27779 14 4.27779C11.2584 4.27779 8.95256 5.21268 7.08258 7.08246C5.21281 8.95243 4.27792 11.2583 4.27792 13.9999C4.27792 15.173 4.46419 16.2845 4.83675 17.3345C5.2095 18.3845 5.79449 19.3925 6.59171 20.3583ZM13.9965 14.972C12.8647 14.972 11.9114 14.5836 11.1368 13.8068C10.3623 13.0298 9.97504 12.0754 9.97504 10.9435C9.97504 9.81168 10.3635 8.85852 11.1405 8.08404C11.9173 7.30938 12.8717 6.92204 14.0035 6.92204C15.1354 6.92204 16.0887 7.31054 16.8633 8.08754C17.6378 8.86454 18.025 9.81898 18.025 10.9508C18.025 12.0827 17.6365 13.0359 16.8595 13.8103C16.0827 14.5848 15.1284 14.972 13.9965 14.972ZM14.0091 25.6666C12.4022 25.6666 10.889 25.3603 9.46958 24.7478C8.05014 24.1353 6.81211 23.3009 5.7555 22.2445C4.69908 21.1879 3.86462 19.9514 3.25212 18.535C2.63962 17.1187 2.33337 15.6053 2.33337 13.9947C2.33337 12.3843 2.63962 10.8726 3.25212 9.45955C3.86462 8.04671 4.69908 6.81199 5.7555 5.75538C6.81211 4.69896 8.04858 3.8645 9.46492 3.252C10.8813 2.6395 12.3947 2.33325 14.0053 2.33325C15.6157 2.33325 17.1274 2.6395 18.5404 3.252C19.9533 3.8645 21.188 4.69896 22.2446 5.75538C23.301 6.81199 24.1355 8.04691 24.748 9.46013C25.3605 10.8735 25.6667 12.3838 25.6667 13.9909C25.6667 15.5978 25.3605 17.1109 24.748 18.5304C24.1355 19.9498 23.301 21.1879 22.2446 22.2445C21.188 23.3009 19.9531 24.1353 18.5398 24.7478C17.1264 25.3603 15.6162 25.6666 14.0091 25.6666ZM14 23.722C15.0565 23.722 16.0773 23.5681 17.0625 23.2603C18.0478 22.9525 18.9974 22.4453 19.9113 21.7387C18.9974 21.0842 18.0446 20.5835 17.0529 20.2366C16.0613 19.8899 15.0436 19.7166 14 19.7166C12.9565 19.7166 11.9388 19.8899 10.9472 20.2366C9.9555 20.5835 9.00272 21.0842 8.08883 21.7387C9.00272 22.4453 9.95229 22.9525 10.9375 23.2603C11.9228 23.5681 12.9436 23.722 14 23.722ZM14 13.0278C14.6092 13.0278 15.1083 12.8334 15.4972 12.4445C15.8861 12.0556 16.0805 11.5564 16.0805 10.947C16.0805 10.3379 15.8861 9.83881 15.4972 9.44992C15.1083 9.06103 14.6092 8.86659 14 8.86659C13.3908 8.86659 12.8918 9.06103 12.5029 9.44992C12.114 9.83881 11.9196 10.3379 11.9196 10.947C11.9196 11.5564 12.114 12.0556 12.5029 12.4445C12.8918 12.8334 13.3908 13.0278 14 13.0278Z" fill="#1C1B1F"/>
</g>
</g>
</svg>
