<svg width="28" height="28" viewBox="0 0 28 28" fill="none" xmlns="http://www.w3.org/2000/svg">
<mask id="mask0_711_180" style="mask-type:alpha" maskUnits="userSpaceOnUse" x="0" y="0" width="28" height="28">
<rect width="28" height="28" fill="#D9D9D9"/>
</mask>
<g mask="url(#mask0_711_180)">
<path d="M6.59159 20.3583C7.73881 19.5869 8.9152 18.9955 10.1208 18.584C11.3263 18.1724 12.6194 17.9666 13.9999 17.9666C15.3805 17.9666 16.6767 18.1724 17.8887 18.584C19.1009 18.9955 20.2806 19.5869 21.4278 20.3583C22.225 19.3925 22.8067 18.3845 23.1728 17.3345C23.539 16.2845 23.722 15.173 23.722 13.9999C23.722 11.2583 22.7872 8.95243 20.9174 7.08246C19.0474 5.21268 16.7416 4.27779 13.9999 4.27779C11.2583 4.27779 8.95243 5.21268 7.08246 7.08246C5.21268 8.95243 4.27779 11.2583 4.27779 13.9999C4.27779 15.173 4.46407 16.2845 4.83663 17.3345C5.20938 18.3845 5.79436 19.3925 6.59159 20.3583ZM13.9964 14.972C12.8646 14.972 11.9113 14.5836 11.1366 13.8068C10.3622 13.0298 9.97492 12.0754 9.97492 10.9435C9.97492 9.81168 10.3634 8.85852 11.1404 8.08404C11.9172 7.30938 12.8716 6.92204 14.0034 6.92204C15.1353 6.92204 16.0885 7.31054 16.8632 8.08754C17.6377 8.86454 18.0249 9.81898 18.0249 10.9508C18.0249 12.0827 17.6364 13.0359 16.8594 13.8103C16.0826 14.5848 15.1283 14.972 13.9964 14.972ZM13.992 25.6666C12.3762 25.6666 10.8578 25.3603 9.43679 24.7478C8.0156 24.1353 6.77942 23.3009 5.72825 22.2445C4.67689 21.1879 3.84827 19.9509 3.24238 18.5336C2.63629 17.1163 2.33325 15.6019 2.33325 13.9903C2.33325 12.3787 2.6395 10.8642 3.252 9.44671C3.8645 8.02941 4.69896 6.79575 5.75538 5.74575C6.81199 4.69575 8.04895 3.8645 9.46625 3.252C10.8836 2.6395 12.398 2.33325 14.0095 2.33325C15.6211 2.33325 17.1356 2.6395 18.5531 3.252C19.9704 3.8645 21.2041 4.69575 22.2541 5.74575C23.3041 6.79575 24.1353 8.03048 24.7478 9.44992C25.3603 10.8694 25.6666 12.3843 25.6666 13.9947C25.6666 15.6053 25.3603 17.1187 24.7478 18.535C24.1353 19.9514 23.3041 21.1879 22.2541 22.2445C21.2041 23.3009 19.9685 24.1353 18.5473 24.7478C17.1263 25.3603 15.6079 25.6666 13.992 25.6666Z" fill="#0088FF"/>
</g>
</svg>
